M48
; DRILL file {KiCad (6.0.0-0)} date Saturday, April 16, 2022 at 08:59:02 PM
; FORMAT={-:-/ absolute / metric / decimal}
; #@! TF.CreationDate,2022-04-16T20:59:02-05:00
; #@! TF.GenerationSoftware,Kicad,Pcbnew,(6.0.0-0)
; #@! TF.FileFunction,Plated,1,2,PTH
FMAT,2
METRIC
; #@! TA.AperFunction,Plated,PTH,ViaDrill
T1C0.250
; #@! TA.AperFunction,Plated,PTH,ViaDrill
T2C0.400
; #@! TA.AperFunction,Plated,PTH,ComponentDrill
T3C0.500
; #@! TA.AperFunction,Plated,PTH,ComponentDrill
T4C0.800
; #@! TA.AperFunction,Plated,PTH,ComponentDrill
T5C1.000
; #@! TA.AperFunction,Plated,PTH,ComponentDrill
T6C1.030
; #@! TA.AperFunction,Plated,PTH,ComponentDrill
T7C1.329
; #@! TA.AperFunction,Plated,PTH,ComponentDrill
T8C2.700
; #@! TA.AperFunction,Plated,PTH,ComponentDrill
T9C3.230
%
G90
G05
T1
X176.73Y-77.58
X177.98Y-84.28
X178.944Y-77.103
X179.163Y-65.148
X180.05Y-57.59
X180.492Y-65.352
X180.57Y-84.33
X181.232Y-59.992
X182.0Y-66.36
X182.0Y-69.81
X182.458Y-54.372
X183.2Y-56.86
X183.202Y-84.103
X183.443Y-50.336
X183.644Y-57.523
X183.67Y-73.1
X183.69Y-75.78
X183.912Y-66.36
X183.912Y-69.81
X184.41Y-60.6
X184.73Y-74.78
X184.799Y-50.546
X184.88Y-73.44
X185.75Y-45.95
X185.825Y-66.36
X185.825Y-69.81
X185.894Y-83.979
X185.928Y-50.673
X186.737Y-49.307
X186.8Y-74.17
X186.806Y-48.684
X187.261Y-50.609
X187.737Y-66.36
X187.737Y-69.81
X188.131Y-83.652
X188.595Y-50.546
X189.25Y-74.18
X189.65Y-66.36
X189.65Y-69.81
X189.779Y-48.27
X189.802Y-50.609
X189.97Y-81.9
X190.296Y-49.411
X190.52Y-74.71
X190.59Y-76.68
X190.609Y-83.909
X191.071Y-50.673
X191.562Y-66.36
X191.562Y-69.81
X191.82Y-61.24
X192.013Y-73.545
X192.255Y-51.496
X192.38Y-75.19
X192.398Y-49.656
X193.16Y-79.25
X193.23Y-77.103
X193.27Y-59.66
X193.475Y-66.36
X193.475Y-69.81
X193.631Y-89.294
X193.634Y-91.456
X193.67Y-50.562
X193.9Y-60.81
X193.97Y-73.07
X194.272Y-48.168
X194.845Y-86.558
X194.94Y-49.605
X195.11Y-92.047
X195.174Y-81.827
X195.19Y-52.42
X195.26Y-77.58
X195.387Y-66.36
X195.387Y-69.81
X195.887Y-76.278
X195.91Y-51.72
X195.91Y-54.73
X196.174Y-92.218
X196.71Y-84.235
X196.886Y-88.747
X197.3Y-66.36
X197.3Y-69.81
X197.698Y-84.55
X197.739Y-54.546
X198.48Y-84.852
X198.69Y-91.301
X198.79Y-50.64
X199.594Y-91.513
X199.72Y-84.758
X200.238Y-88.662
X200.279Y-54.61
X202.631Y-85.938
X202.721Y-84.657
X202.814Y-49.912
X202.952Y-88.582
X203.255Y-50.359
X203.913Y-90.911
X204.32Y-84.796
X204.46Y-49.372
X205.219Y-84.796
X205.33Y-51.33
X207.58Y-54.37
X208.366Y-84.344
X208.809Y-88.749
X208.824Y-50.488
X209.382Y-92.462
X209.436Y-84.453
X209.543Y-48.977
X209.679Y-86.203
X209.788Y-91.016
X210.1Y-54.37
X210.45Y-49.898
X210.81Y-81.68
X210.85Y-51.54
X211.387Y-84.485
X211.444Y-85.877
X211.462Y-59.593
X211.709Y-51.308
X212.43Y-89.057
X213.012Y-85.489
X213.4Y-57.691
X213.44Y-66.36
X213.44Y-69.81
X213.488Y-50.801
X213.99Y-51.725
X214.03Y-72.57
X214.694Y-50.673
X215.224Y-89.424
X215.34Y-72.02
X215.352Y-66.36
X215.352Y-69.81
X215.732Y-91.456
X215.74Y-84.36
X216.104Y-51.563
X216.355Y-77.795
X217.19Y-50.58
X217.265Y-66.36
X217.265Y-69.81
X217.359Y-75.148
X217.42Y-54.58
X217.764Y-88.916
X217.932Y-78.803
X218.213Y-77.293
X218.293Y-51.748
X218.468Y-83.701
X219.177Y-66.36
X219.177Y-69.81
X219.236Y-84.549
X219.44Y-72.69
X219.53Y-54.8
X219.576Y-49.571
X220.021Y-76.791
X220.23Y-57.5
X220.43Y-51.32
X220.571Y-84.385
X220.93Y-85.75
X221.09Y-66.36
X221.09Y-69.81
X221.68Y-49.605
X221.69Y-51.46
X221.69Y-56.92
X222.082Y-74.946
X223.002Y-66.36
X223.002Y-69.81
X223.018Y-84.43
X223.47Y-72.09
X223.606Y-57.42
X223.718Y-49.605
X224.463Y-48.513
X224.619Y-85.215
X224.622Y-54.88
X224.915Y-66.36
X224.915Y-69.81
X224.985Y-47.88
X225.278Y-48.997
X225.54Y-48.386
X225.703Y-81.777
X225.71Y-78.76
X226.827Y-66.36
X226.827Y-69.81
X227.048Y-47.984
X227.587Y-50.797
X228.194Y-83.95
X228.67Y-78.54
X228.74Y-66.36
X228.74Y-69.81
X228.854Y-50.673
X229.977Y-50.781
X230.029Y-85.466
X230.183Y-56.193
X230.264Y-51.338
X230.59Y-68.01
X231.25Y-64.78
X231.255Y-83.922
X231.54Y-51.68
X232.87Y-72.4
X233.55Y-83.95
X233.577Y-60.183
X236.2Y-84.02
X237.11Y-52.2
X237.401Y-61.447
X237.778Y-60.82
X237.778Y-62.12
T2
X180.68Y-58.69
X180.9Y-55.23
X182.816Y-49.53
X193.95Y-55.55
X194.73Y-59.84
X203.35Y-51.177
X207.51Y-64.58
X207.52Y-75.48
X208.38Y-69.81
X208.5Y-66.77
X210.98Y-64.58
X214.435Y-60.996
X217.53Y-60.22
X220.95Y-78.44
X230.85Y-60.22
X232.242Y-59.706
X233.23Y-48.25
T3
X175.975Y-46.0
X175.975Y-69.0
X175.975Y-95.0
X176.568Y-44.568
X176.568Y-47.432
X176.568Y-67.568
X176.568Y-70.432
X176.568Y-93.568
X176.568Y-96.432
X178.0Y-43.975
X178.0Y-48.025
X178.0Y-66.975
X178.0Y-71.025
X178.0Y-92.975
X178.0Y-97.025
X179.432Y-44.568
X179.432Y-47.432
X179.432Y-67.568
X179.432Y-70.432
X179.432Y-93.568
X179.432Y-96.432
X180.025Y-46.0
X180.025Y-69.0
X180.025Y-95.0
X233.975Y-46.0
X233.975Y-69.0
X233.975Y-95.0
X234.568Y-44.568
X234.568Y-47.432
X234.568Y-67.568
X234.568Y-70.432
X234.568Y-93.568
X234.568Y-96.432
X236.0Y-43.975
X236.0Y-48.025
X236.0Y-66.975
X236.0Y-71.025
X236.0Y-92.975
X236.0Y-97.025
X237.432Y-44.568
X237.432Y-47.432
X237.432Y-67.568
X237.432Y-70.432
X237.432Y-93.568
X237.432Y-96.432
X238.025Y-46.0
X238.025Y-69.0
X238.025Y-95.0
T4
X182.972Y-93.488
X182.972Y-95.488
X184.972Y-93.488
X184.972Y-95.488
X186.972Y-93.488
X186.972Y-95.488
X188.972Y-93.488
X188.972Y-95.488
X190.972Y-93.488
X190.972Y-95.488
X192.972Y-93.488
X192.972Y-95.488
X194.972Y-93.488
X194.972Y-95.488
X196.972Y-93.488
X196.972Y-95.488
X198.972Y-93.488
X198.972Y-95.488
X200.972Y-93.488
X200.972Y-95.488
X202.972Y-93.488
X202.972Y-95.488
X204.972Y-93.488
X204.972Y-95.488
X206.972Y-93.488
X206.972Y-95.488
X208.972Y-93.488
X208.972Y-95.488
X210.972Y-93.488
X210.972Y-95.488
X212.972Y-93.488
X212.972Y-95.488
X214.972Y-93.488
X214.972Y-95.488
X216.972Y-93.488
X216.972Y-95.488
X218.972Y-93.488
X218.972Y-95.488
X220.972Y-93.488
X220.972Y-95.488
X222.972Y-93.488
X222.972Y-95.488
X224.972Y-93.488
X224.972Y-95.488
X226.972Y-93.488
X226.972Y-95.488
X228.972Y-93.488
X228.972Y-95.488
X230.972Y-93.488
X230.972Y-95.488
T5
X176.466Y-80.454
X176.466Y-82.995
X176.73Y-73.3
X176.73Y-75.84
X178.01Y-51.08
X178.01Y-53.62
X178.01Y-56.16
X178.01Y-58.7
X178.01Y-61.24
X178.01Y-63.78
X179.006Y-80.454
X179.006Y-82.995
X179.27Y-73.3
X179.27Y-75.84
X181.546Y-80.454
X181.546Y-82.995
X181.81Y-73.3
X181.81Y-75.84
X182.87Y-44.73
X182.87Y-47.27
X184.087Y-80.454
X184.087Y-82.995
X185.41Y-44.73
X185.41Y-47.27
X186.626Y-80.454
X186.626Y-82.995
X187.95Y-44.73
X187.95Y-47.27
X189.166Y-80.454
X189.166Y-82.995
X190.49Y-44.73
X190.49Y-47.27
X191.707Y-80.454
X191.707Y-82.995
X193.03Y-44.73
X193.03Y-47.27
X194.246Y-80.454
X194.246Y-82.995
X195.57Y-44.73
X195.57Y-47.27
X196.786Y-80.454
X196.786Y-82.995
X198.11Y-44.73
X198.11Y-47.27
X199.326Y-80.454
X199.326Y-82.995
X200.07Y-67.76
X200.07Y-70.3
X200.07Y-72.84
X200.07Y-75.38
X200.65Y-44.73
X200.65Y-47.27
X201.867Y-80.454
X201.867Y-82.995
X203.19Y-44.73
X203.19Y-47.27
X204.406Y-80.454
X204.406Y-82.995
X205.73Y-44.73
X205.73Y-47.27
X206.946Y-80.454
X206.946Y-82.995
X208.27Y-44.73
X208.27Y-47.27
X209.486Y-80.454
X209.486Y-82.995
X210.81Y-44.73
X210.81Y-47.27
X212.026Y-80.454
X212.026Y-82.995
X213.35Y-44.73
X213.35Y-47.27
X214.566Y-80.454
X214.566Y-82.995
X215.89Y-44.73
X215.89Y-47.27
X217.106Y-80.454
X217.106Y-82.995
X218.43Y-44.73
X218.43Y-47.27
X219.647Y-80.454
X219.647Y-82.995
X220.97Y-44.73
X220.97Y-47.27
X222.186Y-80.454
X222.186Y-82.995
X223.51Y-44.73
X223.51Y-47.27
X224.726Y-80.454
X224.726Y-82.995
X226.05Y-44.73
X226.05Y-47.27
X227.266Y-80.454
X227.266Y-82.995
X228.59Y-44.73
X228.59Y-47.27
X229.806Y-80.454
X229.806Y-82.995
X231.13Y-44.73
X231.13Y-47.27
X232.346Y-80.454
X232.346Y-82.995
X233.426Y-51.943
X233.426Y-54.483
X234.886Y-80.454
X234.886Y-82.995
X237.426Y-80.454
X237.426Y-82.995
T6
X190.382Y-87.63
X191.767Y-90.47
X193.152Y-87.63
X194.537Y-90.47
X195.922Y-87.63
X197.307Y-90.47
X198.692Y-87.63
X200.077Y-90.47
X201.462Y-87.63
X202.847Y-90.47
X204.232Y-87.63
X205.617Y-90.47
X207.002Y-87.63
X208.387Y-90.47
X209.772Y-87.63
X211.157Y-90.47
X212.542Y-87.63
X213.927Y-90.47
X215.312Y-87.63
X216.697Y-90.47
X218.082Y-87.63
X219.467Y-90.47
X220.852Y-87.63
X222.237Y-90.47
X223.622Y-87.63
T7
X234.905Y-57.885
X234.905Y-65.035
X238.355Y-57.885
X238.355Y-65.035
T8
X178.0Y-46.0
X178.0Y-69.0
X178.0Y-95.0
X236.0Y-46.0
X236.0Y-69.0
X236.0Y-95.0
T9
X183.482Y-89.05
X230.522Y-89.05
T0
M30
