M48
; DRILL file {KiCad (5.1.12)-1} date 02/12/22 18:24:06
; FORMAT={-:-/ absolute / metric / decimal}
; #@! TF.CreationDate,2022-02-12T18:24:06-06:00
; #@! TF.GenerationSoftware,Kicad,Pcbnew,(5.1.12)-1
; #@! TF.FileFunction,Plated,1,2,PTH
FMAT,2
METRIC
T1C0.250
T2C0.400
T3C0.500
T4C0.800
T5C1.000
T6C1.030
T7C1.200
T8C1.329
T9C2.700
T10C3.230
%
G90
G05
T1
X81.504Y-24.797
X83.78Y-31.48
X84.055Y-24.797
X85.11Y-12.3
X85.695Y-1.144
X86.37Y-31.53
X87.31Y-11.7
X87.791Y-3.842
X87.794Y-18.605
X87.99Y-6.26
X88.01Y-17.6
X88.605Y-4.669
X88.68Y-11.271
X88.926Y-15.97
X89.002Y-31.303
X89.243Y2.464
X89.31Y-20.1
X89.59Y-2.16
X89.639Y-6.232
X89.95Y-11.271
X89.95Y-15.97
X90.21Y-7.8
X90.599Y2.254
X91.22Y-11.271
X91.22Y-15.97
X91.55Y6.85
X91.694Y-31.179
X91.707Y-24.797
X91.728Y2.127
X92.322Y-23.416
X92.49Y-11.271
X92.49Y-15.97
X92.537Y3.493
X92.606Y4.116
X93.061Y2.191
X93.76Y-11.271
X93.76Y-15.97
X93.931Y-30.852
X94.014Y-22.443
X94.257Y-24.797
X94.279Y-21.697
X94.395Y2.254
X94.55Y-5.64
X94.585Y-22.92
X94.966Y-11.271
X95.03Y-15.97
X95.426Y-23.397
X95.579Y4.53
X95.602Y2.191
X95.624Y-37.132
X95.737Y-16.793
X96.096Y3.389
X96.3Y-11.271
X96.3Y-15.97
X96.38Y-31.092
X96.427Y-21.067
X96.607Y-20.409
X96.808Y-25.3
X96.871Y2.127
X97.282Y-16.793
X97.57Y-11.271
X97.57Y-15.97
X97.594Y-19.27
X97.62Y-8.44
X98.055Y1.304
X98.198Y3.144
X98.91Y-11.271
X98.91Y-15.96
X99.384Y-25.518
X99.39Y-26.422
X99.431Y-36.494
X99.434Y-38.656
X99.47Y2.238
X99.7Y-8.01
X99.87Y-6.08
X100.072Y4.632
X100.645Y-33.758
X100.74Y3.195
X100.91Y-39.247
X100.974Y-29.027
X100.99Y0.38
X101.01Y-2.5
X101.187Y-17.241
X101.61Y-3.7
X101.71Y1.08
X101.71Y-1.93
X101.941Y-25.3
X101.974Y-39.418
X102.51Y-24.3
X102.51Y-31.435
X102.648Y-17.241
X102.686Y-35.947
X103.498Y-31.75
X103.539Y-1.746
X104.109Y-17.241
X104.28Y-32.052
X104.49Y-38.501
X104.59Y2.16
X104.71Y-25.3
X105.394Y-38.713
X105.52Y-31.958
X105.569Y-17.241
X106.038Y-35.862
X106.079Y-1.81
X107.028Y-25.3
X108.431Y-33.138
X108.491Y-17.241
X108.521Y-31.857
X108.614Y2.888
X108.752Y-35.782
X108.913Y-2.778
X109.055Y2.441
X109.713Y-38.111
X109.951Y-17.241
X110.12Y-31.996
X110.26Y3.428
X110.574Y-2.778
X111.019Y-31.996
X111.13Y1.47
X111.412Y-17.241
X112.111Y-25.3
X112.873Y-17.241
X113.38Y-1.57
X114.166Y-31.544
X114.334Y-17.241
X114.342Y2.641
X114.609Y-35.949
X114.966Y2.587
X114.997Y-6.403
X115.182Y-39.662
X115.236Y-31.653
X115.343Y3.823
X115.426Y-25.3
X115.479Y-33.403
X115.588Y-38.216
X115.794Y-17.241
X115.87Y2.372
X115.9Y-1.57
X116.61Y-28.88
X116.62Y2.918
X117.187Y-31.685
X117.244Y-33.077
X117.255Y-11.271
X117.255Y-15.97
X117.255Y-17.241
X117.509Y1.492
X117.616Y-25.3
X117.941Y-24.294
X118.23Y-36.257
X118.525Y-11.271
X118.525Y-15.97
X118.812Y-32.689
X118.967Y-23.842
X119.224Y2.139
X119.62Y-17.241
X119.795Y-11.271
X119.795Y-15.97
X119.795Y-23.752
X120.493Y2.127
X121.001Y-11.271
X121.024Y-36.624
X121.065Y-15.97
X121.401Y-23.539
X121.532Y-38.656
X121.54Y-31.56
X121.904Y1.237
X122.035Y-23.991
X122.07Y-2.16
X122.335Y-11.271
X122.335Y-15.97
X122.99Y2.22
X122.99Y-22.48
X123.22Y-1.78
X123.28Y-17.241
X123.564Y-36.116
X123.732Y-26.003
X124.093Y1.052
X124.176Y-22.828
X124.268Y-30.901
X124.494Y-17.241
X125.036Y-31.749
X125.33Y-2.0
X125.383Y3.293
X125.695Y-17.241
X126.335Y-2.318
X126.371Y-31.585
X126.73Y-32.95
X126.895Y-17.241
X127.23Y-14.01
X127.48Y3.195
X127.605Y-2.064
X128.096Y-17.241
X128.16Y1.92
X128.818Y-31.63
X129.494Y-23.222
X129.518Y3.195
X129.914Y-25.956
X130.082Y-11.589
X130.2Y-14.1
X130.263Y4.287
X130.419Y-32.415
X130.72Y1.97
X130.785Y4.92
X131.078Y3.803
X131.34Y4.414
X131.503Y-28.977
X131.51Y-25.96
X131.542Y-11.335
X131.542Y-16.161
X132.812Y-11.335
X132.812Y-16.161
X132.812Y-17.241
X132.848Y4.816
X133.387Y2.003
X133.91Y-21.03
X133.994Y-31.15
X134.082Y-11.335
X134.082Y-16.161
X134.082Y-17.241
X134.47Y-25.74
X134.654Y2.127
X135.352Y-11.335
X135.352Y-16.161
X135.777Y2.019
X135.829Y-32.666
X136.064Y1.462
X136.876Y-5.493
X137.055Y-31.122
X137.324Y2.18
X137.34Y1.12
X138.591Y-19.653
X138.73Y-17.885
X139.35Y-31.15
X139.377Y-7.383
X139.377Y-9.983
X140.305Y1.746
X140.328Y-36.736
X142.0Y-31.22
X142.91Y0.6
X143.201Y-7.38
X143.201Y-8.647
X143.201Y-9.974
X143.578Y-8.02
X143.578Y-9.32
X144.138Y-37.64
T2
X85.759Y-6.572
X87.558Y-13.316
X88.617Y3.27
X109.15Y1.623
X121.065Y-7.271
X123.414Y-13.748
X125.637Y-7.398
X126.75Y-25.64
X135.496Y-6.239
X137.511Y-19.907
X139.03Y4.55
T3
X81.775Y6.8
X81.775Y-16.2
X81.775Y-42.2
X82.368Y8.232
X82.368Y5.368
X82.368Y-14.768
X82.368Y-17.632
X82.368Y-40.768
X82.368Y-43.632
X83.8Y8.825
X83.8Y4.775
X83.8Y-14.175
X83.8Y-18.225
X83.8Y-40.175
X83.8Y-44.225
X85.232Y8.232
X85.232Y5.368
X85.232Y-14.768
X85.232Y-17.632
X85.232Y-40.768
X85.232Y-43.632
X85.825Y6.8
X85.825Y-16.2
X85.825Y-42.2
X139.775Y6.8
X139.775Y-16.2
X139.775Y-42.2
X140.368Y8.232
X140.368Y5.368
X140.368Y-14.768
X140.368Y-17.632
X140.368Y-40.768
X140.368Y-43.632
X141.8Y8.825
X141.8Y4.775
X141.8Y-14.175
X141.8Y-18.225
X141.8Y-40.175
X141.8Y-44.225
X143.232Y8.232
X143.232Y5.368
X143.232Y-14.768
X143.232Y-17.632
X143.232Y-40.768
X143.232Y-43.632
X143.825Y6.8
X143.825Y-16.2
X143.825Y-42.2
T4
X88.772Y-40.688
X88.772Y-42.688
X90.772Y-40.688
X90.772Y-42.688
X92.772Y-40.688
X92.772Y-42.688
X94.772Y-40.688
X94.772Y-42.688
X96.772Y-40.688
X96.772Y-42.688
X98.772Y-40.688
X98.772Y-42.688
X100.772Y-40.688
X100.772Y-42.688
X102.772Y-40.688
X102.772Y-42.688
X104.772Y-40.688
X104.772Y-42.688
X106.772Y-40.688
X106.772Y-42.688
X108.772Y-40.688
X108.772Y-42.688
X110.772Y-40.688
X110.772Y-42.688
X112.772Y-40.688
X112.772Y-42.688
X114.772Y-40.688
X114.772Y-42.688
X116.772Y-40.688
X116.772Y-42.688
X118.772Y-40.688
X118.772Y-42.688
X120.772Y-40.688
X120.772Y-42.688
X122.772Y-40.688
X122.772Y-42.688
X124.772Y-40.688
X124.772Y-42.688
X126.772Y-40.688
X126.772Y-42.688
X128.772Y-40.688
X128.772Y-42.688
X130.772Y-40.688
X130.772Y-42.688
X132.772Y-40.688
X132.772Y-42.688
X134.772Y-40.688
X134.772Y-42.688
X136.772Y-40.688
X136.772Y-42.688
X143.63Y-32.592
X143.63Y-34.592
X143.63Y-36.592
X143.63Y-38.592
T5
X82.266Y-27.654
X82.266Y-30.194
X82.38Y2.28
X82.53Y-20.5
X82.53Y-23.04
X83.81Y-0.82
X83.81Y-3.36
X83.81Y-5.9
X83.81Y-8.44
X83.81Y-10.98
X84.806Y-27.654
X84.806Y-30.194
X84.92Y2.28
X85.07Y-20.5
X85.07Y-23.04
X87.346Y-27.654
X87.346Y-30.194
X87.61Y-20.5
X87.61Y-23.04
X88.67Y8.07
X88.67Y5.53
X89.886Y-27.654
X89.886Y-30.194
X91.21Y8.07
X91.21Y5.53
X92.426Y-27.654
X92.426Y-30.194
X93.75Y8.07
X93.75Y5.53
X94.966Y-27.654
X94.966Y-30.194
X96.29Y8.07
X96.29Y5.53
X97.507Y-27.654
X97.507Y-30.194
X98.83Y8.07
X98.83Y5.53
X100.046Y-27.654
X100.046Y-30.194
X101.37Y8.07
X101.37Y5.53
X102.587Y-27.654
X102.587Y-30.194
X103.91Y8.07
X103.91Y5.53
X105.126Y-27.654
X105.126Y-30.194
X106.45Y8.07
X106.45Y5.53
X107.666Y-27.654
X107.666Y-30.194
X108.99Y8.07
X108.99Y5.53
X110.206Y-27.654
X110.206Y-30.194
X111.53Y8.07
X111.53Y5.53
X112.746Y-27.654
X112.746Y-30.194
X114.07Y8.07
X114.07Y5.53
X115.286Y-27.654
X115.286Y-30.194
X116.61Y8.07
X116.61Y5.53
X117.826Y-27.654
X117.826Y-30.194
X119.15Y8.07
X119.15Y5.53
X120.366Y-27.654
X120.366Y-30.194
X121.69Y8.07
X121.69Y5.53
X122.906Y-27.654
X122.906Y-30.194
X124.23Y8.07
X124.23Y5.53
X125.447Y-27.654
X125.447Y-30.194
X126.77Y8.07
X126.77Y5.53
X127.986Y-27.654
X127.986Y-30.194
X129.31Y8.07
X129.31Y5.53
X130.526Y-27.654
X130.526Y-30.194
X131.85Y8.07
X131.85Y5.53
X133.066Y-27.654
X133.066Y-30.194
X134.39Y8.07
X134.39Y5.53
X135.606Y-27.654
X135.606Y-30.194
X136.93Y8.07
X136.93Y5.53
X138.147Y-27.654
X138.147Y-30.194
X139.226Y0.857
X139.226Y-1.683
X140.686Y-27.654
X140.686Y-30.194
X143.226Y-27.654
X143.226Y-30.194
T6
X96.182Y-34.83
X97.567Y-37.67
X98.952Y-34.83
X100.337Y-37.67
X101.722Y-34.83
X103.107Y-37.67
X104.492Y-34.83
X105.877Y-37.67
X107.262Y-34.83
X108.647Y-37.67
X110.032Y-34.83
X111.417Y-37.67
X112.802Y-34.83
X114.187Y-37.67
X115.572Y-34.83
X116.957Y-37.67
X118.342Y-34.83
X119.727Y-37.67
X121.112Y-34.83
X122.497Y-37.67
X123.882Y-34.83
X125.267Y-37.67
X126.652Y-34.83
X128.037Y-37.67
X129.422Y-34.83
T7
X106.91Y-14.7
X106.91Y-17.2
X106.91Y-19.7
X106.91Y-22.2
T8
X140.705Y-5.085
X140.705Y-12.235
X144.155Y-5.085
X144.155Y-12.235
T9
X83.8Y6.8
X83.8Y-16.2
X83.8Y-42.2
X141.8Y6.8
X141.8Y-16.2
X141.8Y-42.2
T10
X89.282Y-36.25
X136.322Y-36.25
T0
M30
