%TF.GenerationSoftware,KiCad,Pcbnew,(5.1.12)-1*%
%TF.CreationDate,2022-02-12T18:24:05-06:00*%
%TF.ProjectId,rascsi_2p4,72617363-7369-45f3-9270-342e6b696361,rev?*%
%TF.SameCoordinates,PX59d60c0PY325aa00*%
%TF.FileFunction,Legend,Top*%
%TF.FilePolarity,Positive*%
%FSLAX46Y46*%
G04 Gerber Fmt 4.6, Leading zero omitted, Abs format (unit mm)*
G04 Created by KiCad (PCBNEW (5.1.12)-1) date 2022-02-12 18:24:05*
%MOMM*%
%LPD*%
G01*
G04 APERTURE LIST*
%ADD10C,0.250000*%
%ADD11C,0.150000*%
%ADD12C,0.120000*%
%ADD13C,0.400000*%
%TA.AperFunction,Profile*%
%ADD14C,0.050000*%
%TD*%
%ADD15C,0.200000*%
%ADD16C,0.100000*%
%ADD17C,0.010000*%
%ADD18C,0.254000*%
G04 APERTURE END LIST*
D10*
X87310000Y-18411904D02*
X87667142Y-18530952D01*
X88262380Y-18530952D01*
X88500476Y-18411904D01*
X88619523Y-18292857D01*
X88738571Y-18054761D01*
X88738571Y-17816666D01*
X88619523Y-17578571D01*
X88500476Y-17459523D01*
X88262380Y-17340476D01*
X87786190Y-17221428D01*
X87548095Y-17102380D01*
X87429047Y-16983333D01*
X87310000Y-16745238D01*
X87310000Y-16507142D01*
X87429047Y-16269047D01*
X87548095Y-16150000D01*
X87786190Y-16030952D01*
X88381428Y-16030952D01*
X88738571Y-16150000D01*
X89810000Y-18530952D02*
X89810000Y-16030952D01*
X91238571Y-18530952D01*
X91238571Y-16030952D01*
X92190952Y-16030952D02*
X93857619Y-16030952D01*
X92786190Y-18530952D01*
X95881428Y-16864285D02*
X95881428Y-18530952D01*
X95286190Y-15911904D02*
X94690952Y-17697619D01*
X96238571Y-17697619D01*
X98024285Y-17221428D02*
X97190952Y-17221428D01*
X97190952Y-18530952D02*
X97190952Y-16030952D01*
X98381428Y-16030952D01*
X99214761Y-16269047D02*
X99333809Y-16150000D01*
X99571904Y-16030952D01*
X100167142Y-16030952D01*
X100405238Y-16150000D01*
X100524285Y-16269047D01*
X100643333Y-16507142D01*
X100643333Y-16745238D01*
X100524285Y-17102380D01*
X99095714Y-18530952D01*
X100643333Y-18530952D01*
X102786190Y-16864285D02*
X102786190Y-18530952D01*
X102190952Y-15911904D02*
X101595714Y-17697619D01*
X103143333Y-17697619D01*
X105286190Y-16030952D02*
X104095714Y-16030952D01*
X103976666Y-17221428D01*
X104095714Y-17102380D01*
X104333809Y-16983333D01*
X104929047Y-16983333D01*
X105167142Y-17102380D01*
X105286190Y-17221428D01*
X105405238Y-17459523D01*
X105405238Y-18054761D01*
X105286190Y-18292857D01*
X105167142Y-18411904D01*
X104929047Y-18530952D01*
X104333809Y-18530952D01*
X104095714Y-18411904D01*
X103976666Y-18292857D01*
X93321904Y-20030952D02*
X94750476Y-20030952D01*
X94036190Y-22530952D02*
X94036190Y-20030952D01*
X95583809Y-21221428D02*
X96417142Y-21221428D01*
X96774285Y-22530952D02*
X95583809Y-22530952D01*
X95583809Y-20030952D01*
X96774285Y-20030952D01*
X97726666Y-22411904D02*
X98083809Y-22530952D01*
X98679047Y-22530952D01*
X98917142Y-22411904D01*
X99036190Y-22292857D01*
X99155238Y-22054761D01*
X99155238Y-21816666D01*
X99036190Y-21578571D01*
X98917142Y-21459523D01*
X98679047Y-21340476D01*
X98202857Y-21221428D01*
X97964761Y-21102380D01*
X97845714Y-20983333D01*
X97726666Y-20745238D01*
X97726666Y-20507142D01*
X97845714Y-20269047D01*
X97964761Y-20150000D01*
X98202857Y-20030952D01*
X98798095Y-20030952D01*
X99155238Y-20150000D01*
X99869523Y-20030952D02*
X101298095Y-20030952D01*
X100583809Y-22530952D02*
X100583809Y-20030952D01*
D11*
X89848095Y-25104761D02*
X89990952Y-25152380D01*
X90229047Y-25152380D01*
X90324285Y-25104761D01*
X90371904Y-25057142D01*
X90419523Y-24961904D01*
X90419523Y-24866666D01*
X90371904Y-24771428D01*
X90324285Y-24723809D01*
X90229047Y-24676190D01*
X90038571Y-24628571D01*
X89943333Y-24580952D01*
X89895714Y-24533333D01*
X89848095Y-24438095D01*
X89848095Y-24342857D01*
X89895714Y-24247619D01*
X89943333Y-24200000D01*
X90038571Y-24152380D01*
X90276666Y-24152380D01*
X90419523Y-24200000D01*
X90848095Y-25152380D02*
X90848095Y-24152380D01*
X91419523Y-25152380D01*
X91419523Y-24152380D01*
X91800476Y-24152380D02*
X92467142Y-24152380D01*
X92038571Y-25152380D01*
X93276666Y-24485714D02*
X93276666Y-25152380D01*
X93038571Y-24104761D02*
X92800476Y-24819047D01*
X93419523Y-24819047D01*
X94133809Y-24628571D02*
X93800476Y-24628571D01*
X93800476Y-25152380D02*
X93800476Y-24152380D01*
X94276666Y-24152380D01*
X94610000Y-24247619D02*
X94657619Y-24200000D01*
X94752857Y-24152380D01*
X94990952Y-24152380D01*
X95086190Y-24200000D01*
X95133809Y-24247619D01*
X95181428Y-24342857D01*
X95181428Y-24438095D01*
X95133809Y-24580952D01*
X94562380Y-25152380D01*
X95181428Y-25152380D01*
X96038571Y-24485714D02*
X96038571Y-25152380D01*
X95800476Y-24104761D02*
X95562380Y-24819047D01*
X96181428Y-24819047D01*
X97038571Y-24152380D02*
X96562380Y-24152380D01*
X96514761Y-24628571D01*
X96562380Y-24580952D01*
X96657619Y-24533333D01*
X96895714Y-24533333D01*
X96990952Y-24580952D01*
X97038571Y-24628571D01*
X97086190Y-24723809D01*
X97086190Y-24961904D01*
X97038571Y-25057142D01*
X96990952Y-25104761D01*
X96895714Y-25152380D01*
X96657619Y-25152380D01*
X96562380Y-25104761D01*
X96514761Y-25057142D01*
X97514761Y-25152380D02*
X97514761Y-24152380D01*
X97752857Y-24152380D01*
X97895714Y-24200000D01*
X97990952Y-24295238D01*
X98038571Y-24390476D01*
X98086190Y-24580952D01*
X98086190Y-24723809D01*
X98038571Y-24914285D01*
X97990952Y-25009523D01*
X97895714Y-25104761D01*
X97752857Y-25152380D01*
X97514761Y-25152380D01*
X98419523Y-24152380D02*
X98657619Y-25152380D01*
X98848095Y-24438095D01*
X99038571Y-25152380D01*
X99276666Y-24152380D01*
X100229047Y-25152380D02*
X99895714Y-24676190D01*
X99657619Y-25152380D02*
X99657619Y-24152380D01*
X100038571Y-24152380D01*
X100133809Y-24200000D01*
X100181428Y-24247619D01*
X100229047Y-24342857D01*
X100229047Y-24485714D01*
X100181428Y-24580952D01*
X100133809Y-24628571D01*
X100038571Y-24676190D01*
X99657619Y-24676190D01*
X101276666Y-24152380D02*
X101848095Y-24152380D01*
X101562380Y-25152380D02*
X101562380Y-24152380D01*
X102181428Y-24628571D02*
X102514761Y-24628571D01*
X102657619Y-25152380D02*
X102181428Y-25152380D01*
X102181428Y-24152380D01*
X102657619Y-24152380D01*
X103038571Y-25104761D02*
X103181428Y-25152380D01*
X103419523Y-25152380D01*
X103514761Y-25104761D01*
X103562380Y-25057142D01*
X103610000Y-24961904D01*
X103610000Y-24866666D01*
X103562380Y-24771428D01*
X103514761Y-24723809D01*
X103419523Y-24676190D01*
X103229047Y-24628571D01*
X103133809Y-24580952D01*
X103086190Y-24533333D01*
X103038571Y-24438095D01*
X103038571Y-24342857D01*
X103086190Y-24247619D01*
X103133809Y-24200000D01*
X103229047Y-24152380D01*
X103467142Y-24152380D01*
X103610000Y-24200000D01*
X103895714Y-24152380D02*
X104467142Y-24152380D01*
X104181428Y-25152380D02*
X104181428Y-24152380D01*
X139526380Y-35909523D02*
X140240666Y-35909523D01*
X140383523Y-35957142D01*
X140478761Y-36052380D01*
X140526380Y-36195238D01*
X140526380Y-36290476D01*
X140526380Y-34909523D02*
X140526380Y-35480952D01*
X140526380Y-35195238D02*
X139526380Y-35195238D01*
X139669238Y-35290476D01*
X139764476Y-35385714D01*
X139812095Y-35480952D01*
X139526380Y-34290476D02*
X139526380Y-34195238D01*
X139574000Y-34100000D01*
X139621619Y-34052380D01*
X139716857Y-34004761D01*
X139907333Y-33957142D01*
X140145428Y-33957142D01*
X140335904Y-34004761D01*
X140431142Y-34052380D01*
X140478761Y-34100000D01*
X140526380Y-34195238D01*
X140526380Y-34290476D01*
X140478761Y-34385714D01*
X140431142Y-34433333D01*
X140335904Y-34480952D01*
X140145428Y-34528571D01*
X139907333Y-34528571D01*
X139716857Y-34480952D01*
X139621619Y-34433333D01*
X139574000Y-34385714D01*
X139526380Y-34290476D01*
X92528476Y-34044380D02*
X92528476Y-34758666D01*
X92480857Y-34901523D01*
X92385619Y-34996761D01*
X92242761Y-35044380D01*
X92147523Y-35044380D01*
X93528476Y-35044380D02*
X92957047Y-35044380D01*
X93242761Y-35044380D02*
X93242761Y-34044380D01*
X93147523Y-34187238D01*
X93052285Y-34282476D01*
X92957047Y-34330095D01*
X94147523Y-34044380D02*
X94242761Y-34044380D01*
X94338000Y-34092000D01*
X94385619Y-34139619D01*
X94433238Y-34234857D01*
X94480857Y-34425333D01*
X94480857Y-34663428D01*
X94433238Y-34853904D01*
X94385619Y-34949142D01*
X94338000Y-34996761D01*
X94242761Y-35044380D01*
X94147523Y-35044380D01*
X94052285Y-34996761D01*
X94004666Y-34949142D01*
X93957047Y-34853904D01*
X93909428Y-34663428D01*
X93909428Y-34425333D01*
X93957047Y-34234857D01*
X94004666Y-34139619D01*
X94052285Y-34092000D01*
X94147523Y-34044380D01*
X86654666Y-39378380D02*
X86654666Y-40092666D01*
X86607047Y-40235523D01*
X86511809Y-40330761D01*
X86368952Y-40378380D01*
X86273714Y-40378380D01*
X87178476Y-40378380D02*
X87368952Y-40378380D01*
X87464190Y-40330761D01*
X87511809Y-40283142D01*
X87607047Y-40140285D01*
X87654666Y-39949809D01*
X87654666Y-39568857D01*
X87607047Y-39473619D01*
X87559428Y-39426000D01*
X87464190Y-39378380D01*
X87273714Y-39378380D01*
X87178476Y-39426000D01*
X87130857Y-39473619D01*
X87083238Y-39568857D01*
X87083238Y-39806952D01*
X87130857Y-39902190D01*
X87178476Y-39949809D01*
X87273714Y-39997428D01*
X87464190Y-39997428D01*
X87559428Y-39949809D01*
X87607047Y-39902190D01*
X87654666Y-39806952D01*
D12*
X127628000Y-43990000D02*
X127628000Y-39418000D01*
X129914000Y-43990000D02*
X127628000Y-43990000D01*
X129914000Y-39418000D02*
X129914000Y-43990000D01*
X127628000Y-39418000D02*
X129914000Y-39418000D01*
X127882000Y-43736000D02*
X127882000Y-39672000D01*
X129660000Y-43736000D02*
X127882000Y-43736000D01*
X129660000Y-39672000D02*
X129660000Y-43736000D01*
X127882000Y-39672000D02*
X129660000Y-39672000D01*
X109848000Y-41450000D02*
X109848000Y-39926000D01*
X111626000Y-41450000D02*
X109848000Y-41450000D01*
X111626000Y-39926000D02*
X111626000Y-41450000D01*
X109848000Y-39926000D02*
X111626000Y-39926000D01*
X109594000Y-41704000D02*
X109594000Y-39672000D01*
X111880000Y-41704000D02*
X109594000Y-41704000D01*
X111880000Y-39672000D02*
X111880000Y-41704000D01*
X109594000Y-39672000D02*
X111880000Y-39672000D01*
D11*
X140829714Y-39017904D02*
X140448761Y-39017904D01*
X140448761Y-38217904D01*
X141096380Y-38598857D02*
X141363047Y-38598857D01*
X141477333Y-39017904D02*
X141096380Y-39017904D01*
X141096380Y-38217904D01*
X141477333Y-38217904D01*
X141820190Y-39017904D02*
X141820190Y-38217904D01*
X142010666Y-38217904D01*
X142124952Y-38256000D01*
X142201142Y-38332190D01*
X142239238Y-38408380D01*
X142277333Y-38560761D01*
X142277333Y-38675047D01*
X142239238Y-38827428D01*
X142201142Y-38903619D01*
X142124952Y-38979809D01*
X142010666Y-39017904D01*
X141820190Y-39017904D01*
X140817047Y-36985904D02*
X140817047Y-36185904D01*
X141198000Y-36985904D02*
X141198000Y-36185904D01*
X141388476Y-36185904D01*
X141502761Y-36224000D01*
X141578952Y-36300190D01*
X141617047Y-36376380D01*
X141655142Y-36528761D01*
X141655142Y-36643047D01*
X141617047Y-36795428D01*
X141578952Y-36871619D01*
X141502761Y-36947809D01*
X141388476Y-36985904D01*
X141198000Y-36985904D01*
X142417047Y-36985904D02*
X141959904Y-36985904D01*
X142188476Y-36985904D02*
X142188476Y-36185904D01*
X142112285Y-36300190D01*
X142036095Y-36376380D01*
X141959904Y-36414476D01*
X140817047Y-32921904D02*
X140817047Y-32121904D01*
X141198000Y-32921904D02*
X141198000Y-32121904D01*
X141388476Y-32121904D01*
X141502761Y-32160000D01*
X141578952Y-32236190D01*
X141617047Y-32312380D01*
X141655142Y-32464761D01*
X141655142Y-32579047D01*
X141617047Y-32731428D01*
X141578952Y-32807619D01*
X141502761Y-32883809D01*
X141388476Y-32921904D01*
X141198000Y-32921904D01*
X142340857Y-32388571D02*
X142340857Y-32921904D01*
X142150380Y-32083809D02*
X141959904Y-32655238D01*
X142455142Y-32655238D01*
X140817047Y-34953904D02*
X140817047Y-34153904D01*
X141198000Y-34953904D02*
X141198000Y-34153904D01*
X141388476Y-34153904D01*
X141502761Y-34192000D01*
X141578952Y-34268190D01*
X141617047Y-34344380D01*
X141655142Y-34496761D01*
X141655142Y-34611047D01*
X141617047Y-34763428D01*
X141578952Y-34839619D01*
X141502761Y-34915809D01*
X141388476Y-34953904D01*
X141198000Y-34953904D01*
X141959904Y-34230095D02*
X141998000Y-34192000D01*
X142074190Y-34153904D01*
X142264666Y-34153904D01*
X142340857Y-34192000D01*
X142378952Y-34230095D01*
X142417047Y-34306285D01*
X142417047Y-34382476D01*
X142378952Y-34496761D01*
X141921809Y-34953904D01*
X142417047Y-34953904D01*
X130161714Y-44859904D02*
X129780761Y-44859904D01*
X129780761Y-44059904D01*
X130428380Y-44440857D02*
X130695047Y-44440857D01*
X130809333Y-44859904D02*
X130428380Y-44859904D01*
X130428380Y-44059904D01*
X130809333Y-44059904D01*
X131152190Y-44859904D02*
X131152190Y-44059904D01*
X131342666Y-44059904D01*
X131456952Y-44098000D01*
X131533142Y-44174190D01*
X131571238Y-44250380D01*
X131609333Y-44402761D01*
X131609333Y-44517047D01*
X131571238Y-44669428D01*
X131533142Y-44745619D01*
X131456952Y-44821809D01*
X131342666Y-44859904D01*
X131152190Y-44859904D01*
X106190476Y-44859904D02*
X106190476Y-44059904D01*
X106380952Y-44059904D01*
X106495238Y-44098000D01*
X106571428Y-44174190D01*
X106609523Y-44250380D01*
X106647619Y-44402761D01*
X106647619Y-44517047D01*
X106609523Y-44669428D01*
X106571428Y-44745619D01*
X106495238Y-44821809D01*
X106380952Y-44859904D01*
X106190476Y-44859904D01*
X106990476Y-44859904D02*
X106990476Y-44059904D01*
X107295238Y-44059904D01*
X107371428Y-44098000D01*
X107409523Y-44136095D01*
X107447619Y-44212285D01*
X107447619Y-44326571D01*
X107409523Y-44402761D01*
X107371428Y-44440857D01*
X107295238Y-44478952D01*
X106990476Y-44478952D01*
X112051523Y-44859904D02*
X112051523Y-44059904D01*
X112242000Y-44059904D01*
X112356285Y-44098000D01*
X112432476Y-44174190D01*
X112470571Y-44250380D01*
X112508666Y-44402761D01*
X112508666Y-44517047D01*
X112470571Y-44669428D01*
X112432476Y-44745619D01*
X112356285Y-44821809D01*
X112242000Y-44859904D01*
X112051523Y-44859904D01*
X113232476Y-44059904D02*
X112851523Y-44059904D01*
X112813428Y-44440857D01*
X112851523Y-44402761D01*
X112927714Y-44364666D01*
X113118190Y-44364666D01*
X113194380Y-44402761D01*
X113232476Y-44440857D01*
X113270571Y-44517047D01*
X113270571Y-44707523D01*
X113232476Y-44783714D01*
X113194380Y-44821809D01*
X113118190Y-44859904D01*
X112927714Y-44859904D01*
X112851523Y-44821809D01*
X112813428Y-44783714D01*
X121131904Y-45088476D02*
X120331904Y-45088476D01*
X120331904Y-44898000D01*
X120370000Y-44783714D01*
X120446190Y-44707523D01*
X120522380Y-44669428D01*
X120674761Y-44631333D01*
X120789047Y-44631333D01*
X120941428Y-44669428D01*
X121017619Y-44707523D01*
X121093809Y-44783714D01*
X121131904Y-44898000D01*
X121131904Y-45088476D01*
X121131904Y-43869428D02*
X121131904Y-44326571D01*
X121131904Y-44098000D02*
X120331904Y-44098000D01*
X120446190Y-44174190D01*
X120522380Y-44250380D01*
X120560476Y-44326571D01*
X121957523Y-44859904D02*
X121957523Y-44059904D01*
X122148000Y-44059904D01*
X122262285Y-44098000D01*
X122338476Y-44174190D01*
X122376571Y-44250380D01*
X122414666Y-44402761D01*
X122414666Y-44517047D01*
X122376571Y-44669428D01*
X122338476Y-44745619D01*
X122262285Y-44821809D01*
X122148000Y-44859904D01*
X121957523Y-44859904D01*
X122909904Y-44059904D02*
X122986095Y-44059904D01*
X123062285Y-44098000D01*
X123100380Y-44136095D01*
X123138476Y-44212285D01*
X123176571Y-44364666D01*
X123176571Y-44555142D01*
X123138476Y-44707523D01*
X123100380Y-44783714D01*
X123062285Y-44821809D01*
X122986095Y-44859904D01*
X122909904Y-44859904D01*
X122833714Y-44821809D01*
X122795619Y-44783714D01*
X122757523Y-44707523D01*
X122719428Y-44555142D01*
X122719428Y-44364666D01*
X122757523Y-44212285D01*
X122795619Y-44136095D01*
X122833714Y-44098000D01*
X122909904Y-44059904D01*
X118147523Y-44859904D02*
X118147523Y-44059904D01*
X118338000Y-44059904D01*
X118452285Y-44098000D01*
X118528476Y-44174190D01*
X118566571Y-44250380D01*
X118604666Y-44402761D01*
X118604666Y-44517047D01*
X118566571Y-44669428D01*
X118528476Y-44745619D01*
X118452285Y-44821809D01*
X118338000Y-44859904D01*
X118147523Y-44859904D01*
X118909428Y-44136095D02*
X118947523Y-44098000D01*
X119023714Y-44059904D01*
X119214190Y-44059904D01*
X119290380Y-44098000D01*
X119328476Y-44136095D01*
X119366571Y-44212285D01*
X119366571Y-44288476D01*
X119328476Y-44402761D01*
X118871333Y-44859904D01*
X119366571Y-44859904D01*
X116115523Y-44859904D02*
X116115523Y-44059904D01*
X116306000Y-44059904D01*
X116420285Y-44098000D01*
X116496476Y-44174190D01*
X116534571Y-44250380D01*
X116572666Y-44402761D01*
X116572666Y-44517047D01*
X116534571Y-44669428D01*
X116496476Y-44745619D01*
X116420285Y-44821809D01*
X116306000Y-44859904D01*
X116115523Y-44859904D01*
X116839333Y-44059904D02*
X117334571Y-44059904D01*
X117067904Y-44364666D01*
X117182190Y-44364666D01*
X117258380Y-44402761D01*
X117296476Y-44440857D01*
X117334571Y-44517047D01*
X117334571Y-44707523D01*
X117296476Y-44783714D01*
X117258380Y-44821809D01*
X117182190Y-44859904D01*
X116953619Y-44859904D01*
X116877428Y-44821809D01*
X116839333Y-44783714D01*
X114083523Y-44859904D02*
X114083523Y-44059904D01*
X114274000Y-44059904D01*
X114388285Y-44098000D01*
X114464476Y-44174190D01*
X114502571Y-44250380D01*
X114540666Y-44402761D01*
X114540666Y-44517047D01*
X114502571Y-44669428D01*
X114464476Y-44745619D01*
X114388285Y-44821809D01*
X114274000Y-44859904D01*
X114083523Y-44859904D01*
X115226380Y-44326571D02*
X115226380Y-44859904D01*
X115035904Y-44021809D02*
X114845428Y-44593238D01*
X115340666Y-44593238D01*
X107987523Y-44859904D02*
X107987523Y-44059904D01*
X108178000Y-44059904D01*
X108292285Y-44098000D01*
X108368476Y-44174190D01*
X108406571Y-44250380D01*
X108444666Y-44402761D01*
X108444666Y-44517047D01*
X108406571Y-44669428D01*
X108368476Y-44745619D01*
X108292285Y-44821809D01*
X108178000Y-44859904D01*
X107987523Y-44859904D01*
X108711333Y-44059904D02*
X109244666Y-44059904D01*
X108901809Y-44859904D01*
X110019523Y-44859904D02*
X110019523Y-44059904D01*
X110210000Y-44059904D01*
X110324285Y-44098000D01*
X110400476Y-44174190D01*
X110438571Y-44250380D01*
X110476666Y-44402761D01*
X110476666Y-44517047D01*
X110438571Y-44669428D01*
X110400476Y-44745619D01*
X110324285Y-44821809D01*
X110210000Y-44859904D01*
X110019523Y-44859904D01*
X111162380Y-44059904D02*
X111010000Y-44059904D01*
X110933809Y-44098000D01*
X110895714Y-44136095D01*
X110819523Y-44250380D01*
X110781428Y-44402761D01*
X110781428Y-44707523D01*
X110819523Y-44783714D01*
X110857619Y-44821809D01*
X110933809Y-44859904D01*
X111086190Y-44859904D01*
X111162380Y-44821809D01*
X111200476Y-44783714D01*
X111238571Y-44707523D01*
X111238571Y-44517047D01*
X111200476Y-44440857D01*
X111162380Y-44402761D01*
X111086190Y-44364666D01*
X110933809Y-44364666D01*
X110857619Y-44402761D01*
X110819523Y-44440857D01*
X110781428Y-44517047D01*
X102450285Y-44440857D02*
X102564571Y-44478952D01*
X102602666Y-44517047D01*
X102640761Y-44593238D01*
X102640761Y-44707523D01*
X102602666Y-44783714D01*
X102564571Y-44821809D01*
X102488380Y-44859904D01*
X102183619Y-44859904D01*
X102183619Y-44059904D01*
X102450285Y-44059904D01*
X102526476Y-44098000D01*
X102564571Y-44136095D01*
X102602666Y-44212285D01*
X102602666Y-44288476D01*
X102564571Y-44364666D01*
X102526476Y-44402761D01*
X102450285Y-44440857D01*
X102183619Y-44440857D01*
X103136000Y-44478952D02*
X103136000Y-44859904D01*
X102869333Y-44059904D02*
X103136000Y-44478952D01*
X103402666Y-44059904D01*
X100113523Y-44631333D02*
X100494476Y-44631333D01*
X100037333Y-44859904D02*
X100304000Y-44059904D01*
X100570666Y-44859904D01*
X100837333Y-44859904D02*
X100837333Y-44059904D01*
X101294476Y-44859904D02*
X100951619Y-44402761D01*
X101294476Y-44059904D02*
X100837333Y-44517047D01*
X126751714Y-44059904D02*
X126370761Y-44059904D01*
X126332666Y-44440857D01*
X126370761Y-44402761D01*
X126446952Y-44364666D01*
X126637428Y-44364666D01*
X126713619Y-44402761D01*
X126751714Y-44440857D01*
X126789809Y-44517047D01*
X126789809Y-44707523D01*
X126751714Y-44783714D01*
X126713619Y-44821809D01*
X126637428Y-44859904D01*
X126446952Y-44859904D01*
X126370761Y-44821809D01*
X126332666Y-44783714D01*
X127056476Y-44326571D02*
X127246952Y-44859904D01*
X127437428Y-44326571D01*
X98005333Y-44859904D02*
X98005333Y-44059904D01*
X98272000Y-44631333D01*
X98538666Y-44059904D01*
X98538666Y-44859904D01*
X99338666Y-44098000D02*
X99262476Y-44059904D01*
X99148190Y-44059904D01*
X99033904Y-44098000D01*
X98957714Y-44174190D01*
X98919619Y-44250380D01*
X98881523Y-44402761D01*
X98881523Y-44517047D01*
X98919619Y-44669428D01*
X98957714Y-44745619D01*
X99033904Y-44821809D01*
X99148190Y-44859904D01*
X99224380Y-44859904D01*
X99338666Y-44821809D01*
X99376761Y-44783714D01*
X99376761Y-44517047D01*
X99224380Y-44517047D01*
X88651714Y-44059904D02*
X88270761Y-44059904D01*
X88232666Y-44440857D01*
X88270761Y-44402761D01*
X88346952Y-44364666D01*
X88537428Y-44364666D01*
X88613619Y-44402761D01*
X88651714Y-44440857D01*
X88689809Y-44517047D01*
X88689809Y-44707523D01*
X88651714Y-44783714D01*
X88613619Y-44821809D01*
X88537428Y-44859904D01*
X88346952Y-44859904D01*
X88270761Y-44821809D01*
X88232666Y-44783714D01*
X88956476Y-44326571D02*
X89146952Y-44859904D01*
X89337428Y-44326571D01*
X94455619Y-44783714D02*
X94417523Y-44821809D01*
X94303238Y-44859904D01*
X94227047Y-44859904D01*
X94112761Y-44821809D01*
X94036571Y-44745619D01*
X93998476Y-44669428D01*
X93960380Y-44517047D01*
X93960380Y-44402761D01*
X93998476Y-44250380D01*
X94036571Y-44174190D01*
X94112761Y-44098000D01*
X94227047Y-44059904D01*
X94303238Y-44059904D01*
X94417523Y-44098000D01*
X94455619Y-44136095D01*
X94798476Y-44859904D02*
X94798476Y-44059904D01*
X94988952Y-44059904D01*
X95103238Y-44098000D01*
X95179428Y-44174190D01*
X95217523Y-44250380D01*
X95255619Y-44402761D01*
X95255619Y-44517047D01*
X95217523Y-44669428D01*
X95179428Y-44745619D01*
X95103238Y-44821809D01*
X94988952Y-44859904D01*
X94798476Y-44859904D01*
X92658571Y-44859904D02*
X92391904Y-44478952D01*
X92201428Y-44859904D02*
X92201428Y-44059904D01*
X92506190Y-44059904D01*
X92582380Y-44098000D01*
X92620476Y-44136095D01*
X92658571Y-44212285D01*
X92658571Y-44326571D01*
X92620476Y-44402761D01*
X92582380Y-44440857D01*
X92506190Y-44478952D01*
X92201428Y-44478952D01*
X93534761Y-44936095D02*
X93458571Y-44898000D01*
X93382380Y-44821809D01*
X93268095Y-44707523D01*
X93191904Y-44669428D01*
X93115714Y-44669428D01*
X93153809Y-44859904D02*
X93077619Y-44821809D01*
X93001428Y-44745619D01*
X92963333Y-44593238D01*
X92963333Y-44326571D01*
X93001428Y-44174190D01*
X93077619Y-44098000D01*
X93153809Y-44059904D01*
X93306190Y-44059904D01*
X93382380Y-44098000D01*
X93458571Y-44174190D01*
X93496666Y-44326571D01*
X93496666Y-44593238D01*
X93458571Y-44745619D01*
X93382380Y-44821809D01*
X93306190Y-44859904D01*
X93153809Y-44859904D01*
X96087619Y-44821809D02*
X96201904Y-44859904D01*
X96392380Y-44859904D01*
X96468571Y-44821809D01*
X96506666Y-44783714D01*
X96544761Y-44707523D01*
X96544761Y-44631333D01*
X96506666Y-44555142D01*
X96468571Y-44517047D01*
X96392380Y-44478952D01*
X96240000Y-44440857D01*
X96163809Y-44402761D01*
X96125714Y-44364666D01*
X96087619Y-44288476D01*
X96087619Y-44212285D01*
X96125714Y-44136095D01*
X96163809Y-44098000D01*
X96240000Y-44059904D01*
X96430476Y-44059904D01*
X96544761Y-44098000D01*
X97268571Y-44859904D02*
X96887619Y-44859904D01*
X96887619Y-44059904D01*
X111333666Y4008120D02*
X111333666Y3293834D01*
X111286047Y3150977D01*
X111190809Y3055739D01*
X111047952Y3008120D01*
X110952714Y3008120D01*
X112333666Y3008120D02*
X111762238Y3008120D01*
X112047952Y3008120D02*
X112047952Y4008120D01*
X111952714Y3865262D01*
X111857476Y3770024D01*
X111762238Y3722405D01*
X141416904Y-3262571D02*
X141750238Y-3262571D01*
X141893095Y-3786380D02*
X141416904Y-3786380D01*
X141416904Y-2786380D01*
X141893095Y-2786380D01*
X142321666Y-3786380D02*
X142321666Y-2786380D01*
X142893095Y-3786380D01*
X142893095Y-2786380D01*
X143702619Y-3262571D02*
X143845476Y-3310190D01*
X143893095Y-3357809D01*
X143940714Y-3453047D01*
X143940714Y-3595904D01*
X143893095Y-3691142D01*
X143845476Y-3738761D01*
X143750238Y-3786380D01*
X143369285Y-3786380D01*
X143369285Y-2786380D01*
X143702619Y-2786380D01*
X143797857Y-2834000D01*
X143845476Y-2881619D01*
X143893095Y-2976857D01*
X143893095Y-3072095D01*
X143845476Y-3167333D01*
X143797857Y-3214952D01*
X143702619Y-3262571D01*
X143369285Y-3262571D01*
X141535952Y436334D02*
X142012142Y436334D01*
X141440714Y150620D02*
X141774047Y1150620D01*
X142107380Y150620D01*
X143012142Y245858D02*
X142964523Y198239D01*
X142821666Y150620D01*
X142726428Y150620D01*
X142583571Y198239D01*
X142488333Y293477D01*
X142440714Y388715D01*
X142393095Y579191D01*
X142393095Y722048D01*
X142440714Y912524D01*
X142488333Y1007762D01*
X142583571Y1103000D01*
X142726428Y1150620D01*
X142821666Y1150620D01*
X142964523Y1103000D01*
X143012142Y1055381D01*
X143297857Y1150620D02*
X143869285Y1150620D01*
X143583571Y150620D02*
X143583571Y1150620D01*
X138597404Y-11436214D02*
X139245023Y-11436214D01*
X139321214Y-11398119D01*
X139359309Y-11360023D01*
X139397404Y-11283833D01*
X139397404Y-11131452D01*
X139359309Y-11055261D01*
X139321214Y-11017166D01*
X139245023Y-10979071D01*
X138597404Y-10979071D01*
X139359309Y-10636214D02*
X139397404Y-10521928D01*
X139397404Y-10331452D01*
X139359309Y-10255261D01*
X139321214Y-10217166D01*
X139245023Y-10179071D01*
X139168833Y-10179071D01*
X139092642Y-10217166D01*
X139054547Y-10255261D01*
X139016452Y-10331452D01*
X138978357Y-10483833D01*
X138940261Y-10560023D01*
X138902166Y-10598119D01*
X138825976Y-10636214D01*
X138749785Y-10636214D01*
X138673595Y-10598119D01*
X138635500Y-10560023D01*
X138597404Y-10483833D01*
X138597404Y-10293357D01*
X138635500Y-10179071D01*
X138978357Y-9569547D02*
X139016452Y-9455261D01*
X139054547Y-9417166D01*
X139130738Y-9379071D01*
X139245023Y-9379071D01*
X139321214Y-9417166D01*
X139359309Y-9455261D01*
X139397404Y-9531452D01*
X139397404Y-9836214D01*
X138597404Y-9836214D01*
X138597404Y-9569547D01*
X138635500Y-9493357D01*
X138673595Y-9455261D01*
X138749785Y-9417166D01*
X138825976Y-9417166D01*
X138902166Y-9455261D01*
X138940261Y-9493357D01*
X138978357Y-9569547D01*
X138978357Y-9836214D01*
X139397404Y-8426690D02*
X138597404Y-8426690D01*
X138597404Y-8121928D01*
X138635500Y-8045738D01*
X138673595Y-8007642D01*
X138749785Y-7969547D01*
X138864071Y-7969547D01*
X138940261Y-8007642D01*
X138978357Y-8045738D01*
X139016452Y-8121928D01*
X139016452Y-8426690D01*
X139397404Y-7512404D02*
X139359309Y-7588595D01*
X139321214Y-7626690D01*
X139245023Y-7664785D01*
X139016452Y-7664785D01*
X138940261Y-7626690D01*
X138902166Y-7588595D01*
X138864071Y-7512404D01*
X138864071Y-7398119D01*
X138902166Y-7321928D01*
X138940261Y-7283833D01*
X139016452Y-7245738D01*
X139245023Y-7245738D01*
X139321214Y-7283833D01*
X139359309Y-7321928D01*
X139397404Y-7398119D01*
X139397404Y-7512404D01*
X138864071Y-6979071D02*
X139397404Y-6826690D01*
X139016452Y-6674309D01*
X139397404Y-6521928D01*
X138864071Y-6369547D01*
X139359309Y-5760023D02*
X139397404Y-5836214D01*
X139397404Y-5988595D01*
X139359309Y-6064785D01*
X139283119Y-6102880D01*
X138978357Y-6102880D01*
X138902166Y-6064785D01*
X138864071Y-5988595D01*
X138864071Y-5836214D01*
X138902166Y-5760023D01*
X138978357Y-5721928D01*
X139054547Y-5721928D01*
X139130738Y-6102880D01*
X139397404Y-5379071D02*
X138864071Y-5379071D01*
X139016452Y-5379071D02*
X138940261Y-5340976D01*
X138902166Y-5302880D01*
X138864071Y-5226690D01*
X138864071Y-5150500D01*
D12*
X137324953Y-2381500D02*
G75*
G03*
X137324953Y-2381500I-511953J0D01*
G01*
X124370953Y-2318000D02*
G75*
G03*
X124370953Y-2318000I-511953J0D01*
G01*
D11*
X143812380Y-20844285D02*
X143812380Y-20225238D01*
X144193333Y-20558571D01*
X144193333Y-20415714D01*
X144240952Y-20320476D01*
X144288571Y-20272857D01*
X144383809Y-20225238D01*
X144621904Y-20225238D01*
X144717142Y-20272857D01*
X144764761Y-20320476D01*
X144812380Y-20415714D01*
X144812380Y-20701428D01*
X144764761Y-20796666D01*
X144717142Y-20844285D01*
X144145714Y-19891904D02*
X144812380Y-19653809D01*
X144145714Y-19415714D01*
X143782380Y-22212857D02*
X143782380Y-22689047D01*
X144258571Y-22736666D01*
X144210952Y-22689047D01*
X144163333Y-22593809D01*
X144163333Y-22355714D01*
X144210952Y-22260476D01*
X144258571Y-22212857D01*
X144353809Y-22165238D01*
X144591904Y-22165238D01*
X144687142Y-22212857D01*
X144734761Y-22260476D01*
X144782380Y-22355714D01*
X144782380Y-22593809D01*
X144734761Y-22689047D01*
X144687142Y-22736666D01*
X144115714Y-21831904D02*
X144782380Y-21593809D01*
X144115714Y-21355714D01*
X106543333Y-25352380D02*
X106543333Y-24352380D01*
X106971904Y-25352380D02*
X106971904Y-24828571D01*
X106924285Y-24733333D01*
X106829047Y-24685714D01*
X106686190Y-24685714D01*
X106590952Y-24733333D01*
X106543333Y-24780952D01*
X107305238Y-24685714D02*
X107686190Y-24685714D01*
X107448095Y-24352380D02*
X107448095Y-25209523D01*
X107495714Y-25304761D01*
X107590952Y-25352380D01*
X107686190Y-25352380D01*
X107876666Y-24685714D02*
X108257619Y-24685714D01*
X108019523Y-24352380D02*
X108019523Y-25209523D01*
X108067142Y-25304761D01*
X108162380Y-25352380D01*
X108257619Y-25352380D01*
X108590952Y-24685714D02*
X108590952Y-25685714D01*
X108590952Y-24733333D02*
X108686190Y-24685714D01*
X108876666Y-24685714D01*
X108971904Y-24733333D01*
X109019523Y-24780952D01*
X109067142Y-24876190D01*
X109067142Y-25161904D01*
X109019523Y-25257142D01*
X108971904Y-25304761D01*
X108876666Y-25352380D01*
X108686190Y-25352380D01*
X108590952Y-25304761D01*
X109448095Y-25304761D02*
X109543333Y-25352380D01*
X109733809Y-25352380D01*
X109829047Y-25304761D01*
X109876666Y-25209523D01*
X109876666Y-25161904D01*
X109829047Y-25066666D01*
X109733809Y-25019047D01*
X109590952Y-25019047D01*
X109495714Y-24971428D01*
X109448095Y-24876190D01*
X109448095Y-24828571D01*
X109495714Y-24733333D01*
X109590952Y-24685714D01*
X109733809Y-24685714D01*
X109829047Y-24733333D01*
X110305238Y-25257142D02*
X110352857Y-25304761D01*
X110305238Y-25352380D01*
X110257619Y-25304761D01*
X110305238Y-25257142D01*
X110305238Y-25352380D01*
X110305238Y-24733333D02*
X110352857Y-24780952D01*
X110305238Y-24828571D01*
X110257619Y-24780952D01*
X110305238Y-24733333D01*
X110305238Y-24828571D01*
X111495714Y-24304761D02*
X110638571Y-25590476D01*
X112543333Y-24304761D02*
X111686190Y-25590476D01*
X113305238Y-24685714D02*
X113305238Y-25495238D01*
X113257619Y-25590476D01*
X113210000Y-25638095D01*
X113114761Y-25685714D01*
X112971904Y-25685714D01*
X112876666Y-25638095D01*
X113305238Y-25304761D02*
X113210000Y-25352380D01*
X113019523Y-25352380D01*
X112924285Y-25304761D01*
X112876666Y-25257142D01*
X112829047Y-25161904D01*
X112829047Y-24876190D01*
X112876666Y-24780952D01*
X112924285Y-24733333D01*
X113019523Y-24685714D01*
X113210000Y-24685714D01*
X113305238Y-24733333D01*
X113781428Y-25352380D02*
X113781428Y-24685714D01*
X113781428Y-24352380D02*
X113733809Y-24400000D01*
X113781428Y-24447619D01*
X113829047Y-24400000D01*
X113781428Y-24352380D01*
X113781428Y-24447619D01*
X114114761Y-24685714D02*
X114495714Y-24685714D01*
X114257619Y-24352380D02*
X114257619Y-25209523D01*
X114305238Y-25304761D01*
X114400476Y-25352380D01*
X114495714Y-25352380D01*
X114829047Y-25352380D02*
X114829047Y-24352380D01*
X115257619Y-25352380D02*
X115257619Y-24828571D01*
X115210000Y-24733333D01*
X115114761Y-24685714D01*
X114971904Y-24685714D01*
X114876666Y-24733333D01*
X114829047Y-24780952D01*
X116162380Y-24685714D02*
X116162380Y-25352380D01*
X115733809Y-24685714D02*
X115733809Y-25209523D01*
X115781428Y-25304761D01*
X115876666Y-25352380D01*
X116019523Y-25352380D01*
X116114761Y-25304761D01*
X116162380Y-25257142D01*
X116638571Y-25352380D02*
X116638571Y-24352380D01*
X116638571Y-24733333D02*
X116733809Y-24685714D01*
X116924285Y-24685714D01*
X117019523Y-24733333D01*
X117067142Y-24780952D01*
X117114761Y-24876190D01*
X117114761Y-25161904D01*
X117067142Y-25257142D01*
X117019523Y-25304761D01*
X116924285Y-25352380D01*
X116733809Y-25352380D01*
X116638571Y-25304761D01*
X117543333Y-25257142D02*
X117590952Y-25304761D01*
X117543333Y-25352380D01*
X117495714Y-25304761D01*
X117543333Y-25257142D01*
X117543333Y-25352380D01*
X118448095Y-25304761D02*
X118352857Y-25352380D01*
X118162380Y-25352380D01*
X118067142Y-25304761D01*
X118019523Y-25257142D01*
X117971904Y-25161904D01*
X117971904Y-24876190D01*
X118019523Y-24780952D01*
X118067142Y-24733333D01*
X118162380Y-24685714D01*
X118352857Y-24685714D01*
X118448095Y-24733333D01*
X119019523Y-25352380D02*
X118924285Y-25304761D01*
X118876666Y-25257142D01*
X118829047Y-25161904D01*
X118829047Y-24876190D01*
X118876666Y-24780952D01*
X118924285Y-24733333D01*
X119019523Y-24685714D01*
X119162380Y-24685714D01*
X119257619Y-24733333D01*
X119305238Y-24780952D01*
X119352857Y-24876190D01*
X119352857Y-25161904D01*
X119305238Y-25257142D01*
X119257619Y-25304761D01*
X119162380Y-25352380D01*
X119019523Y-25352380D01*
X119781428Y-25352380D02*
X119781428Y-24685714D01*
X119781428Y-24780952D02*
X119829047Y-24733333D01*
X119924285Y-24685714D01*
X120067142Y-24685714D01*
X120162380Y-24733333D01*
X120210000Y-24828571D01*
X120210000Y-25352380D01*
X120210000Y-24828571D02*
X120257619Y-24733333D01*
X120352857Y-24685714D01*
X120495714Y-24685714D01*
X120590952Y-24733333D01*
X120638571Y-24828571D01*
X120638571Y-25352380D01*
X121829047Y-24304761D02*
X120971904Y-25590476D01*
X122590952Y-25352380D02*
X122590952Y-24828571D01*
X122543333Y-24733333D01*
X122448095Y-24685714D01*
X122257619Y-24685714D01*
X122162380Y-24733333D01*
X122590952Y-25304761D02*
X122495714Y-25352380D01*
X122257619Y-25352380D01*
X122162380Y-25304761D01*
X122114761Y-25209523D01*
X122114761Y-25114285D01*
X122162380Y-25019047D01*
X122257619Y-24971428D01*
X122495714Y-24971428D01*
X122590952Y-24923809D01*
X123067142Y-25352380D02*
X123067142Y-24352380D01*
X123162380Y-24971428D02*
X123448095Y-25352380D01*
X123448095Y-24685714D02*
X123067142Y-25066666D01*
X124305238Y-24685714D02*
X124305238Y-25352380D01*
X123876666Y-24685714D02*
X123876666Y-25209523D01*
X123924285Y-25304761D01*
X124019523Y-25352380D01*
X124162380Y-25352380D01*
X124257619Y-25304761D01*
X124305238Y-25257142D01*
X124781428Y-25352380D02*
X124781428Y-24352380D01*
X124876666Y-24971428D02*
X125162380Y-25352380D01*
X125162380Y-24685714D02*
X124781428Y-25066666D01*
X125971904Y-25304761D02*
X125876666Y-25352380D01*
X125686190Y-25352380D01*
X125590952Y-25304761D01*
X125543333Y-25209523D01*
X125543333Y-24828571D01*
X125590952Y-24733333D01*
X125686190Y-24685714D01*
X125876666Y-24685714D01*
X125971904Y-24733333D01*
X126019523Y-24828571D01*
X126019523Y-24923809D01*
X125543333Y-25019047D01*
X126448095Y-25352380D02*
X126448095Y-24685714D01*
X126448095Y-24876190D02*
X126495714Y-24780952D01*
X126543333Y-24733333D01*
X126638571Y-24685714D01*
X126733809Y-24685714D01*
X127781428Y-24304761D02*
X126924285Y-25590476D01*
X128686190Y-25352380D02*
X128352857Y-24876190D01*
X128114761Y-25352380D02*
X128114761Y-24352380D01*
X128495714Y-24352380D01*
X128590952Y-24400000D01*
X128638571Y-24447619D01*
X128686190Y-24542857D01*
X128686190Y-24685714D01*
X128638571Y-24780952D01*
X128590952Y-24828571D01*
X128495714Y-24876190D01*
X128114761Y-24876190D01*
X129067142Y-25066666D02*
X129543333Y-25066666D01*
X128971904Y-25352380D02*
X129305238Y-24352380D01*
X129638571Y-25352380D01*
X129924285Y-25304761D02*
X130067142Y-25352380D01*
X130305238Y-25352380D01*
X130400476Y-25304761D01*
X130448095Y-25257142D01*
X130495714Y-25161904D01*
X130495714Y-25066666D01*
X130448095Y-24971428D01*
X130400476Y-24923809D01*
X130305238Y-24876190D01*
X130114761Y-24828571D01*
X130019523Y-24780952D01*
X129971904Y-24733333D01*
X129924285Y-24638095D01*
X129924285Y-24542857D01*
X129971904Y-24447619D01*
X130019523Y-24400000D01*
X130114761Y-24352380D01*
X130352857Y-24352380D01*
X130495714Y-24400000D01*
X131495714Y-25257142D02*
X131448095Y-25304761D01*
X131305238Y-25352380D01*
X131210000Y-25352380D01*
X131067142Y-25304761D01*
X130971904Y-25209523D01*
X130924285Y-25114285D01*
X130876666Y-24923809D01*
X130876666Y-24780952D01*
X130924285Y-24590476D01*
X130971904Y-24495238D01*
X131067142Y-24400000D01*
X131210000Y-24352380D01*
X131305238Y-24352380D01*
X131448095Y-24400000D01*
X131495714Y-24447619D01*
X131876666Y-25304761D02*
X132019523Y-25352380D01*
X132257619Y-25352380D01*
X132352857Y-25304761D01*
X132400476Y-25257142D01*
X132448095Y-25161904D01*
X132448095Y-25066666D01*
X132400476Y-24971428D01*
X132352857Y-24923809D01*
X132257619Y-24876190D01*
X132067142Y-24828571D01*
X131971904Y-24780952D01*
X131924285Y-24733333D01*
X131876666Y-24638095D01*
X131876666Y-24542857D01*
X131924285Y-24447619D01*
X131971904Y-24400000D01*
X132067142Y-24352380D01*
X132305238Y-24352380D01*
X132448095Y-24400000D01*
X132876666Y-25352380D02*
X132876666Y-24352380D01*
X99719523Y-12138095D02*
X99757619Y-12100000D01*
X99833809Y-12061904D01*
X100024285Y-12061904D01*
X100100476Y-12100000D01*
X100138571Y-12138095D01*
X100176666Y-12214285D01*
X100176666Y-12290476D01*
X100138571Y-12404761D01*
X99681428Y-12861904D01*
X100176666Y-12861904D01*
X100481428Y-12138095D02*
X100519523Y-12100000D01*
X100595714Y-12061904D01*
X100786190Y-12061904D01*
X100862380Y-12100000D01*
X100900476Y-12138095D01*
X100938571Y-12214285D01*
X100938571Y-12290476D01*
X100900476Y-12404761D01*
X100443333Y-12861904D01*
X100938571Y-12861904D01*
X101433809Y-12061904D02*
X101510000Y-12061904D01*
X101586190Y-12100000D01*
X101624285Y-12138095D01*
X101662380Y-12214285D01*
X101700476Y-12366666D01*
X101700476Y-12557142D01*
X101662380Y-12709523D01*
X101624285Y-12785714D01*
X101586190Y-12823809D01*
X101510000Y-12861904D01*
X101433809Y-12861904D01*
X101357619Y-12823809D01*
X101319523Y-12785714D01*
X101281428Y-12709523D01*
X101243333Y-12557142D01*
X101243333Y-12366666D01*
X101281428Y-12214285D01*
X101319523Y-12138095D01*
X101357619Y-12100000D01*
X101433809Y-12061904D01*
D12*
X89950000Y6826000D02*
X87283000Y6826000D01*
X89950000Y4159000D02*
X89950000Y6826000D01*
X138337000Y4159000D02*
X89950000Y4159000D01*
X138337000Y9493000D02*
X138337000Y4159000D01*
X87283000Y9493000D02*
X138337000Y9493000D01*
X87283000Y6826000D02*
X87283000Y9493000D01*
X87283000Y4159000D02*
X87283000Y5556000D01*
X88680000Y4159000D02*
X87283000Y4159000D01*
X128304000Y-35973000D02*
X128304000Y-33687000D01*
X130717000Y-35973000D02*
X128304000Y-35973000D01*
X130717000Y-33687000D02*
X130717000Y-35973000D01*
X128304000Y-33687000D02*
X130717000Y-33687000D01*
X128177000Y-36100000D02*
X128177000Y-33560000D01*
X130844000Y-36100000D02*
X128177000Y-36100000D01*
X130844000Y-33560000D02*
X130844000Y-36100000D01*
X128177000Y-33560000D02*
X130844000Y-33560000D01*
X139353000Y-33306000D02*
X86267000Y-33306000D01*
X139353000Y-45752000D02*
X139353000Y-33306000D01*
X86267000Y-45752000D02*
X139353000Y-45752000D01*
X86267000Y-33306000D02*
X86267000Y-45752000D01*
D11*
X133923809Y3162096D02*
X133466666Y3162096D01*
X133695238Y3162096D02*
X133695238Y3962096D01*
X133619047Y3847810D01*
X133542857Y3771620D01*
X133466666Y3733524D01*
X134419047Y3962096D02*
X134495238Y3962096D01*
X134571428Y3924000D01*
X134609523Y3885905D01*
X134647619Y3809715D01*
X134685714Y3657334D01*
X134685714Y3466858D01*
X134647619Y3314477D01*
X134609523Y3238286D01*
X134571428Y3200191D01*
X134495238Y3162096D01*
X134419047Y3162096D01*
X134342857Y3200191D01*
X134304761Y3238286D01*
X134266666Y3314477D01*
X134228571Y3466858D01*
X134228571Y3657334D01*
X134266666Y3809715D01*
X134304761Y3885905D01*
X134342857Y3924000D01*
X134419047Y3962096D01*
X135028571Y3162096D02*
X135028571Y3962096D01*
X135104761Y3466858D02*
X135333333Y3162096D01*
X135333333Y3695429D02*
X135028571Y3390667D01*
X121020609Y3162096D02*
X120563466Y3162096D01*
X120792038Y3162096D02*
X120792038Y3962096D01*
X120715847Y3847810D01*
X120639657Y3771620D01*
X120563466Y3733524D01*
X121515847Y3962096D02*
X121592038Y3962096D01*
X121668228Y3924000D01*
X121706323Y3885905D01*
X121744419Y3809715D01*
X121782514Y3657334D01*
X121782514Y3466858D01*
X121744419Y3314477D01*
X121706323Y3238286D01*
X121668228Y3200191D01*
X121592038Y3162096D01*
X121515847Y3162096D01*
X121439657Y3200191D01*
X121401561Y3238286D01*
X121363466Y3314477D01*
X121325371Y3466858D01*
X121325371Y3657334D01*
X121363466Y3809715D01*
X121401561Y3885905D01*
X121439657Y3924000D01*
X121515847Y3962096D01*
X122125371Y3162096D02*
X122125371Y3962096D01*
X122201561Y3466858D02*
X122430133Y3162096D01*
X122430133Y3695429D02*
X122125371Y3390667D01*
X81447390Y431429D02*
X81409295Y317143D01*
X81409295Y126667D01*
X81447390Y50477D01*
X81485485Y12381D01*
X81561676Y-25714D01*
X81637866Y-25714D01*
X81714057Y12381D01*
X81752152Y50477D01*
X81790247Y126667D01*
X81828342Y279048D01*
X81866438Y355239D01*
X81904533Y393334D01*
X81980723Y431429D01*
X82056914Y431429D01*
X82133104Y393334D01*
X82171200Y355239D01*
X82209295Y279048D01*
X82209295Y88572D01*
X82171200Y-25714D01*
X81409295Y-368571D02*
X82209295Y-368571D01*
X82209295Y-559047D01*
X82171200Y-673333D01*
X82095009Y-749523D01*
X82018819Y-787619D01*
X81866438Y-825714D01*
X81752152Y-825714D01*
X81599771Y-787619D01*
X81523580Y-749523D01*
X81447390Y-673333D01*
X81409295Y-559047D01*
X81409295Y-368571D01*
X81637866Y-1130476D02*
X81637866Y-1511428D01*
X81409295Y-1054285D02*
X82209295Y-1320952D01*
X81409295Y-1587619D01*
X81498190Y-2280019D02*
X81460095Y-2394304D01*
X81460095Y-2584780D01*
X81498190Y-2660971D01*
X81536285Y-2699066D01*
X81612476Y-2737161D01*
X81688666Y-2737161D01*
X81764857Y-2699066D01*
X81802952Y-2660971D01*
X81841047Y-2584780D01*
X81879142Y-2432400D01*
X81917238Y-2356209D01*
X81955333Y-2318114D01*
X82031523Y-2280019D01*
X82107714Y-2280019D01*
X82183904Y-2318114D01*
X82222000Y-2356209D01*
X82260095Y-2432400D01*
X82260095Y-2622876D01*
X82222000Y-2737161D01*
X81536285Y-3537161D02*
X81498190Y-3499066D01*
X81460095Y-3384780D01*
X81460095Y-3308590D01*
X81498190Y-3194304D01*
X81574380Y-3118114D01*
X81650571Y-3080019D01*
X81802952Y-3041923D01*
X81917238Y-3041923D01*
X82069619Y-3080019D01*
X82145809Y-3118114D01*
X82222000Y-3194304D01*
X82260095Y-3308590D01*
X82260095Y-3384780D01*
X82222000Y-3499066D01*
X82183904Y-3537161D01*
X81460095Y-4260971D02*
X81460095Y-3880019D01*
X82260095Y-3880019D01*
X82260095Y-5391504D02*
X82260095Y-5886742D01*
X81955333Y-5620076D01*
X81955333Y-5734361D01*
X81917238Y-5810552D01*
X81879142Y-5848647D01*
X81802952Y-5886742D01*
X81612476Y-5886742D01*
X81536285Y-5848647D01*
X81498190Y-5810552D01*
X81460095Y-5734361D01*
X81460095Y-5505790D01*
X81498190Y-5429600D01*
X81536285Y-5391504D01*
X81536285Y-6229600D02*
X81498190Y-6267695D01*
X81460095Y-6229600D01*
X81498190Y-6191504D01*
X81536285Y-6229600D01*
X81460095Y-6229600D01*
X82260095Y-6534361D02*
X82260095Y-7029600D01*
X81955333Y-6762933D01*
X81955333Y-6877219D01*
X81917238Y-6953409D01*
X81879142Y-6991504D01*
X81802952Y-7029600D01*
X81612476Y-7029600D01*
X81536285Y-6991504D01*
X81498190Y-6953409D01*
X81460095Y-6877219D01*
X81460095Y-6648647D01*
X81498190Y-6572457D01*
X81536285Y-6534361D01*
X82120400Y-8261676D02*
X82158495Y-8185485D01*
X82158495Y-8071200D01*
X82120400Y-7956914D01*
X82044209Y-7880723D01*
X81968019Y-7842628D01*
X81815638Y-7804533D01*
X81701352Y-7804533D01*
X81548971Y-7842628D01*
X81472780Y-7880723D01*
X81396590Y-7956914D01*
X81358495Y-8071200D01*
X81358495Y-8147390D01*
X81396590Y-8261676D01*
X81434685Y-8299771D01*
X81701352Y-8299771D01*
X81701352Y-8147390D01*
X81358495Y-8642628D02*
X82158495Y-8642628D01*
X81358495Y-9099771D01*
X82158495Y-9099771D01*
X81358495Y-9480723D02*
X82158495Y-9480723D01*
X82158495Y-9671200D01*
X82120400Y-9785485D01*
X82044209Y-9861676D01*
X81968019Y-9899771D01*
X81815638Y-9937866D01*
X81701352Y-9937866D01*
X81548971Y-9899771D01*
X81472780Y-9861676D01*
X81396590Y-9785485D01*
X81358495Y-9671200D01*
X81358495Y-9480723D01*
X82209295Y-11042914D02*
X82209295Y-10661961D01*
X81828342Y-10623866D01*
X81866438Y-10661961D01*
X81904533Y-10738152D01*
X81904533Y-10928628D01*
X81866438Y-11004819D01*
X81828342Y-11042914D01*
X81752152Y-11081009D01*
X81561676Y-11081009D01*
X81485485Y-11042914D01*
X81447390Y-11004819D01*
X81409295Y-10928628D01*
X81409295Y-10738152D01*
X81447390Y-10661961D01*
X81485485Y-10623866D01*
X81942628Y-11347676D02*
X81409295Y-11538152D01*
X81942628Y-11728628D01*
X99681428Y-14361904D02*
X100176666Y-14361904D01*
X99910000Y-14666666D01*
X100024285Y-14666666D01*
X100100476Y-14704761D01*
X100138571Y-14742857D01*
X100176666Y-14819047D01*
X100176666Y-15009523D01*
X100138571Y-15085714D01*
X100100476Y-15123809D01*
X100024285Y-15161904D01*
X99795714Y-15161904D01*
X99719523Y-15123809D01*
X99681428Y-15085714D01*
X100443333Y-14361904D02*
X100938571Y-14361904D01*
X100671904Y-14666666D01*
X100786190Y-14666666D01*
X100862380Y-14704761D01*
X100900476Y-14742857D01*
X100938571Y-14819047D01*
X100938571Y-15009523D01*
X100900476Y-15085714D01*
X100862380Y-15123809D01*
X100786190Y-15161904D01*
X100557619Y-15161904D01*
X100481428Y-15123809D01*
X100443333Y-15085714D01*
X101433809Y-14361904D02*
X101510000Y-14361904D01*
X101586190Y-14400000D01*
X101624285Y-14438095D01*
X101662380Y-14514285D01*
X101700476Y-14666666D01*
X101700476Y-14857142D01*
X101662380Y-15009523D01*
X101624285Y-15085714D01*
X101586190Y-15123809D01*
X101510000Y-15161904D01*
X101433809Y-15161904D01*
X101357619Y-15123809D01*
X101319523Y-15085714D01*
X101281428Y-15009523D01*
X101243333Y-14857142D01*
X101243333Y-14666666D01*
X101281428Y-14514285D01*
X101319523Y-14438095D01*
X101357619Y-14400000D01*
X101433809Y-14361904D01*
X135997428Y-14478304D02*
X136492666Y-14478304D01*
X136226000Y-14783066D01*
X136340285Y-14783066D01*
X136416476Y-14821161D01*
X136454571Y-14859257D01*
X136492666Y-14935447D01*
X136492666Y-15125923D01*
X136454571Y-15202114D01*
X136416476Y-15240209D01*
X136340285Y-15278304D01*
X136111714Y-15278304D01*
X136035523Y-15240209D01*
X135997428Y-15202114D01*
X136759333Y-14478304D02*
X137254571Y-14478304D01*
X136987904Y-14783066D01*
X137102190Y-14783066D01*
X137178380Y-14821161D01*
X137216476Y-14859257D01*
X137254571Y-14935447D01*
X137254571Y-15125923D01*
X137216476Y-15202114D01*
X137178380Y-15240209D01*
X137102190Y-15278304D01*
X136873619Y-15278304D01*
X136797428Y-15240209D01*
X136759333Y-15202114D01*
X137749809Y-14478304D02*
X137826000Y-14478304D01*
X137902190Y-14516400D01*
X137940285Y-14554495D01*
X137978380Y-14630685D01*
X138016476Y-14783066D01*
X138016476Y-14973542D01*
X137978380Y-15125923D01*
X137940285Y-15202114D01*
X137902190Y-15240209D01*
X137826000Y-15278304D01*
X137749809Y-15278304D01*
X137673619Y-15240209D01*
X137635523Y-15202114D01*
X137597428Y-15125923D01*
X137559333Y-14973542D01*
X137559333Y-14783066D01*
X137597428Y-14630685D01*
X137635523Y-14554495D01*
X137673619Y-14516400D01*
X137749809Y-14478304D01*
X136035523Y-12268495D02*
X136073619Y-12230400D01*
X136149809Y-12192304D01*
X136340285Y-12192304D01*
X136416476Y-12230400D01*
X136454571Y-12268495D01*
X136492666Y-12344685D01*
X136492666Y-12420876D01*
X136454571Y-12535161D01*
X135997428Y-12992304D01*
X136492666Y-12992304D01*
X136797428Y-12268495D02*
X136835523Y-12230400D01*
X136911714Y-12192304D01*
X137102190Y-12192304D01*
X137178380Y-12230400D01*
X137216476Y-12268495D01*
X137254571Y-12344685D01*
X137254571Y-12420876D01*
X137216476Y-12535161D01*
X136759333Y-12992304D01*
X137254571Y-12992304D01*
X137749809Y-12192304D02*
X137826000Y-12192304D01*
X137902190Y-12230400D01*
X137940285Y-12268495D01*
X137978380Y-12344685D01*
X138016476Y-12497066D01*
X138016476Y-12687542D01*
X137978380Y-12839923D01*
X137940285Y-12916114D01*
X137902190Y-12954209D01*
X137826000Y-12992304D01*
X137749809Y-12992304D01*
X137673619Y-12954209D01*
X137635523Y-12916114D01*
X137597428Y-12839923D01*
X137559333Y-12687542D01*
X137559333Y-12497066D01*
X137597428Y-12344685D01*
X137635523Y-12268495D01*
X137673619Y-12230400D01*
X137749809Y-12192304D01*
X93385409Y3162096D02*
X92928266Y3162096D01*
X93156838Y3162096D02*
X93156838Y3962096D01*
X93080647Y3847810D01*
X93004457Y3771620D01*
X92928266Y3733524D01*
X93880647Y3962096D02*
X93956838Y3962096D01*
X94033028Y3924000D01*
X94071123Y3885905D01*
X94109219Y3809715D01*
X94147314Y3657334D01*
X94147314Y3466858D01*
X94109219Y3314477D01*
X94071123Y3238286D01*
X94033028Y3200191D01*
X93956838Y3162096D01*
X93880647Y3162096D01*
X93804457Y3200191D01*
X93766361Y3238286D01*
X93728266Y3314477D01*
X93690171Y3466858D01*
X93690171Y3657334D01*
X93728266Y3809715D01*
X93766361Y3885905D01*
X93804457Y3924000D01*
X93880647Y3962096D01*
X94490171Y3162096D02*
X94490171Y3962096D01*
X94566361Y3466858D02*
X94794933Y3162096D01*
X94794933Y3695429D02*
X94490171Y3390667D01*
X111358095Y-23101571D02*
X111024761Y-23101571D01*
X111024761Y-23625380D02*
X111024761Y-22625380D01*
X111500952Y-22625380D01*
X111881904Y-22625380D02*
X111881904Y-23434904D01*
X111929523Y-23530142D01*
X111977142Y-23577761D01*
X112072380Y-23625380D01*
X112262857Y-23625380D01*
X112358095Y-23577761D01*
X112405714Y-23530142D01*
X112453333Y-23434904D01*
X112453333Y-22625380D01*
X113405714Y-23625380D02*
X112929523Y-23625380D01*
X112929523Y-22625380D01*
X114215238Y-23625380D02*
X113739047Y-23625380D01*
X113739047Y-22625380D01*
X114500952Y-23577761D02*
X114643809Y-23625380D01*
X114881904Y-23625380D01*
X114977142Y-23577761D01*
X115024761Y-23530142D01*
X115072380Y-23434904D01*
X115072380Y-23339666D01*
X115024761Y-23244428D01*
X114977142Y-23196809D01*
X114881904Y-23149190D01*
X114691428Y-23101571D01*
X114596190Y-23053952D01*
X114548571Y-23006333D01*
X114500952Y-22911095D01*
X114500952Y-22815857D01*
X114548571Y-22720619D01*
X114596190Y-22673000D01*
X114691428Y-22625380D01*
X114929523Y-22625380D01*
X115072380Y-22673000D01*
X115500952Y-23625380D02*
X115500952Y-22625380D01*
X115881904Y-22625380D01*
X115977142Y-22673000D01*
X116024761Y-22720619D01*
X116072380Y-22815857D01*
X116072380Y-22958714D01*
X116024761Y-23053952D01*
X115977142Y-23101571D01*
X115881904Y-23149190D01*
X115500952Y-23149190D01*
X116500952Y-23101571D02*
X116834285Y-23101571D01*
X116977142Y-23625380D02*
X116500952Y-23625380D01*
X116500952Y-22625380D01*
X116977142Y-22625380D01*
X117977142Y-23530142D02*
X117929523Y-23577761D01*
X117786666Y-23625380D01*
X117691428Y-23625380D01*
X117548571Y-23577761D01*
X117453333Y-23482523D01*
X117405714Y-23387285D01*
X117358095Y-23196809D01*
X117358095Y-23053952D01*
X117405714Y-22863476D01*
X117453333Y-22768238D01*
X117548571Y-22673000D01*
X117691428Y-22625380D01*
X117786666Y-22625380D01*
X117929523Y-22673000D01*
X117977142Y-22720619D01*
X119500952Y-23101571D02*
X119643809Y-23149190D01*
X119691428Y-23196809D01*
X119739047Y-23292047D01*
X119739047Y-23434904D01*
X119691428Y-23530142D01*
X119643809Y-23577761D01*
X119548571Y-23625380D01*
X119167619Y-23625380D01*
X119167619Y-22625380D01*
X119500952Y-22625380D01*
X119596190Y-22673000D01*
X119643809Y-22720619D01*
X119691428Y-22815857D01*
X119691428Y-22911095D01*
X119643809Y-23006333D01*
X119596190Y-23053952D01*
X119500952Y-23101571D01*
X119167619Y-23101571D01*
X120310476Y-23625380D02*
X120215238Y-23577761D01*
X120167619Y-23530142D01*
X120120000Y-23434904D01*
X120120000Y-23149190D01*
X120167619Y-23053952D01*
X120215238Y-23006333D01*
X120310476Y-22958714D01*
X120453333Y-22958714D01*
X120548571Y-23006333D01*
X120596190Y-23053952D01*
X120643809Y-23149190D01*
X120643809Y-23434904D01*
X120596190Y-23530142D01*
X120548571Y-23577761D01*
X120453333Y-23625380D01*
X120310476Y-23625380D01*
X121500952Y-23625380D02*
X121500952Y-23101571D01*
X121453333Y-23006333D01*
X121358095Y-22958714D01*
X121167619Y-22958714D01*
X121072380Y-23006333D01*
X121500952Y-23577761D02*
X121405714Y-23625380D01*
X121167619Y-23625380D01*
X121072380Y-23577761D01*
X121024761Y-23482523D01*
X121024761Y-23387285D01*
X121072380Y-23292047D01*
X121167619Y-23244428D01*
X121405714Y-23244428D01*
X121500952Y-23196809D01*
X121977142Y-23625380D02*
X121977142Y-22958714D01*
X121977142Y-23149190D02*
X122024761Y-23053952D01*
X122072380Y-23006333D01*
X122167619Y-22958714D01*
X122262857Y-22958714D01*
X123024761Y-23625380D02*
X123024761Y-22625380D01*
X123024761Y-23577761D02*
X122929523Y-23625380D01*
X122739047Y-23625380D01*
X122643809Y-23577761D01*
X122596190Y-23530142D01*
X122548571Y-23434904D01*
X122548571Y-23149190D01*
X122596190Y-23053952D01*
X122643809Y-23006333D01*
X122739047Y-22958714D01*
X122929523Y-22958714D01*
X123024761Y-23006333D01*
X124120000Y-22625380D02*
X124453333Y-23625380D01*
X124786666Y-22625380D01*
X125500952Y-23577761D02*
X125405714Y-23625380D01*
X125215238Y-23625380D01*
X125120000Y-23577761D01*
X125072380Y-23482523D01*
X125072380Y-23101571D01*
X125120000Y-23006333D01*
X125215238Y-22958714D01*
X125405714Y-22958714D01*
X125500952Y-23006333D01*
X125548571Y-23101571D01*
X125548571Y-23196809D01*
X125072380Y-23292047D01*
X125977142Y-23625380D02*
X125977142Y-22958714D01*
X125977142Y-23149190D02*
X126024761Y-23053952D01*
X126072380Y-23006333D01*
X126167619Y-22958714D01*
X126262857Y-22958714D01*
X126548571Y-23577761D02*
X126643809Y-23625380D01*
X126834285Y-23625380D01*
X126929523Y-23577761D01*
X126977142Y-23482523D01*
X126977142Y-23434904D01*
X126929523Y-23339666D01*
X126834285Y-23292047D01*
X126691428Y-23292047D01*
X126596190Y-23244428D01*
X126548571Y-23149190D01*
X126548571Y-23101571D01*
X126596190Y-23006333D01*
X126691428Y-22958714D01*
X126834285Y-22958714D01*
X126929523Y-23006333D01*
X127405714Y-23625380D02*
X127405714Y-22958714D01*
X127405714Y-22625380D02*
X127358095Y-22673000D01*
X127405714Y-22720619D01*
X127453333Y-22673000D01*
X127405714Y-22625380D01*
X127405714Y-22720619D01*
X128024761Y-23625380D02*
X127929523Y-23577761D01*
X127881904Y-23530142D01*
X127834285Y-23434904D01*
X127834285Y-23149190D01*
X127881904Y-23053952D01*
X127929523Y-23006333D01*
X128024761Y-22958714D01*
X128167619Y-22958714D01*
X128262857Y-23006333D01*
X128310476Y-23053952D01*
X128358095Y-23149190D01*
X128358095Y-23434904D01*
X128310476Y-23530142D01*
X128262857Y-23577761D01*
X128167619Y-23625380D01*
X128024761Y-23625380D01*
X128786666Y-22958714D02*
X128786666Y-23625380D01*
X128786666Y-23053952D02*
X128834285Y-23006333D01*
X128929523Y-22958714D01*
X129072380Y-22958714D01*
X129167619Y-23006333D01*
X129215238Y-23101571D01*
X129215238Y-23625380D01*
D12*
X110952500Y-21979000D02*
X110952500Y-16899000D01*
X127907000Y-21979000D02*
X110952500Y-21979000D01*
X127970500Y-16899000D02*
X127970500Y-21979000D01*
X87350453Y-7652000D02*
G75*
G03*
X87350453Y-7652000I-511953J0D01*
G01*
X100367953Y-7652000D02*
G75*
G03*
X100367953Y-7652000I-511953J0D01*
G01*
D11*
X132519023Y-20503380D02*
X133090452Y-20503380D01*
X132804738Y-21503380D02*
X132804738Y-20503380D01*
X133804738Y-21455761D02*
X133709500Y-21503380D01*
X133519023Y-21503380D01*
X133423785Y-21455761D01*
X133376166Y-21360523D01*
X133376166Y-20979571D01*
X133423785Y-20884333D01*
X133519023Y-20836714D01*
X133709500Y-20836714D01*
X133804738Y-20884333D01*
X133852357Y-20979571D01*
X133852357Y-21074809D01*
X133376166Y-21170047D01*
X134280928Y-21503380D02*
X134280928Y-20836714D01*
X134280928Y-21027190D02*
X134328547Y-20931952D01*
X134376166Y-20884333D01*
X134471404Y-20836714D01*
X134566642Y-20836714D01*
X134899976Y-21503380D02*
X134899976Y-20836714D01*
X134899976Y-20931952D02*
X134947595Y-20884333D01*
X135042833Y-20836714D01*
X135185690Y-20836714D01*
X135280928Y-20884333D01*
X135328547Y-20979571D01*
X135328547Y-21503380D01*
X135328547Y-20979571D02*
X135376166Y-20884333D01*
X135471404Y-20836714D01*
X135614261Y-20836714D01*
X135709500Y-20884333D01*
X135757119Y-20979571D01*
X135757119Y-21503380D01*
X131947595Y-22629571D02*
X132280928Y-22629571D01*
X132423785Y-23153380D02*
X131947595Y-23153380D01*
X131947595Y-22153380D01*
X132423785Y-22153380D01*
X132852357Y-22486714D02*
X132852357Y-23153380D01*
X132852357Y-22581952D02*
X132899976Y-22534333D01*
X132995214Y-22486714D01*
X133138071Y-22486714D01*
X133233309Y-22534333D01*
X133280928Y-22629571D01*
X133280928Y-23153380D01*
X134185690Y-23153380D02*
X134185690Y-22629571D01*
X134138071Y-22534333D01*
X134042833Y-22486714D01*
X133852357Y-22486714D01*
X133757119Y-22534333D01*
X134185690Y-23105761D02*
X134090452Y-23153380D01*
X133852357Y-23153380D01*
X133757119Y-23105761D01*
X133709500Y-23010523D01*
X133709500Y-22915285D01*
X133757119Y-22820047D01*
X133852357Y-22772428D01*
X134090452Y-22772428D01*
X134185690Y-22724809D01*
X134661880Y-23153380D02*
X134661880Y-22153380D01*
X134661880Y-22534333D02*
X134757119Y-22486714D01*
X134947595Y-22486714D01*
X135042833Y-22534333D01*
X135090452Y-22581952D01*
X135138071Y-22677190D01*
X135138071Y-22962904D01*
X135090452Y-23058142D01*
X135042833Y-23105761D01*
X134947595Y-23153380D01*
X134757119Y-23153380D01*
X134661880Y-23105761D01*
X135709500Y-23153380D02*
X135614261Y-23105761D01*
X135566642Y-23010523D01*
X135566642Y-22153380D01*
X136471404Y-23105761D02*
X136376166Y-23153380D01*
X136185690Y-23153380D01*
X136090452Y-23105761D01*
X136042833Y-23010523D01*
X136042833Y-22629571D01*
X136090452Y-22534333D01*
X136185690Y-22486714D01*
X136376166Y-22486714D01*
X136471404Y-22534333D01*
X136519023Y-22629571D01*
X136519023Y-22724809D01*
X136042833Y-22820047D01*
D12*
X111460500Y-21598000D02*
X111460500Y-21344000D01*
X111524000Y-21598000D02*
X111460500Y-21598000D01*
X127970500Y-16899000D02*
X110952500Y-16899000D01*
X111460500Y-17280000D02*
X111460500Y-21534500D01*
X127526000Y-17280000D02*
X111460500Y-17280000D01*
X127526000Y-21598000D02*
X127526000Y-17280000D01*
X111524000Y-21598000D02*
X127526000Y-21598000D01*
D11*
X112334523Y-20161380D02*
X112144047Y-20161380D01*
X112048809Y-20209000D01*
X112001190Y-20256619D01*
X111905952Y-20399476D01*
X111858333Y-20589952D01*
X111858333Y-20970904D01*
X111905952Y-21066142D01*
X111953571Y-21113761D01*
X112048809Y-21161380D01*
X112239285Y-21161380D01*
X112334523Y-21113761D01*
X112382142Y-21066142D01*
X112429761Y-20970904D01*
X112429761Y-20732809D01*
X112382142Y-20637571D01*
X112334523Y-20589952D01*
X112239285Y-20542333D01*
X112048809Y-20542333D01*
X111953571Y-20589952D01*
X111905952Y-20637571D01*
X111858333Y-20732809D01*
X113001190Y-20589952D02*
X112905952Y-20542333D01*
X112858333Y-20494714D01*
X112810714Y-20399476D01*
X112810714Y-20351857D01*
X112858333Y-20256619D01*
X112905952Y-20209000D01*
X113001190Y-20161380D01*
X113191666Y-20161380D01*
X113286904Y-20209000D01*
X113334523Y-20256619D01*
X113382142Y-20351857D01*
X113382142Y-20399476D01*
X113334523Y-20494714D01*
X113286904Y-20542333D01*
X113191666Y-20589952D01*
X113001190Y-20589952D01*
X112905952Y-20637571D01*
X112858333Y-20685190D01*
X112810714Y-20780428D01*
X112810714Y-20970904D01*
X112858333Y-21066142D01*
X112905952Y-21113761D01*
X113001190Y-21161380D01*
X113191666Y-21161380D01*
X113286904Y-21113761D01*
X113334523Y-21066142D01*
X113382142Y-20970904D01*
X113382142Y-20780428D01*
X113334523Y-20685190D01*
X113286904Y-20637571D01*
X113191666Y-20589952D01*
X113810714Y-21161380D02*
X113810714Y-20161380D01*
X113905952Y-20780428D02*
X114191666Y-21161380D01*
X114191666Y-20494714D02*
X113810714Y-20875666D01*
X114620238Y-21161380D02*
X114620238Y-20494714D01*
X114620238Y-20589952D02*
X114667857Y-20542333D01*
X114763095Y-20494714D01*
X114905952Y-20494714D01*
X115001190Y-20542333D01*
X115048809Y-20637571D01*
X115048809Y-21161380D01*
X115048809Y-20637571D02*
X115096428Y-20542333D01*
X115191666Y-20494714D01*
X115334523Y-20494714D01*
X115429761Y-20542333D01*
X115477380Y-20637571D01*
X115477380Y-21161380D01*
X116096428Y-21161380D02*
X116001190Y-21113761D01*
X115953571Y-21018523D01*
X115953571Y-20161380D01*
X116905952Y-21161380D02*
X116905952Y-20637571D01*
X116858333Y-20542333D01*
X116763095Y-20494714D01*
X116572619Y-20494714D01*
X116477380Y-20542333D01*
X116905952Y-21113761D02*
X116810714Y-21161380D01*
X116572619Y-21161380D01*
X116477380Y-21113761D01*
X116429761Y-21018523D01*
X116429761Y-20923285D01*
X116477380Y-20828047D01*
X116572619Y-20780428D01*
X116810714Y-20780428D01*
X116905952Y-20732809D01*
X118001190Y-20161380D02*
X118334523Y-21161380D01*
X118667857Y-20161380D01*
X119382142Y-21113761D02*
X119286904Y-21161380D01*
X119096428Y-21161380D01*
X119001190Y-21113761D01*
X118953571Y-21018523D01*
X118953571Y-20637571D01*
X119001190Y-20542333D01*
X119096428Y-20494714D01*
X119286904Y-20494714D01*
X119382142Y-20542333D01*
X119429761Y-20637571D01*
X119429761Y-20732809D01*
X118953571Y-20828047D01*
X119858333Y-21161380D02*
X119858333Y-20494714D01*
X119858333Y-20685190D02*
X119905952Y-20589952D01*
X119953571Y-20542333D01*
X120048809Y-20494714D01*
X120144047Y-20494714D01*
X120429761Y-21113761D02*
X120525000Y-21161380D01*
X120715476Y-21161380D01*
X120810714Y-21113761D01*
X120858333Y-21018523D01*
X120858333Y-20970904D01*
X120810714Y-20875666D01*
X120715476Y-20828047D01*
X120572619Y-20828047D01*
X120477380Y-20780428D01*
X120429761Y-20685190D01*
X120429761Y-20637571D01*
X120477380Y-20542333D01*
X120572619Y-20494714D01*
X120715476Y-20494714D01*
X120810714Y-20542333D01*
X121286904Y-21161380D02*
X121286904Y-20494714D01*
X121286904Y-20161380D02*
X121239285Y-20209000D01*
X121286904Y-20256619D01*
X121334523Y-20209000D01*
X121286904Y-20161380D01*
X121286904Y-20256619D01*
X121905952Y-21161380D02*
X121810714Y-21113761D01*
X121763095Y-21066142D01*
X121715476Y-20970904D01*
X121715476Y-20685190D01*
X121763095Y-20589952D01*
X121810714Y-20542333D01*
X121905952Y-20494714D01*
X122048809Y-20494714D01*
X122144047Y-20542333D01*
X122191666Y-20589952D01*
X122239285Y-20685190D01*
X122239285Y-20970904D01*
X122191666Y-21066142D01*
X122144047Y-21113761D01*
X122048809Y-21161380D01*
X121905952Y-21161380D01*
X122667857Y-20494714D02*
X122667857Y-21161380D01*
X122667857Y-20589952D02*
X122715476Y-20542333D01*
X122810714Y-20494714D01*
X122953571Y-20494714D01*
X123048809Y-20542333D01*
X123096428Y-20637571D01*
X123096428Y-21161380D01*
X124286904Y-20256619D02*
X124334523Y-20209000D01*
X124429761Y-20161380D01*
X124667857Y-20161380D01*
X124763095Y-20209000D01*
X124810714Y-20256619D01*
X124858333Y-20351857D01*
X124858333Y-20447095D01*
X124810714Y-20589952D01*
X124239285Y-21161380D01*
X124858333Y-21161380D01*
X125286904Y-21066142D02*
X125334523Y-21113761D01*
X125286904Y-21161380D01*
X125239285Y-21113761D01*
X125286904Y-21066142D01*
X125286904Y-21161380D01*
X126191666Y-20494714D02*
X126191666Y-21161380D01*
X125953571Y-20113761D02*
X125715476Y-20828047D01*
X126334523Y-20828047D01*
X127144047Y-21161380D02*
X127144047Y-20637571D01*
X127096428Y-20542333D01*
X127001190Y-20494714D01*
X126810714Y-20494714D01*
X126715476Y-20542333D01*
X127144047Y-21113761D02*
X127048809Y-21161380D01*
X126810714Y-21161380D01*
X126715476Y-21113761D01*
X126667857Y-21018523D01*
X126667857Y-20923285D01*
X126715476Y-20828047D01*
X126810714Y-20780428D01*
X127048809Y-20780428D01*
X127144047Y-20732809D01*
D13*
X115840738Y-19708761D02*
X115293119Y-18756380D01*
X114697880Y-19708761D02*
X114947880Y-17708761D01*
X115709785Y-17708761D01*
X115888357Y-17804000D01*
X115971690Y-17899238D01*
X116043119Y-18089714D01*
X116007404Y-18375428D01*
X115888357Y-18565904D01*
X115781214Y-18661142D01*
X115578833Y-18756380D01*
X114816928Y-18756380D01*
X117555023Y-19708761D02*
X117685976Y-18661142D01*
X117614547Y-18470666D01*
X117435976Y-18375428D01*
X117055023Y-18375428D01*
X116852642Y-18470666D01*
X117566928Y-19613523D02*
X117364547Y-19708761D01*
X116888357Y-19708761D01*
X116709785Y-19613523D01*
X116638357Y-19423047D01*
X116662166Y-19232571D01*
X116781214Y-19042095D01*
X116983595Y-18946857D01*
X117459785Y-18946857D01*
X117662166Y-18851619D01*
X118424071Y-19613523D02*
X118697880Y-19708761D01*
X119174071Y-19708761D01*
X119376452Y-19613523D01*
X119483595Y-19518285D01*
X119602642Y-19327809D01*
X119626452Y-19137333D01*
X119555023Y-18946857D01*
X119471690Y-18851619D01*
X119293119Y-18756380D01*
X118924071Y-18661142D01*
X118745500Y-18565904D01*
X118662166Y-18470666D01*
X118590738Y-18280190D01*
X118614547Y-18089714D01*
X118733595Y-17899238D01*
X118840738Y-17804000D01*
X119043119Y-17708761D01*
X119519309Y-17708761D01*
X119793119Y-17804000D01*
X121578833Y-19518285D02*
X121471690Y-19613523D01*
X121174071Y-19708761D01*
X120983595Y-19708761D01*
X120709785Y-19613523D01*
X120543119Y-19423047D01*
X120471690Y-19232571D01*
X120424071Y-18851619D01*
X120459785Y-18565904D01*
X120602642Y-18184952D01*
X120721690Y-17994476D01*
X120935976Y-17804000D01*
X121233595Y-17708761D01*
X121424071Y-17708761D01*
X121697880Y-17804000D01*
X121781214Y-17899238D01*
X122328833Y-19613523D02*
X122602642Y-19708761D01*
X123078833Y-19708761D01*
X123281214Y-19613523D01*
X123388357Y-19518285D01*
X123507404Y-19327809D01*
X123531214Y-19137333D01*
X123459785Y-18946857D01*
X123376452Y-18851619D01*
X123197880Y-18756380D01*
X122828833Y-18661142D01*
X122650261Y-18565904D01*
X122566928Y-18470666D01*
X122495500Y-18280190D01*
X122519309Y-18089714D01*
X122638357Y-17899238D01*
X122745500Y-17804000D01*
X122947880Y-17708761D01*
X123424071Y-17708761D01*
X123697880Y-17804000D01*
X124316928Y-19708761D02*
X124566928Y-17708761D01*
D14*
X83800000Y-45696000D02*
X141800000Y-45696000D01*
X83800000Y-45696000D02*
G75*
G02*
X80300000Y-42196000I0J3500000D01*
G01*
X145300000Y-42196000D02*
G75*
G02*
X141800000Y-45696000I-3500000J0D01*
G01*
X80300000Y6800000D02*
X80300000Y-42196000D01*
X145300000Y6800000D02*
X145300000Y-42196000D01*
X83800000Y10300000D02*
X141800000Y10300000D01*
X80300000Y6800000D02*
G75*
G02*
X83800000Y10300000I3500000J0D01*
G01*
X141800000Y10300000D02*
G75*
G02*
X145300000Y6800000I0J-3500000D01*
G01*
D15*
%TO.C,J20*%
X106910000Y-23450000D02*
X95610000Y-23450000D01*
X95610000Y-23450000D02*
X95610000Y-13250000D01*
X95610000Y-13250000D02*
X109110000Y-13250000D01*
D12*
%TO.C,J5*%
X81200000Y-19170000D02*
X81200000Y-24370000D01*
X86340000Y-19170000D02*
X81200000Y-19170000D01*
X88940000Y-24370000D02*
X81200000Y-24370000D01*
X86340000Y-19170000D02*
X86340000Y-21770000D01*
X86340000Y-21770000D02*
X88940000Y-21770000D01*
X88940000Y-21770000D02*
X88940000Y-24370000D01*
X87610000Y-19170000D02*
X88940000Y-19170000D01*
X88940000Y-19170000D02*
X88940000Y-20500000D01*
%TO.C,J9*%
X136772000Y-39688000D02*
X137772000Y-39688000D01*
X137772000Y-39688000D02*
X137772000Y-40688000D01*
%TO.C,J10*%
X142570000Y-39652000D02*
X144690000Y-39652000D01*
X142570000Y-33592000D02*
X142570000Y-39652000D01*
X144690000Y-33592000D02*
X144690000Y-39652000D01*
X142570000Y-33592000D02*
X144690000Y-33592000D01*
X142570000Y-32592000D02*
X142570000Y-31532000D01*
X142570000Y-31532000D02*
X143630000Y-31532000D01*
%TO.C,R4*%
X139227000Y-19944359D02*
X139227000Y-20251641D01*
X139987000Y-19944359D02*
X139987000Y-20251641D01*
%TO.C,R3*%
X139227000Y-21849359D02*
X139227000Y-22156641D01*
X139987000Y-21849359D02*
X139987000Y-22156641D01*
%TO.C,R2*%
X138604859Y3080500D02*
X138912141Y3080500D01*
X138604859Y3840500D02*
X138912141Y3840500D01*
%TO.C,R1*%
X138604859Y2064500D02*
X138912141Y2064500D01*
X138604859Y2824500D02*
X138912141Y2824500D01*
%TO.C,R58*%
X99277500Y-14981141D02*
X99277500Y-14673859D01*
X98517500Y-14981141D02*
X98517500Y-14673859D01*
%TO.C,R57*%
X97950000Y-14981141D02*
X97950000Y-14673859D01*
X97190000Y-14981141D02*
X97190000Y-14673859D01*
%TO.C,R56*%
X96680000Y-14981141D02*
X96680000Y-14673859D01*
X95920000Y-14981141D02*
X95920000Y-14673859D01*
%TO.C,R55*%
X95410000Y-14981141D02*
X95410000Y-14673859D01*
X94650000Y-14981141D02*
X94650000Y-14673859D01*
%TO.C,R54*%
X94140000Y-14981141D02*
X94140000Y-14673859D01*
X93380000Y-14981141D02*
X93380000Y-14673859D01*
%TO.C,R53*%
X92870000Y-14981141D02*
X92870000Y-14673859D01*
X92110000Y-14981141D02*
X92110000Y-14673859D01*
%TO.C,R52*%
X91600000Y-14981141D02*
X91600000Y-14673859D01*
X90840000Y-14981141D02*
X90840000Y-14673859D01*
%TO.C,R51*%
X90330000Y-14981141D02*
X90330000Y-14673859D01*
X89570000Y-14981141D02*
X89570000Y-14673859D01*
%TO.C,R50*%
X89060000Y-14981141D02*
X89060000Y-14673859D01*
X88300000Y-14981141D02*
X88300000Y-14673859D01*
%TO.C,R49*%
X122715000Y-14981141D02*
X122715000Y-14673859D01*
X121955000Y-14981141D02*
X121955000Y-14673859D01*
%TO.C,R48*%
X121445000Y-14981141D02*
X121445000Y-14673859D01*
X120685000Y-14981141D02*
X120685000Y-14673859D01*
%TO.C,R47*%
X120175000Y-14981141D02*
X120175000Y-14673859D01*
X119415000Y-14981141D02*
X119415000Y-14673859D01*
%TO.C,R46*%
X118905000Y-14981141D02*
X118905000Y-14673859D01*
X118145000Y-14981141D02*
X118145000Y-14673859D01*
%TO.C,R45*%
X117635000Y-14981141D02*
X117635000Y-14673859D01*
X116875000Y-14981141D02*
X116875000Y-14673859D01*
%TO.C,R44*%
X135732500Y-15156142D02*
X135732500Y-14848860D01*
X134972500Y-15156142D02*
X134972500Y-14848860D01*
%TO.C,R43*%
X134462500Y-15156142D02*
X134462500Y-14848860D01*
X133702500Y-15156142D02*
X133702500Y-14848860D01*
%TO.C,R42*%
X133192500Y-15156142D02*
X133192500Y-14848860D01*
X132432500Y-15156142D02*
X132432500Y-14848860D01*
%TO.C,R41*%
X131922500Y-15156142D02*
X131922500Y-14848860D01*
X131162500Y-15156142D02*
X131162500Y-14848860D01*
%TO.C,R40*%
X98517500Y-12324359D02*
X98517500Y-12631641D01*
X99277500Y-12324359D02*
X99277500Y-12631641D01*
%TO.C,R39*%
X97190000Y-12324359D02*
X97190000Y-12631641D01*
X97950000Y-12324359D02*
X97950000Y-12631641D01*
%TO.C,R38*%
X95920000Y-12324359D02*
X95920000Y-12631641D01*
X96680000Y-12324359D02*
X96680000Y-12631641D01*
%TO.C,R37*%
X94586500Y-12324359D02*
X94586500Y-12631641D01*
X95346500Y-12324359D02*
X95346500Y-12631641D01*
%TO.C,R36*%
X93380000Y-12324359D02*
X93380000Y-12631641D01*
X94140000Y-12324359D02*
X94140000Y-12631641D01*
%TO.C,R35*%
X92110000Y-12324359D02*
X92110000Y-12631641D01*
X92870000Y-12324359D02*
X92870000Y-12631641D01*
%TO.C,R34*%
X90840000Y-12324359D02*
X90840000Y-12631641D01*
X91600000Y-12324359D02*
X91600000Y-12631641D01*
%TO.C,R33*%
X89570000Y-12324359D02*
X89570000Y-12631641D01*
X90330000Y-12324359D02*
X90330000Y-12631641D01*
%TO.C,R32*%
X88300000Y-12324359D02*
X88300000Y-12631641D01*
X89060000Y-12324359D02*
X89060000Y-12631641D01*
%TO.C,R31*%
X121955000Y-12324359D02*
X121955000Y-12631641D01*
X122715000Y-12324359D02*
X122715000Y-12631641D01*
%TO.C,R30*%
X120621500Y-12324359D02*
X120621500Y-12631641D01*
X121381500Y-12324359D02*
X121381500Y-12631641D01*
%TO.C,R29*%
X119415000Y-12324359D02*
X119415000Y-12631641D01*
X120175000Y-12324359D02*
X120175000Y-12631641D01*
%TO.C,R28*%
X118145000Y-12324359D02*
X118145000Y-12631641D01*
X118905000Y-12324359D02*
X118905000Y-12631641D01*
%TO.C,R27*%
X116875000Y-12324359D02*
X116875000Y-12631641D01*
X117635000Y-12324359D02*
X117635000Y-12631641D01*
%TO.C,R26*%
X134972500Y-12451359D02*
X134972500Y-12758641D01*
X135732500Y-12451359D02*
X135732500Y-12758641D01*
%TO.C,R25*%
X133702500Y-12451359D02*
X133702500Y-12758641D01*
X134462500Y-12451359D02*
X134462500Y-12758641D01*
%TO.C,R24*%
X132432500Y-12451359D02*
X132432500Y-12758641D01*
X133192500Y-12451359D02*
X133192500Y-12758641D01*
%TO.C,R23*%
X131162500Y-12451359D02*
X131162500Y-12758641D01*
X131922500Y-12451359D02*
X131922500Y-12758641D01*
%TO.C,R22*%
X99730000Y2384641D02*
X99730000Y2077359D01*
X100490000Y2384641D02*
X100490000Y2077359D01*
%TO.C,R21*%
X98460000Y2384641D02*
X98460000Y2077359D01*
X99220000Y2384641D02*
X99220000Y2077359D01*
%TO.C,R20*%
X97190000Y2384641D02*
X97190000Y2077359D01*
X97950000Y2384641D02*
X97950000Y2077359D01*
%TO.C,R19*%
X95920000Y2384641D02*
X95920000Y2077359D01*
X96680000Y2384641D02*
X96680000Y2077359D01*
%TO.C,R18*%
X94650000Y2384641D02*
X94650000Y2077359D01*
X95410000Y2384641D02*
X95410000Y2077359D01*
%TO.C,R17*%
X93380000Y2384641D02*
X93380000Y2077359D01*
X94140000Y2384641D02*
X94140000Y2077359D01*
%TO.C,R16*%
X92110000Y2384641D02*
X92110000Y2077359D01*
X92870000Y2384641D02*
X92870000Y2077359D01*
%TO.C,R15*%
X90840000Y2384641D02*
X90840000Y2077359D01*
X91600000Y2384641D02*
X91600000Y2077359D01*
%TO.C,R14*%
X89570000Y2384641D02*
X89570000Y2077359D01*
X90330000Y2384641D02*
X90330000Y2077359D01*
%TO.C,R13*%
X123225000Y2384641D02*
X123225000Y2077359D01*
X123985000Y2384641D02*
X123985000Y2077359D01*
%TO.C,R12*%
X121955000Y2384641D02*
X121955000Y2077359D01*
X122715000Y2384641D02*
X122715000Y2077359D01*
%TO.C,R11*%
X120685000Y2384641D02*
X120685000Y2077359D01*
X121445000Y2384641D02*
X121445000Y2077359D01*
%TO.C,R10*%
X119415000Y2384641D02*
X119415000Y2077359D01*
X120175000Y2384641D02*
X120175000Y2077359D01*
%TO.C,R9*%
X118145000Y2384641D02*
X118145000Y2077359D01*
X118905000Y2384641D02*
X118905000Y2077359D01*
%TO.C,R8*%
X136242500Y2384641D02*
X136242500Y2077359D01*
X137002500Y2384641D02*
X137002500Y2077359D01*
%TO.C,R7*%
X134972500Y2384641D02*
X134972500Y2077359D01*
X135732500Y2384641D02*
X135732500Y2077359D01*
%TO.C,R6*%
X133702500Y2384641D02*
X133702500Y2077359D01*
X134462500Y2384641D02*
X134462500Y2077359D01*
%TO.C,R5*%
X132432500Y2384641D02*
X132432500Y2077359D01*
X133192500Y2384641D02*
X133192500Y2077359D01*
%TO.C,J3*%
X144556500Y-31524500D02*
X144556500Y-26324500D01*
X83536500Y-31524500D02*
X144556500Y-31524500D01*
X80936500Y-26324500D02*
X144556500Y-26324500D01*
X83536500Y-31524500D02*
X83536500Y-28924500D01*
X83536500Y-28924500D02*
X80936500Y-28924500D01*
X80936500Y-28924500D02*
X80936500Y-26324500D01*
X82266500Y-31524500D02*
X80936500Y-31524500D01*
X80936500Y-31524500D02*
X80936500Y-30194500D01*
D15*
%TO.C,IC3*%
X124798000Y-1585000D02*
X124798000Y-8385000D01*
X124798000Y-8385000D02*
X111998000Y-8385000D01*
X111998000Y-8385000D02*
X111998000Y-1585000D01*
X111998000Y-1585000D02*
X124798000Y-1585000D01*
X124788000Y715000D02*
X124788000Y-1235000D01*
D16*
%TO.C,J8*%
X145305000Y-12584000D02*
X145305000Y-4585000D01*
D15*
X139655000Y-9959000D02*
X139655000Y-9959000D01*
X139455000Y-9959000D02*
X139455000Y-9959000D01*
X139655000Y-9959000D02*
G75*
G02*
X139455000Y-9959000I-100000J0D01*
G01*
X139455000Y-9959000D02*
G75*
G02*
X139655000Y-9959000I100000J0D01*
G01*
D17*
%TO.C,X6*%
G36*
X109821266Y-2652434D02*
G01*
X109618066Y-2652434D01*
X109618066Y-2855634D01*
X109433416Y-2855634D01*
X109428375Y-2961467D01*
X109423333Y-3067301D01*
X109326823Y-3072353D01*
X109230313Y-3077406D01*
X109225223Y-3165487D01*
X109220133Y-3253567D01*
X109012700Y-3258322D01*
X108805266Y-3263076D01*
X108805266Y-3668434D01*
X108593600Y-3668372D01*
X108593600Y-3880101D01*
X108394633Y-3884871D01*
X108195666Y-3889642D01*
X108195666Y-4276991D01*
X107780800Y-4286501D01*
X107776045Y-4493934D01*
X107771291Y-4701367D01*
X106536200Y-4701367D01*
X106536200Y-4278034D01*
X106112867Y-4278034D01*
X106112867Y-4091767D01*
X105926600Y-4091767D01*
X105926600Y-3888567D01*
X105096866Y-3888567D01*
X105096866Y-3668592D01*
X106845233Y-3664280D01*
X108593600Y-3659967D01*
X108598371Y-3461000D01*
X108603141Y-3262034D01*
X108805266Y-3262034D01*
X108805266Y-3075767D01*
X109228600Y-3075767D01*
X109228600Y-2855634D01*
X109431800Y-2855634D01*
X109431800Y-2652434D01*
X109617319Y-2652434D01*
X109626533Y-2017434D01*
X109723071Y-2012380D01*
X109819608Y-2007327D01*
X109824671Y-2113980D01*
X109829733Y-2220634D01*
X109931333Y-2229101D01*
X110032933Y-2237567D01*
X110037350Y-2953001D01*
X110041767Y-3668434D01*
X109821266Y-3668434D01*
X109821266Y-2652434D01*
G37*
X109821266Y-2652434D02*
X109618066Y-2652434D01*
X109618066Y-2855634D01*
X109433416Y-2855634D01*
X109428375Y-2961467D01*
X109423333Y-3067301D01*
X109326823Y-3072353D01*
X109230313Y-3077406D01*
X109225223Y-3165487D01*
X109220133Y-3253567D01*
X109012700Y-3258322D01*
X108805266Y-3263076D01*
X108805266Y-3668434D01*
X108593600Y-3668372D01*
X108593600Y-3880101D01*
X108394633Y-3884871D01*
X108195666Y-3889642D01*
X108195666Y-4276991D01*
X107780800Y-4286501D01*
X107776045Y-4493934D01*
X107771291Y-4701367D01*
X106536200Y-4701367D01*
X106536200Y-4278034D01*
X106112867Y-4278034D01*
X106112867Y-4091767D01*
X105926600Y-4091767D01*
X105926600Y-3888567D01*
X105096866Y-3888567D01*
X105096866Y-3668592D01*
X106845233Y-3664280D01*
X108593600Y-3659967D01*
X108598371Y-3461000D01*
X108603141Y-3262034D01*
X108805266Y-3262034D01*
X108805266Y-3075767D01*
X109228600Y-3075767D01*
X109228600Y-2855634D01*
X109431800Y-2855634D01*
X109431800Y-2652434D01*
X109617319Y-2652434D01*
X109626533Y-2017434D01*
X109723071Y-2012380D01*
X109819608Y-2007327D01*
X109824671Y-2113980D01*
X109829733Y-2220634D01*
X109931333Y-2229101D01*
X110032933Y-2237567D01*
X110037350Y-2953001D01*
X110041767Y-3668434D01*
X109821266Y-3668434D01*
X109821266Y-2652434D01*
G36*
X104063933Y-2008967D02*
G01*
X103862349Y-2008967D01*
X103857308Y-2114800D01*
X103852267Y-2220634D01*
X103251133Y-2229882D01*
X103251133Y-1822701D01*
X103454333Y-1822701D01*
X103454333Y-2008967D01*
X103860733Y-2008967D01*
X103860733Y-1822701D01*
X104063933Y-1822701D01*
X104063933Y-2008967D01*
G37*
X104063933Y-2008967D02*
X103862349Y-2008967D01*
X103857308Y-2114800D01*
X103852267Y-2220634D01*
X103251133Y-2229882D01*
X103251133Y-1822701D01*
X103454333Y-1822701D01*
X103454333Y-2008967D01*
X103860733Y-2008967D01*
X103860733Y-1822701D01*
X104063933Y-1822701D01*
X104063933Y-2008967D01*
G36*
X102218200Y-2855634D02*
G01*
X102429866Y-2855696D01*
X102418392Y-2652434D01*
X102641533Y-2652434D01*
X102641533Y-1822701D01*
X102827800Y-1822701D01*
X102827800Y-1619501D01*
X103251133Y-1619501D01*
X103251133Y-1822701D01*
X102828402Y-1822701D01*
X102823868Y-2233334D01*
X102819333Y-2643967D01*
X102730433Y-2649085D01*
X102641533Y-2654204D01*
X102641533Y-2854018D01*
X102535700Y-2859059D01*
X102429866Y-2864101D01*
X102419784Y-3075767D01*
X102218200Y-3075767D01*
X102218200Y-2855634D01*
G37*
X102218200Y-2855634D02*
X102429866Y-2855696D01*
X102418392Y-2652434D01*
X102641533Y-2652434D01*
X102641533Y-1822701D01*
X102827800Y-1822701D01*
X102827800Y-1619501D01*
X103251133Y-1619501D01*
X103251133Y-1822701D01*
X102828402Y-1822701D01*
X102823868Y-2233334D01*
X102819333Y-2643967D01*
X102730433Y-2649085D01*
X102641533Y-2654204D01*
X102641533Y-2854018D01*
X102535700Y-2859059D01*
X102429866Y-2864101D01*
X102419784Y-3075767D01*
X102218200Y-3075767D01*
X102218200Y-2855634D01*
G36*
X108195666Y-7393767D02*
G01*
X108381933Y-7393767D01*
X108381933Y-6750301D01*
X108470833Y-6750560D01*
X108525604Y-6753187D01*
X108567756Y-6759614D01*
X108581303Y-6764508D01*
X108589365Y-6778104D01*
X108594937Y-6809499D01*
X108598218Y-6862450D01*
X108599409Y-6940718D01*
X108598711Y-7048061D01*
X108598236Y-7081749D01*
X108593600Y-7385301D01*
X108487766Y-7390342D01*
X108381933Y-7395383D01*
X108381933Y-7783234D01*
X108195666Y-7783234D01*
X108195666Y-7393767D01*
G37*
X108195666Y-7393767D02*
X108381933Y-7393767D01*
X108381933Y-6750301D01*
X108470833Y-6750560D01*
X108525604Y-6753187D01*
X108567756Y-6759614D01*
X108581303Y-6764508D01*
X108589365Y-6778104D01*
X108594937Y-6809499D01*
X108598218Y-6862450D01*
X108599409Y-6940718D01*
X108598711Y-7048061D01*
X108598236Y-7081749D01*
X108593600Y-7385301D01*
X108487766Y-7390342D01*
X108381933Y-7395383D01*
X108381933Y-7783234D01*
X108195666Y-7783234D01*
X108195666Y-7393767D01*
G36*
X109228600Y-7986434D02*
G01*
X108806883Y-7986434D01*
X108801841Y-8092267D01*
X108796800Y-8198100D01*
X108204133Y-8198100D01*
X108199092Y-8092267D01*
X108194050Y-7986434D01*
X107772333Y-7986434D01*
X107772333Y-7783234D01*
X108195666Y-7783234D01*
X108195666Y-7986434D01*
X108805266Y-7986434D01*
X108805266Y-7783234D01*
X109228600Y-7783234D01*
X109228600Y-7986434D01*
G37*
X109228600Y-7986434D02*
X108806883Y-7986434D01*
X108801841Y-8092267D01*
X108796800Y-8198100D01*
X108204133Y-8198100D01*
X108199092Y-8092267D01*
X108194050Y-7986434D01*
X107772333Y-7986434D01*
X107772333Y-7783234D01*
X108195666Y-7783234D01*
X108195666Y-7986434D01*
X108805266Y-7986434D01*
X108805266Y-7783234D01*
X109228600Y-7783234D01*
X109228600Y-7986434D01*
G36*
X109431800Y-7783234D02*
G01*
X109228600Y-7783234D01*
X109228600Y-7393767D01*
X109431800Y-7393767D01*
X109431800Y-7783234D01*
G37*
X109431800Y-7783234D02*
X109228600Y-7783234D01*
X109228600Y-7393767D01*
X109431800Y-7393767D01*
X109431800Y-7783234D01*
G36*
X109618066Y-5734300D02*
G01*
X109618066Y-7393767D01*
X109431800Y-7393767D01*
X109431800Y-5734300D01*
X109618066Y-5734300D01*
G37*
X109618066Y-5734300D02*
X109618066Y-7393767D01*
X109431800Y-7393767D01*
X109431800Y-5734300D01*
X109618066Y-5734300D01*
G36*
X109431800Y-5734300D02*
G01*
X109228600Y-5734300D01*
X109228600Y-4278034D01*
X109431800Y-4278034D01*
X109431800Y-5734300D01*
G37*
X109431800Y-5734300D02*
X109228600Y-5734300D01*
X109228600Y-4278034D01*
X109431800Y-4278034D01*
X109431800Y-5734300D01*
G36*
X109618066Y-4278034D02*
G01*
X109431800Y-4278034D01*
X109431800Y-3888567D01*
X109618066Y-3888567D01*
X109618066Y-4278034D01*
G37*
X109618066Y-4278034D02*
X109431800Y-4278034D01*
X109431800Y-3888567D01*
X109618066Y-3888567D01*
X109618066Y-4278034D01*
G36*
X109821266Y-3888567D02*
G01*
X109618066Y-3888567D01*
X109618066Y-3668434D01*
X109821266Y-3668434D01*
X109821266Y-3888567D01*
G37*
X109821266Y-3888567D02*
X109618066Y-3888567D01*
X109618066Y-3668434D01*
X109821266Y-3668434D01*
X109821266Y-3888567D01*
G36*
X105096866Y-3262034D02*
G01*
X105096866Y-3668434D01*
X104690467Y-3668434D01*
X104690467Y-3262034D01*
X105096866Y-3262034D01*
G37*
X105096866Y-3262034D02*
X105096866Y-3668434D01*
X104690467Y-3668434D01*
X104690467Y-3262034D01*
X105096866Y-3262034D01*
G36*
X104690467Y-6140701D02*
G01*
X104891976Y-6140701D01*
X104897055Y-6043334D01*
X104902133Y-5945967D01*
X107772333Y-5937309D01*
X107772333Y-6139658D01*
X107979767Y-6144413D01*
X108187200Y-6149167D01*
X108192241Y-6255001D01*
X108197283Y-6360834D01*
X108381933Y-6360834D01*
X108381933Y-6750301D01*
X108195666Y-6750301D01*
X108195666Y-6360834D01*
X107772333Y-6360834D01*
X107772333Y-6140701D01*
X104893666Y-6140701D01*
X104893666Y-7393767D01*
X104690467Y-7393767D01*
X104690467Y-6140701D01*
G37*
X104690467Y-6140701D02*
X104891976Y-6140701D01*
X104897055Y-6043334D01*
X104902133Y-5945967D01*
X107772333Y-5937309D01*
X107772333Y-6139658D01*
X107979767Y-6144413D01*
X108187200Y-6149167D01*
X108192241Y-6255001D01*
X108197283Y-6360834D01*
X108381933Y-6360834D01*
X108381933Y-6750301D01*
X108195666Y-6750301D01*
X108195666Y-6360834D01*
X107772333Y-6360834D01*
X107772333Y-6140701D01*
X104893666Y-6140701D01*
X104893666Y-7393767D01*
X104690467Y-7393767D01*
X104690467Y-6140701D01*
G36*
X104487267Y-7393767D02*
G01*
X104690467Y-7393767D01*
X104690467Y-7783234D01*
X104487267Y-7783234D01*
X104487267Y-7393767D01*
G37*
X104487267Y-7393767D02*
X104690467Y-7393767D01*
X104690467Y-7783234D01*
X104487267Y-7783234D01*
X104487267Y-7393767D01*
G36*
X104063933Y-7986434D02*
G01*
X104063933Y-7783234D01*
X104487267Y-7783234D01*
X104487267Y-7986434D01*
X104065549Y-7986434D01*
X104055467Y-8198100D01*
X103766575Y-8202720D01*
X103670887Y-8203587D01*
X103587196Y-8203087D01*
X103521287Y-8201357D01*
X103478945Y-8198533D01*
X103466008Y-8195664D01*
X103459702Y-8173601D01*
X103455463Y-8128602D01*
X103454333Y-8085212D01*
X103454333Y-7986434D01*
X104063933Y-7986434D01*
G37*
X104063933Y-7986434D02*
X104063933Y-7783234D01*
X104487267Y-7783234D01*
X104487267Y-7986434D01*
X104065549Y-7986434D01*
X104055467Y-8198100D01*
X103766575Y-8202720D01*
X103670887Y-8203587D01*
X103587196Y-8203087D01*
X103521287Y-8201357D01*
X103478945Y-8198533D01*
X103466008Y-8195664D01*
X103459702Y-8173601D01*
X103455463Y-8128602D01*
X103454333Y-8085212D01*
X103454333Y-7986434D01*
X104063933Y-7986434D01*
G36*
X103454333Y-7986434D02*
G01*
X103251133Y-7986434D01*
X103251133Y-7783234D01*
X103454333Y-7783234D01*
X103454333Y-7986434D01*
G37*
X103454333Y-7986434D02*
X103251133Y-7986434D01*
X103251133Y-7783234D01*
X103454333Y-7783234D01*
X103454333Y-7986434D01*
G36*
X103454333Y-3888567D02*
G01*
X103454333Y-4090151D01*
X103560166Y-4095192D01*
X103666000Y-4100234D01*
X103670624Y-4400801D01*
X103675248Y-4701367D01*
X104062317Y-4701367D01*
X104067358Y-4807201D01*
X104072400Y-4913034D01*
X104279833Y-4917788D01*
X104487267Y-4922543D01*
X104487267Y-5734300D01*
X104063933Y-5734300D01*
X104063933Y-5937501D01*
X103861097Y-5937501D01*
X103852267Y-7385301D01*
X103763367Y-7390419D01*
X103674466Y-7395537D01*
X103674466Y-7783234D01*
X103454333Y-7783234D01*
X103454333Y-7393767D01*
X103674466Y-7393767D01*
X103674466Y-4702983D01*
X103462800Y-4692901D01*
X103453552Y-4091767D01*
X101794867Y-4091767D01*
X101794867Y-3888567D01*
X103454333Y-3888567D01*
G37*
X103454333Y-3888567D02*
X103454333Y-4090151D01*
X103560166Y-4095192D01*
X103666000Y-4100234D01*
X103670624Y-4400801D01*
X103675248Y-4701367D01*
X104062317Y-4701367D01*
X104067358Y-4807201D01*
X104072400Y-4913034D01*
X104279833Y-4917788D01*
X104487267Y-4922543D01*
X104487267Y-5734300D01*
X104063933Y-5734300D01*
X104063933Y-5937501D01*
X103861097Y-5937501D01*
X103852267Y-7385301D01*
X103763367Y-7390419D01*
X103674466Y-7395537D01*
X103674466Y-7783234D01*
X103454333Y-7783234D01*
X103454333Y-7393767D01*
X103674466Y-7393767D01*
X103674466Y-4702983D01*
X103462800Y-4692901D01*
X103453552Y-4091767D01*
X101794867Y-4091767D01*
X101794867Y-3888567D01*
X103454333Y-3888567D01*
G36*
X101794867Y-3888567D02*
G01*
X101591667Y-3888567D01*
X101591667Y-3262034D01*
X101794867Y-3262034D01*
X101794867Y-3888567D01*
G37*
X101794867Y-3888567D02*
X101591667Y-3888567D01*
X101591667Y-3262034D01*
X101794867Y-3262034D01*
X101794867Y-3888567D01*
G36*
X102218200Y-3262034D02*
G01*
X101794867Y-3262034D01*
X101794867Y-3075767D01*
X102218200Y-3075767D01*
X102218200Y-3262034D01*
G37*
X102218200Y-3262034D02*
X101794867Y-3262034D01*
X101794867Y-3075767D01*
X102218200Y-3075767D01*
X102218200Y-3262034D01*
G36*
X104487267Y-1822701D02*
G01*
X104063933Y-1822701D01*
X104063933Y-1619501D01*
X104690467Y-1619501D01*
X104690467Y-2229101D01*
X104487267Y-2229101D01*
X104487267Y-1822701D01*
G37*
X104487267Y-1822701D02*
X104063933Y-1822701D01*
X104063933Y-1619501D01*
X104690467Y-1619501D01*
X104690467Y-2229101D01*
X104487267Y-2229101D01*
X104487267Y-1822701D01*
G36*
X104487267Y-3262034D02*
G01*
X104487267Y-3076810D01*
X104279833Y-3072055D01*
X104072400Y-3067301D01*
X104067871Y-2648200D01*
X104063342Y-2229101D01*
X104487267Y-2229101D01*
X104487267Y-3075767D01*
X104690467Y-3075767D01*
X104690467Y-3262034D01*
X104487267Y-3262034D01*
G37*
X104487267Y-3262034D02*
X104487267Y-3076810D01*
X104279833Y-3072055D01*
X104072400Y-3067301D01*
X104067871Y-2648200D01*
X104063342Y-2229101D01*
X104487267Y-2229101D01*
X104487267Y-3075767D01*
X104690467Y-3075767D01*
X104690467Y-3262034D01*
X104487267Y-3262034D01*
G36*
X103454333Y-2855634D02*
G01*
X103251133Y-2855634D01*
X103251133Y-2652434D01*
X103454333Y-2652434D01*
X103454333Y-2855634D01*
G37*
X103454333Y-2855634D02*
X103251133Y-2855634D01*
X103251133Y-2652434D01*
X103454333Y-2652434D01*
X103454333Y-2855634D01*
%TO.C,X4*%
G36*
X127228734Y-7254066D02*
G01*
X127431934Y-7254066D01*
X127431934Y-7050866D01*
X127616584Y-7050866D01*
X127621625Y-6945033D01*
X127626667Y-6839199D01*
X127723177Y-6834147D01*
X127819687Y-6829094D01*
X127824777Y-6741013D01*
X127829867Y-6652933D01*
X128037300Y-6648178D01*
X128244734Y-6643424D01*
X128244734Y-6238066D01*
X128456400Y-6238128D01*
X128456400Y-6026399D01*
X128655367Y-6021629D01*
X128854334Y-6016858D01*
X128854334Y-5629509D01*
X129269200Y-5619999D01*
X129273955Y-5412566D01*
X129278709Y-5205133D01*
X130513800Y-5205133D01*
X130513800Y-5628466D01*
X130937133Y-5628466D01*
X130937133Y-5814733D01*
X131123400Y-5814733D01*
X131123400Y-6017933D01*
X131953134Y-6017933D01*
X131953134Y-6237908D01*
X130204767Y-6242220D01*
X128456400Y-6246533D01*
X128451629Y-6445500D01*
X128446859Y-6644466D01*
X128244734Y-6644466D01*
X128244734Y-6830733D01*
X127821400Y-6830733D01*
X127821400Y-7050866D01*
X127618200Y-7050866D01*
X127618200Y-7254066D01*
X127432681Y-7254066D01*
X127423467Y-7889066D01*
X127326929Y-7894120D01*
X127230392Y-7899173D01*
X127225329Y-7792520D01*
X127220267Y-7685866D01*
X127118667Y-7677399D01*
X127017067Y-7668933D01*
X127012650Y-6953499D01*
X127008233Y-6238066D01*
X127228734Y-6238066D01*
X127228734Y-7254066D01*
G37*
X127228734Y-7254066D02*
X127431934Y-7254066D01*
X127431934Y-7050866D01*
X127616584Y-7050866D01*
X127621625Y-6945033D01*
X127626667Y-6839199D01*
X127723177Y-6834147D01*
X127819687Y-6829094D01*
X127824777Y-6741013D01*
X127829867Y-6652933D01*
X128037300Y-6648178D01*
X128244734Y-6643424D01*
X128244734Y-6238066D01*
X128456400Y-6238128D01*
X128456400Y-6026399D01*
X128655367Y-6021629D01*
X128854334Y-6016858D01*
X128854334Y-5629509D01*
X129269200Y-5619999D01*
X129273955Y-5412566D01*
X129278709Y-5205133D01*
X130513800Y-5205133D01*
X130513800Y-5628466D01*
X130937133Y-5628466D01*
X130937133Y-5814733D01*
X131123400Y-5814733D01*
X131123400Y-6017933D01*
X131953134Y-6017933D01*
X131953134Y-6237908D01*
X130204767Y-6242220D01*
X128456400Y-6246533D01*
X128451629Y-6445500D01*
X128446859Y-6644466D01*
X128244734Y-6644466D01*
X128244734Y-6830733D01*
X127821400Y-6830733D01*
X127821400Y-7050866D01*
X127618200Y-7050866D01*
X127618200Y-7254066D01*
X127432681Y-7254066D01*
X127423467Y-7889066D01*
X127326929Y-7894120D01*
X127230392Y-7899173D01*
X127225329Y-7792520D01*
X127220267Y-7685866D01*
X127118667Y-7677399D01*
X127017067Y-7668933D01*
X127012650Y-6953499D01*
X127008233Y-6238066D01*
X127228734Y-6238066D01*
X127228734Y-7254066D01*
G36*
X132986067Y-7897533D02*
G01*
X133187651Y-7897533D01*
X133192692Y-7791700D01*
X133197733Y-7685866D01*
X133798867Y-7676618D01*
X133798867Y-8083799D01*
X133595667Y-8083799D01*
X133595667Y-7897533D01*
X133189267Y-7897533D01*
X133189267Y-8083799D01*
X132986067Y-8083799D01*
X132986067Y-7897533D01*
G37*
X132986067Y-7897533D02*
X133187651Y-7897533D01*
X133192692Y-7791700D01*
X133197733Y-7685866D01*
X133798867Y-7676618D01*
X133798867Y-8083799D01*
X133595667Y-8083799D01*
X133595667Y-7897533D01*
X133189267Y-7897533D01*
X133189267Y-8083799D01*
X132986067Y-8083799D01*
X132986067Y-7897533D01*
G36*
X134831800Y-7050866D02*
G01*
X134620134Y-7050804D01*
X134631608Y-7254066D01*
X134408467Y-7254066D01*
X134408467Y-8083799D01*
X134222200Y-8083799D01*
X134222200Y-8286999D01*
X133798867Y-8286999D01*
X133798867Y-8083799D01*
X134221598Y-8083799D01*
X134226132Y-7673166D01*
X134230667Y-7262533D01*
X134319567Y-7257415D01*
X134408467Y-7252296D01*
X134408467Y-7052482D01*
X134514300Y-7047441D01*
X134620134Y-7042399D01*
X134630216Y-6830733D01*
X134831800Y-6830733D01*
X134831800Y-7050866D01*
G37*
X134831800Y-7050866D02*
X134620134Y-7050804D01*
X134631608Y-7254066D01*
X134408467Y-7254066D01*
X134408467Y-8083799D01*
X134222200Y-8083799D01*
X134222200Y-8286999D01*
X133798867Y-8286999D01*
X133798867Y-8083799D01*
X134221598Y-8083799D01*
X134226132Y-7673166D01*
X134230667Y-7262533D01*
X134319567Y-7257415D01*
X134408467Y-7252296D01*
X134408467Y-7052482D01*
X134514300Y-7047441D01*
X134620134Y-7042399D01*
X134630216Y-6830733D01*
X134831800Y-6830733D01*
X134831800Y-7050866D01*
G36*
X128854334Y-2512733D02*
G01*
X128668067Y-2512733D01*
X128668067Y-3156199D01*
X128579167Y-3155940D01*
X128524396Y-3153313D01*
X128482244Y-3146886D01*
X128468697Y-3141992D01*
X128460635Y-3128396D01*
X128455063Y-3097001D01*
X128451782Y-3044050D01*
X128450591Y-2965782D01*
X128451289Y-2858439D01*
X128451764Y-2824751D01*
X128456400Y-2521199D01*
X128562234Y-2516158D01*
X128668067Y-2511117D01*
X128668067Y-2123266D01*
X128854334Y-2123266D01*
X128854334Y-2512733D01*
G37*
X128854334Y-2512733D02*
X128668067Y-2512733D01*
X128668067Y-3156199D01*
X128579167Y-3155940D01*
X128524396Y-3153313D01*
X128482244Y-3146886D01*
X128468697Y-3141992D01*
X128460635Y-3128396D01*
X128455063Y-3097001D01*
X128451782Y-3044050D01*
X128450591Y-2965782D01*
X128451289Y-2858439D01*
X128451764Y-2824751D01*
X128456400Y-2521199D01*
X128562234Y-2516158D01*
X128668067Y-2511117D01*
X128668067Y-2123266D01*
X128854334Y-2123266D01*
X128854334Y-2512733D01*
G36*
X127821400Y-1920066D02*
G01*
X128243117Y-1920066D01*
X128248159Y-1814233D01*
X128253200Y-1708400D01*
X128845867Y-1708400D01*
X128850908Y-1814233D01*
X128855950Y-1920066D01*
X129277667Y-1920066D01*
X129277667Y-2123266D01*
X128854334Y-2123266D01*
X128854334Y-1920066D01*
X128244734Y-1920066D01*
X128244734Y-2123266D01*
X127821400Y-2123266D01*
X127821400Y-1920066D01*
G37*
X127821400Y-1920066D02*
X128243117Y-1920066D01*
X128248159Y-1814233D01*
X128253200Y-1708400D01*
X128845867Y-1708400D01*
X128850908Y-1814233D01*
X128855950Y-1920066D01*
X129277667Y-1920066D01*
X129277667Y-2123266D01*
X128854334Y-2123266D01*
X128854334Y-1920066D01*
X128244734Y-1920066D01*
X128244734Y-2123266D01*
X127821400Y-2123266D01*
X127821400Y-1920066D01*
G36*
X127618200Y-2123266D02*
G01*
X127821400Y-2123266D01*
X127821400Y-2512733D01*
X127618200Y-2512733D01*
X127618200Y-2123266D01*
G37*
X127618200Y-2123266D02*
X127821400Y-2123266D01*
X127821400Y-2512733D01*
X127618200Y-2512733D01*
X127618200Y-2123266D01*
G36*
X127431934Y-4172200D02*
G01*
X127431934Y-2512733D01*
X127618200Y-2512733D01*
X127618200Y-4172200D01*
X127431934Y-4172200D01*
G37*
X127431934Y-4172200D02*
X127431934Y-2512733D01*
X127618200Y-2512733D01*
X127618200Y-4172200D01*
X127431934Y-4172200D01*
G36*
X127618200Y-4172200D02*
G01*
X127821400Y-4172200D01*
X127821400Y-5628466D01*
X127618200Y-5628466D01*
X127618200Y-4172200D01*
G37*
X127618200Y-4172200D02*
X127821400Y-4172200D01*
X127821400Y-5628466D01*
X127618200Y-5628466D01*
X127618200Y-4172200D01*
G36*
X127431934Y-5628466D02*
G01*
X127618200Y-5628466D01*
X127618200Y-6017933D01*
X127431934Y-6017933D01*
X127431934Y-5628466D01*
G37*
X127431934Y-5628466D02*
X127618200Y-5628466D01*
X127618200Y-6017933D01*
X127431934Y-6017933D01*
X127431934Y-5628466D01*
G36*
X127228734Y-6017933D02*
G01*
X127431934Y-6017933D01*
X127431934Y-6238066D01*
X127228734Y-6238066D01*
X127228734Y-6017933D01*
G37*
X127228734Y-6017933D02*
X127431934Y-6017933D01*
X127431934Y-6238066D01*
X127228734Y-6238066D01*
X127228734Y-6017933D01*
G36*
X131953134Y-6644466D02*
G01*
X131953134Y-6238066D01*
X132359533Y-6238066D01*
X132359533Y-6644466D01*
X131953134Y-6644466D01*
G37*
X131953134Y-6644466D02*
X131953134Y-6238066D01*
X132359533Y-6238066D01*
X132359533Y-6644466D01*
X131953134Y-6644466D01*
G36*
X132359533Y-3765799D02*
G01*
X132158024Y-3765799D01*
X132152945Y-3863166D01*
X132147867Y-3960533D01*
X129277667Y-3969191D01*
X129277667Y-3766842D01*
X129070233Y-3762087D01*
X128862800Y-3757333D01*
X128857759Y-3651499D01*
X128852717Y-3545666D01*
X128668067Y-3545666D01*
X128668067Y-3156199D01*
X128854334Y-3156199D01*
X128854334Y-3545666D01*
X129277667Y-3545666D01*
X129277667Y-3765799D01*
X132156334Y-3765799D01*
X132156334Y-2512733D01*
X132359533Y-2512733D01*
X132359533Y-3765799D01*
G37*
X132359533Y-3765799D02*
X132158024Y-3765799D01*
X132152945Y-3863166D01*
X132147867Y-3960533D01*
X129277667Y-3969191D01*
X129277667Y-3766842D01*
X129070233Y-3762087D01*
X128862800Y-3757333D01*
X128857759Y-3651499D01*
X128852717Y-3545666D01*
X128668067Y-3545666D01*
X128668067Y-3156199D01*
X128854334Y-3156199D01*
X128854334Y-3545666D01*
X129277667Y-3545666D01*
X129277667Y-3765799D01*
X132156334Y-3765799D01*
X132156334Y-2512733D01*
X132359533Y-2512733D01*
X132359533Y-3765799D01*
G36*
X132562733Y-2512733D02*
G01*
X132359533Y-2512733D01*
X132359533Y-2123266D01*
X132562733Y-2123266D01*
X132562733Y-2512733D01*
G37*
X132562733Y-2512733D02*
X132359533Y-2512733D01*
X132359533Y-2123266D01*
X132562733Y-2123266D01*
X132562733Y-2512733D01*
G36*
X132986067Y-1920066D02*
G01*
X132986067Y-2123266D01*
X132562733Y-2123266D01*
X132562733Y-1920066D01*
X132984451Y-1920066D01*
X132994533Y-1708400D01*
X133283425Y-1703780D01*
X133379113Y-1702913D01*
X133462804Y-1703413D01*
X133528713Y-1705143D01*
X133571055Y-1707967D01*
X133583992Y-1710836D01*
X133590298Y-1732899D01*
X133594537Y-1777898D01*
X133595667Y-1821288D01*
X133595667Y-1920066D01*
X132986067Y-1920066D01*
G37*
X132986067Y-1920066D02*
X132986067Y-2123266D01*
X132562733Y-2123266D01*
X132562733Y-1920066D01*
X132984451Y-1920066D01*
X132994533Y-1708400D01*
X133283425Y-1703780D01*
X133379113Y-1702913D01*
X133462804Y-1703413D01*
X133528713Y-1705143D01*
X133571055Y-1707967D01*
X133583992Y-1710836D01*
X133590298Y-1732899D01*
X133594537Y-1777898D01*
X133595667Y-1821288D01*
X133595667Y-1920066D01*
X132986067Y-1920066D01*
G36*
X133595667Y-1920066D02*
G01*
X133798867Y-1920066D01*
X133798867Y-2123266D01*
X133595667Y-2123266D01*
X133595667Y-1920066D01*
G37*
X133595667Y-1920066D02*
X133798867Y-1920066D01*
X133798867Y-2123266D01*
X133595667Y-2123266D01*
X133595667Y-1920066D01*
G36*
X133595667Y-6017933D02*
G01*
X133595667Y-5816349D01*
X133489834Y-5811308D01*
X133384000Y-5806266D01*
X133379376Y-5505699D01*
X133374752Y-5205133D01*
X132987683Y-5205133D01*
X132982642Y-5099299D01*
X132977600Y-4993466D01*
X132770167Y-4988712D01*
X132562733Y-4983957D01*
X132562733Y-4172200D01*
X132986067Y-4172200D01*
X132986067Y-3968999D01*
X133188903Y-3968999D01*
X133197733Y-2521199D01*
X133286633Y-2516081D01*
X133375534Y-2510963D01*
X133375534Y-2123266D01*
X133595667Y-2123266D01*
X133595667Y-2512733D01*
X133375534Y-2512733D01*
X133375534Y-5203517D01*
X133587200Y-5213599D01*
X133596448Y-5814733D01*
X135255133Y-5814733D01*
X135255133Y-6017933D01*
X133595667Y-6017933D01*
G37*
X133595667Y-6017933D02*
X133595667Y-5816349D01*
X133489834Y-5811308D01*
X133384000Y-5806266D01*
X133379376Y-5505699D01*
X133374752Y-5205133D01*
X132987683Y-5205133D01*
X132982642Y-5099299D01*
X132977600Y-4993466D01*
X132770167Y-4988712D01*
X132562733Y-4983957D01*
X132562733Y-4172200D01*
X132986067Y-4172200D01*
X132986067Y-3968999D01*
X133188903Y-3968999D01*
X133197733Y-2521199D01*
X133286633Y-2516081D01*
X133375534Y-2510963D01*
X133375534Y-2123266D01*
X133595667Y-2123266D01*
X133595667Y-2512733D01*
X133375534Y-2512733D01*
X133375534Y-5203517D01*
X133587200Y-5213599D01*
X133596448Y-5814733D01*
X135255133Y-5814733D01*
X135255133Y-6017933D01*
X133595667Y-6017933D01*
G36*
X135255133Y-6017933D02*
G01*
X135458333Y-6017933D01*
X135458333Y-6644466D01*
X135255133Y-6644466D01*
X135255133Y-6017933D01*
G37*
X135255133Y-6017933D02*
X135458333Y-6017933D01*
X135458333Y-6644466D01*
X135255133Y-6644466D01*
X135255133Y-6017933D01*
G36*
X134831800Y-6644466D02*
G01*
X135255133Y-6644466D01*
X135255133Y-6830733D01*
X134831800Y-6830733D01*
X134831800Y-6644466D01*
G37*
X134831800Y-6644466D02*
X135255133Y-6644466D01*
X135255133Y-6830733D01*
X134831800Y-6830733D01*
X134831800Y-6644466D01*
G36*
X132562733Y-8083799D02*
G01*
X132986067Y-8083799D01*
X132986067Y-8286999D01*
X132359533Y-8286999D01*
X132359533Y-7677399D01*
X132562733Y-7677399D01*
X132562733Y-8083799D01*
G37*
X132562733Y-8083799D02*
X132986067Y-8083799D01*
X132986067Y-8286999D01*
X132359533Y-8286999D01*
X132359533Y-7677399D01*
X132562733Y-7677399D01*
X132562733Y-8083799D01*
G36*
X132562733Y-6644466D02*
G01*
X132562733Y-6829690D01*
X132770167Y-6834445D01*
X132977600Y-6839199D01*
X132982129Y-7258300D01*
X132986658Y-7677399D01*
X132562733Y-7677399D01*
X132562733Y-6830733D01*
X132359533Y-6830733D01*
X132359533Y-6644466D01*
X132562733Y-6644466D01*
G37*
X132562733Y-6644466D02*
X132562733Y-6829690D01*
X132770167Y-6834445D01*
X132977600Y-6839199D01*
X132982129Y-7258300D01*
X132986658Y-7677399D01*
X132562733Y-7677399D01*
X132562733Y-6830733D01*
X132359533Y-6830733D01*
X132359533Y-6644466D01*
X132562733Y-6644466D01*
G36*
X133595667Y-7050866D02*
G01*
X133798867Y-7050866D01*
X133798867Y-7254066D01*
X133595667Y-7254066D01*
X133595667Y-7050866D01*
G37*
X133595667Y-7050866D02*
X133798867Y-7050866D01*
X133798867Y-7254066D01*
X133595667Y-7254066D01*
X133595667Y-7050866D01*
D15*
%TO.C,IC4*%
X137752000Y-1585000D02*
X137752000Y-8385000D01*
X137752000Y-8385000D02*
X124952000Y-8385000D01*
X124952000Y-8385000D02*
X124952000Y-1585000D01*
X124952000Y-1585000D02*
X137752000Y-1585000D01*
X137742000Y715000D02*
X137742000Y-1235000D01*
%TO.C,IC2*%
X86090000Y-8385000D02*
X86090000Y-1585000D01*
X86090000Y-1585000D02*
X98890000Y-1585000D01*
X98890000Y-1585000D02*
X98890000Y-8385000D01*
X98890000Y-8385000D02*
X86090000Y-8385000D01*
X86100000Y-10685000D02*
X86100000Y-8735000D01*
%TO.C,IC1*%
X99044000Y-8385000D02*
X99044000Y-1585000D01*
X99044000Y-1585000D02*
X111844000Y-1585000D01*
X111844000Y-1585000D02*
X111844000Y-8385000D01*
X111844000Y-8385000D02*
X99044000Y-8385000D01*
X99054000Y-10685000D02*
X99054000Y-8735000D01*
D12*
%TO.C,D5*%
X129494500Y-11420000D02*
X129494500Y-15270000D01*
X127494500Y-11420000D02*
X127494500Y-15270000D01*
X129494500Y-11420000D02*
X127494500Y-11420000D01*
D17*
%TO.C,X1*%
G36*
X84887318Y-33704318D02*
G01*
X84891180Y-33758617D01*
X84910767Y-33780888D01*
X84956591Y-33785136D01*
X85005657Y-33790858D01*
X85023741Y-33817847D01*
X85025864Y-33854409D01*
X85030369Y-33900951D01*
X85053221Y-33920040D01*
X85106682Y-33923682D01*
X85187500Y-33923682D01*
X85187500Y-37525864D01*
X85025864Y-37525864D01*
X85025864Y-38241682D01*
X81723864Y-38241682D01*
X81723864Y-37664409D01*
X81862409Y-37664409D01*
X81862409Y-38103136D01*
X84887318Y-38103136D01*
X84887318Y-37664409D01*
X81862409Y-37664409D01*
X81723864Y-37664409D01*
X81723864Y-37525864D01*
X81562227Y-37525864D01*
X81562227Y-33923682D01*
X81643046Y-33923682D01*
X81723864Y-33923682D01*
X81723864Y-37525864D01*
X85025864Y-37525864D01*
X85025864Y-33923682D01*
X84956591Y-33923682D01*
X84907525Y-33917960D01*
X84889440Y-33890971D01*
X84887318Y-33854409D01*
X84887318Y-33785136D01*
X81862409Y-33785136D01*
X81862409Y-33854409D01*
X81856688Y-33903475D01*
X81829698Y-33921560D01*
X81793136Y-33923682D01*
X81723864Y-33923682D01*
X81643046Y-33923682D01*
X81697344Y-33919820D01*
X81719615Y-33900233D01*
X81723864Y-33854409D01*
X81729585Y-33805343D01*
X81756575Y-33787259D01*
X81793136Y-33785136D01*
X81839678Y-33780631D01*
X81858768Y-33757779D01*
X81862409Y-33704318D01*
X81862409Y-33623500D01*
X84887318Y-33623500D01*
X84887318Y-33704318D01*
G37*
X84887318Y-33704318D02*
X84891180Y-33758617D01*
X84910767Y-33780888D01*
X84956591Y-33785136D01*
X85005657Y-33790858D01*
X85023741Y-33817847D01*
X85025864Y-33854409D01*
X85030369Y-33900951D01*
X85053221Y-33920040D01*
X85106682Y-33923682D01*
X85187500Y-33923682D01*
X85187500Y-37525864D01*
X85025864Y-37525864D01*
X85025864Y-38241682D01*
X81723864Y-38241682D01*
X81723864Y-37664409D01*
X81862409Y-37664409D01*
X81862409Y-38103136D01*
X84887318Y-38103136D01*
X84887318Y-37664409D01*
X81862409Y-37664409D01*
X81723864Y-37664409D01*
X81723864Y-37525864D01*
X81562227Y-37525864D01*
X81562227Y-33923682D01*
X81643046Y-33923682D01*
X81723864Y-33923682D01*
X81723864Y-37525864D01*
X85025864Y-37525864D01*
X85025864Y-33923682D01*
X84956591Y-33923682D01*
X84907525Y-33917960D01*
X84889440Y-33890971D01*
X84887318Y-33854409D01*
X84887318Y-33785136D01*
X81862409Y-33785136D01*
X81862409Y-33854409D01*
X81856688Y-33903475D01*
X81829698Y-33921560D01*
X81793136Y-33923682D01*
X81723864Y-33923682D01*
X81643046Y-33923682D01*
X81697344Y-33919820D01*
X81719615Y-33900233D01*
X81723864Y-33854409D01*
X81729585Y-33805343D01*
X81756575Y-33787259D01*
X81793136Y-33785136D01*
X81839678Y-33780631D01*
X81858768Y-33757779D01*
X81862409Y-33704318D01*
X81862409Y-33623500D01*
X84887318Y-33623500D01*
X84887318Y-33704318D01*
G36*
X82301136Y-37087136D02*
G01*
X82000955Y-37087136D01*
X82000955Y-36948591D01*
X82301136Y-36948591D01*
X82301136Y-37087136D01*
G37*
X82301136Y-37087136D02*
X82000955Y-37087136D01*
X82000955Y-36948591D01*
X82301136Y-36948591D01*
X82301136Y-37087136D01*
G36*
X84610227Y-36948591D02*
G01*
X83732773Y-36948591D01*
X83732773Y-36810046D01*
X84610227Y-36810046D01*
X84610227Y-36948591D01*
G37*
X84610227Y-36948591D02*
X83732773Y-36948591D01*
X83732773Y-36810046D01*
X84610227Y-36810046D01*
X84610227Y-36948591D01*
G36*
X84610227Y-34131500D02*
G01*
X84615949Y-34180566D01*
X84642938Y-34198651D01*
X84679500Y-34200773D01*
X84748773Y-34200773D01*
X84748773Y-36094227D01*
X84679500Y-36094227D01*
X84630434Y-36099949D01*
X84612350Y-36126938D01*
X84610227Y-36163500D01*
X84610227Y-36232773D01*
X82139500Y-36232773D01*
X82139500Y-36163500D01*
X82133778Y-36114434D01*
X82106789Y-36096350D01*
X82070227Y-36094227D01*
X82000955Y-36094227D01*
X82000955Y-34200773D01*
X82070227Y-34200773D01*
X82139500Y-34200773D01*
X82139500Y-36094227D01*
X84610227Y-36094227D01*
X84610227Y-34200773D01*
X82139500Y-34200773D01*
X82070227Y-34200773D01*
X82119293Y-34195051D01*
X82137378Y-34168062D01*
X82139500Y-34131500D01*
X82139500Y-34062227D01*
X84610227Y-34062227D01*
X84610227Y-34131500D01*
G37*
X84610227Y-34131500D02*
X84615949Y-34180566D01*
X84642938Y-34198651D01*
X84679500Y-34200773D01*
X84748773Y-34200773D01*
X84748773Y-36094227D01*
X84679500Y-36094227D01*
X84630434Y-36099949D01*
X84612350Y-36126938D01*
X84610227Y-36163500D01*
X84610227Y-36232773D01*
X82139500Y-36232773D01*
X82139500Y-36163500D01*
X82133778Y-36114434D01*
X82106789Y-36096350D01*
X82070227Y-36094227D01*
X82000955Y-36094227D01*
X82000955Y-34200773D01*
X82070227Y-34200773D01*
X82139500Y-34200773D01*
X82139500Y-36094227D01*
X84610227Y-36094227D01*
X84610227Y-34200773D01*
X82139500Y-34200773D01*
X82070227Y-34200773D01*
X82119293Y-34195051D01*
X82137378Y-34168062D01*
X82139500Y-34131500D01*
X82139500Y-34062227D01*
X84610227Y-34062227D01*
X84610227Y-34131500D01*
G36*
X83712566Y-35522676D02*
G01*
X83730651Y-35549665D01*
X83732773Y-35586227D01*
X83727051Y-35635293D01*
X83700062Y-35653378D01*
X83663500Y-35655500D01*
X83614434Y-35661222D01*
X83596350Y-35688211D01*
X83594227Y-35724773D01*
X83594227Y-35794046D01*
X83016955Y-35794046D01*
X83016955Y-35724773D01*
X83011233Y-35675707D01*
X82984244Y-35657622D01*
X82947682Y-35655500D01*
X82898616Y-35649778D01*
X82880531Y-35622789D01*
X82878409Y-35586227D01*
X82884131Y-35537161D01*
X82911120Y-35519077D01*
X82947682Y-35516955D01*
X82996748Y-35522676D01*
X83014832Y-35549665D01*
X83016955Y-35586227D01*
X83016955Y-35655500D01*
X83594227Y-35655500D01*
X83594227Y-35586227D01*
X83599949Y-35537161D01*
X83626938Y-35519077D01*
X83663500Y-35516955D01*
X83712566Y-35522676D01*
G37*
X83712566Y-35522676D02*
X83730651Y-35549665D01*
X83732773Y-35586227D01*
X83727051Y-35635293D01*
X83700062Y-35653378D01*
X83663500Y-35655500D01*
X83614434Y-35661222D01*
X83596350Y-35688211D01*
X83594227Y-35724773D01*
X83594227Y-35794046D01*
X83016955Y-35794046D01*
X83016955Y-35724773D01*
X83011233Y-35675707D01*
X82984244Y-35657622D01*
X82947682Y-35655500D01*
X82898616Y-35649778D01*
X82880531Y-35622789D01*
X82878409Y-35586227D01*
X82884131Y-35537161D01*
X82911120Y-35519077D01*
X82947682Y-35516955D01*
X82996748Y-35522676D01*
X83014832Y-35549665D01*
X83016955Y-35586227D01*
X83016955Y-35655500D01*
X83594227Y-35655500D01*
X83594227Y-35586227D01*
X83599949Y-35537161D01*
X83626938Y-35519077D01*
X83663500Y-35516955D01*
X83712566Y-35522676D01*
G36*
X83455682Y-35355318D02*
G01*
X83155500Y-35355318D01*
X83155500Y-35286046D01*
X83161222Y-35236980D01*
X83188211Y-35218895D01*
X83224773Y-35216773D01*
X83294046Y-35216773D01*
X83294046Y-34639500D01*
X83455682Y-34639500D01*
X83455682Y-35355318D01*
G37*
X83455682Y-35355318D02*
X83155500Y-35355318D01*
X83155500Y-35286046D01*
X83161222Y-35236980D01*
X83188211Y-35218895D01*
X83224773Y-35216773D01*
X83294046Y-35216773D01*
X83294046Y-34639500D01*
X83455682Y-34639500D01*
X83455682Y-35355318D01*
G36*
X82878409Y-34939682D02*
G01*
X82716773Y-34939682D01*
X82716773Y-34639500D01*
X82878409Y-34639500D01*
X82878409Y-34939682D01*
G37*
X82878409Y-34939682D02*
X82716773Y-34939682D01*
X82716773Y-34639500D01*
X82878409Y-34639500D01*
X82878409Y-34939682D01*
G36*
X83871318Y-34939682D02*
G01*
X83732773Y-34939682D01*
X83732773Y-34639500D01*
X83871318Y-34639500D01*
X83871318Y-34939682D01*
G37*
X83871318Y-34939682D02*
X83732773Y-34939682D01*
X83732773Y-34639500D01*
X83871318Y-34639500D01*
X83871318Y-34939682D01*
D12*
%TO.C,J7*%
X81050000Y950000D02*
X81050000Y2280000D01*
X82380000Y950000D02*
X81050000Y950000D01*
X83650000Y950000D02*
X83650000Y3610000D01*
X83650000Y3610000D02*
X86250000Y3610000D01*
X83650000Y950000D02*
X86250000Y950000D01*
X86250000Y950000D02*
X86250000Y3610000D01*
D17*
%TO.C,X5*%
G36*
X120260667Y-7050866D02*
G01*
X120463867Y-7050866D01*
X120463867Y-7254066D01*
X120260667Y-7254066D01*
X120260667Y-7050866D01*
G37*
X120260667Y-7050866D02*
X120463867Y-7050866D01*
X120463867Y-7254066D01*
X120260667Y-7254066D01*
X120260667Y-7050866D01*
G36*
X119227733Y-6644466D02*
G01*
X119227733Y-6829690D01*
X119435167Y-6834445D01*
X119642600Y-6839199D01*
X119647129Y-7258300D01*
X119651658Y-7677399D01*
X119227733Y-7677399D01*
X119227733Y-6830733D01*
X119024533Y-6830733D01*
X119024533Y-6644466D01*
X119227733Y-6644466D01*
G37*
X119227733Y-6644466D02*
X119227733Y-6829690D01*
X119435167Y-6834445D01*
X119642600Y-6839199D01*
X119647129Y-7258300D01*
X119651658Y-7677399D01*
X119227733Y-7677399D01*
X119227733Y-6830733D01*
X119024533Y-6830733D01*
X119024533Y-6644466D01*
X119227733Y-6644466D01*
G36*
X119227733Y-8083799D02*
G01*
X119651067Y-8083799D01*
X119651067Y-8286999D01*
X119024533Y-8286999D01*
X119024533Y-7677399D01*
X119227733Y-7677399D01*
X119227733Y-8083799D01*
G37*
X119227733Y-8083799D02*
X119651067Y-8083799D01*
X119651067Y-8286999D01*
X119024533Y-8286999D01*
X119024533Y-7677399D01*
X119227733Y-7677399D01*
X119227733Y-8083799D01*
G36*
X121496800Y-6644466D02*
G01*
X121920133Y-6644466D01*
X121920133Y-6830733D01*
X121496800Y-6830733D01*
X121496800Y-6644466D01*
G37*
X121496800Y-6644466D02*
X121920133Y-6644466D01*
X121920133Y-6830733D01*
X121496800Y-6830733D01*
X121496800Y-6644466D01*
G36*
X121920133Y-6017933D02*
G01*
X122123333Y-6017933D01*
X122123333Y-6644466D01*
X121920133Y-6644466D01*
X121920133Y-6017933D01*
G37*
X121920133Y-6017933D02*
X122123333Y-6017933D01*
X122123333Y-6644466D01*
X121920133Y-6644466D01*
X121920133Y-6017933D01*
G36*
X120260667Y-6017933D02*
G01*
X120260667Y-5816349D01*
X120154834Y-5811308D01*
X120049000Y-5806266D01*
X120044376Y-5505699D01*
X120039752Y-5205133D01*
X119652683Y-5205133D01*
X119647642Y-5099299D01*
X119642600Y-4993466D01*
X119435167Y-4988712D01*
X119227733Y-4983957D01*
X119227733Y-4172200D01*
X119651067Y-4172200D01*
X119651067Y-3968999D01*
X119853903Y-3968999D01*
X119862733Y-2521199D01*
X119951633Y-2516081D01*
X120040534Y-2510963D01*
X120040534Y-2123266D01*
X120260667Y-2123266D01*
X120260667Y-2512733D01*
X120040534Y-2512733D01*
X120040534Y-5203517D01*
X120252200Y-5213599D01*
X120261448Y-5814733D01*
X121920133Y-5814733D01*
X121920133Y-6017933D01*
X120260667Y-6017933D01*
G37*
X120260667Y-6017933D02*
X120260667Y-5816349D01*
X120154834Y-5811308D01*
X120049000Y-5806266D01*
X120044376Y-5505699D01*
X120039752Y-5205133D01*
X119652683Y-5205133D01*
X119647642Y-5099299D01*
X119642600Y-4993466D01*
X119435167Y-4988712D01*
X119227733Y-4983957D01*
X119227733Y-4172200D01*
X119651067Y-4172200D01*
X119651067Y-3968999D01*
X119853903Y-3968999D01*
X119862733Y-2521199D01*
X119951633Y-2516081D01*
X120040534Y-2510963D01*
X120040534Y-2123266D01*
X120260667Y-2123266D01*
X120260667Y-2512733D01*
X120040534Y-2512733D01*
X120040534Y-5203517D01*
X120252200Y-5213599D01*
X120261448Y-5814733D01*
X121920133Y-5814733D01*
X121920133Y-6017933D01*
X120260667Y-6017933D01*
G36*
X120260667Y-1920066D02*
G01*
X120463867Y-1920066D01*
X120463867Y-2123266D01*
X120260667Y-2123266D01*
X120260667Y-1920066D01*
G37*
X120260667Y-1920066D02*
X120463867Y-1920066D01*
X120463867Y-2123266D01*
X120260667Y-2123266D01*
X120260667Y-1920066D01*
G36*
X119651067Y-1920066D02*
G01*
X119651067Y-2123266D01*
X119227733Y-2123266D01*
X119227733Y-1920066D01*
X119649451Y-1920066D01*
X119659533Y-1708400D01*
X119948425Y-1703780D01*
X120044113Y-1702913D01*
X120127804Y-1703413D01*
X120193713Y-1705143D01*
X120236055Y-1707967D01*
X120248992Y-1710836D01*
X120255298Y-1732899D01*
X120259537Y-1777898D01*
X120260667Y-1821288D01*
X120260667Y-1920066D01*
X119651067Y-1920066D01*
G37*
X119651067Y-1920066D02*
X119651067Y-2123266D01*
X119227733Y-2123266D01*
X119227733Y-1920066D01*
X119649451Y-1920066D01*
X119659533Y-1708400D01*
X119948425Y-1703780D01*
X120044113Y-1702913D01*
X120127804Y-1703413D01*
X120193713Y-1705143D01*
X120236055Y-1707967D01*
X120248992Y-1710836D01*
X120255298Y-1732899D01*
X120259537Y-1777898D01*
X120260667Y-1821288D01*
X120260667Y-1920066D01*
X119651067Y-1920066D01*
G36*
X119227733Y-2512733D02*
G01*
X119024533Y-2512733D01*
X119024533Y-2123266D01*
X119227733Y-2123266D01*
X119227733Y-2512733D01*
G37*
X119227733Y-2512733D02*
X119024533Y-2512733D01*
X119024533Y-2123266D01*
X119227733Y-2123266D01*
X119227733Y-2512733D01*
G36*
X119024533Y-3765799D02*
G01*
X118823024Y-3765799D01*
X118817945Y-3863166D01*
X118812867Y-3960533D01*
X115942667Y-3969191D01*
X115942667Y-3766842D01*
X115735233Y-3762087D01*
X115527800Y-3757333D01*
X115522759Y-3651499D01*
X115517717Y-3545666D01*
X115333067Y-3545666D01*
X115333067Y-3156199D01*
X115519334Y-3156199D01*
X115519334Y-3545666D01*
X115942667Y-3545666D01*
X115942667Y-3765799D01*
X118821334Y-3765799D01*
X118821334Y-2512733D01*
X119024533Y-2512733D01*
X119024533Y-3765799D01*
G37*
X119024533Y-3765799D02*
X118823024Y-3765799D01*
X118817945Y-3863166D01*
X118812867Y-3960533D01*
X115942667Y-3969191D01*
X115942667Y-3766842D01*
X115735233Y-3762087D01*
X115527800Y-3757333D01*
X115522759Y-3651499D01*
X115517717Y-3545666D01*
X115333067Y-3545666D01*
X115333067Y-3156199D01*
X115519334Y-3156199D01*
X115519334Y-3545666D01*
X115942667Y-3545666D01*
X115942667Y-3765799D01*
X118821334Y-3765799D01*
X118821334Y-2512733D01*
X119024533Y-2512733D01*
X119024533Y-3765799D01*
G36*
X118618134Y-6644466D02*
G01*
X118618134Y-6238066D01*
X119024533Y-6238066D01*
X119024533Y-6644466D01*
X118618134Y-6644466D01*
G37*
X118618134Y-6644466D02*
X118618134Y-6238066D01*
X119024533Y-6238066D01*
X119024533Y-6644466D01*
X118618134Y-6644466D01*
G36*
X113893734Y-6017933D02*
G01*
X114096934Y-6017933D01*
X114096934Y-6238066D01*
X113893734Y-6238066D01*
X113893734Y-6017933D01*
G37*
X113893734Y-6017933D02*
X114096934Y-6017933D01*
X114096934Y-6238066D01*
X113893734Y-6238066D01*
X113893734Y-6017933D01*
G36*
X114096934Y-5628466D02*
G01*
X114283200Y-5628466D01*
X114283200Y-6017933D01*
X114096934Y-6017933D01*
X114096934Y-5628466D01*
G37*
X114096934Y-5628466D02*
X114283200Y-5628466D01*
X114283200Y-6017933D01*
X114096934Y-6017933D01*
X114096934Y-5628466D01*
G36*
X114283200Y-4172200D02*
G01*
X114486400Y-4172200D01*
X114486400Y-5628466D01*
X114283200Y-5628466D01*
X114283200Y-4172200D01*
G37*
X114283200Y-4172200D02*
X114486400Y-4172200D01*
X114486400Y-5628466D01*
X114283200Y-5628466D01*
X114283200Y-4172200D01*
G36*
X114096934Y-4172200D02*
G01*
X114096934Y-2512733D01*
X114283200Y-2512733D01*
X114283200Y-4172200D01*
X114096934Y-4172200D01*
G37*
X114096934Y-4172200D02*
X114096934Y-2512733D01*
X114283200Y-2512733D01*
X114283200Y-4172200D01*
X114096934Y-4172200D01*
G36*
X114283200Y-2123266D02*
G01*
X114486400Y-2123266D01*
X114486400Y-2512733D01*
X114283200Y-2512733D01*
X114283200Y-2123266D01*
G37*
X114283200Y-2123266D02*
X114486400Y-2123266D01*
X114486400Y-2512733D01*
X114283200Y-2512733D01*
X114283200Y-2123266D01*
G36*
X114486400Y-1920066D02*
G01*
X114908117Y-1920066D01*
X114913159Y-1814233D01*
X114918200Y-1708400D01*
X115510867Y-1708400D01*
X115515908Y-1814233D01*
X115520950Y-1920066D01*
X115942667Y-1920066D01*
X115942667Y-2123266D01*
X115519334Y-2123266D01*
X115519334Y-1920066D01*
X114909734Y-1920066D01*
X114909734Y-2123266D01*
X114486400Y-2123266D01*
X114486400Y-1920066D01*
G37*
X114486400Y-1920066D02*
X114908117Y-1920066D01*
X114913159Y-1814233D01*
X114918200Y-1708400D01*
X115510867Y-1708400D01*
X115515908Y-1814233D01*
X115520950Y-1920066D01*
X115942667Y-1920066D01*
X115942667Y-2123266D01*
X115519334Y-2123266D01*
X115519334Y-1920066D01*
X114909734Y-1920066D01*
X114909734Y-2123266D01*
X114486400Y-2123266D01*
X114486400Y-1920066D01*
G36*
X115519334Y-2512733D02*
G01*
X115333067Y-2512733D01*
X115333067Y-3156199D01*
X115244167Y-3155940D01*
X115189396Y-3153313D01*
X115147244Y-3146886D01*
X115133697Y-3141992D01*
X115125635Y-3128396D01*
X115120063Y-3097001D01*
X115116782Y-3044050D01*
X115115591Y-2965782D01*
X115116289Y-2858439D01*
X115116764Y-2824751D01*
X115121400Y-2521199D01*
X115227234Y-2516158D01*
X115333067Y-2511117D01*
X115333067Y-2123266D01*
X115519334Y-2123266D01*
X115519334Y-2512733D01*
G37*
X115519334Y-2512733D02*
X115333067Y-2512733D01*
X115333067Y-3156199D01*
X115244167Y-3155940D01*
X115189396Y-3153313D01*
X115147244Y-3146886D01*
X115133697Y-3141992D01*
X115125635Y-3128396D01*
X115120063Y-3097001D01*
X115116782Y-3044050D01*
X115115591Y-2965782D01*
X115116289Y-2858439D01*
X115116764Y-2824751D01*
X115121400Y-2521199D01*
X115227234Y-2516158D01*
X115333067Y-2511117D01*
X115333067Y-2123266D01*
X115519334Y-2123266D01*
X115519334Y-2512733D01*
G36*
X121496800Y-7050866D02*
G01*
X121285134Y-7050804D01*
X121296608Y-7254066D01*
X121073467Y-7254066D01*
X121073467Y-8083799D01*
X120887200Y-8083799D01*
X120887200Y-8286999D01*
X120463867Y-8286999D01*
X120463867Y-8083799D01*
X120886598Y-8083799D01*
X120891132Y-7673166D01*
X120895667Y-7262533D01*
X120984567Y-7257415D01*
X121073467Y-7252296D01*
X121073467Y-7052482D01*
X121179300Y-7047441D01*
X121285134Y-7042399D01*
X121295216Y-6830733D01*
X121496800Y-6830733D01*
X121496800Y-7050866D01*
G37*
X121496800Y-7050866D02*
X121285134Y-7050804D01*
X121296608Y-7254066D01*
X121073467Y-7254066D01*
X121073467Y-8083799D01*
X120887200Y-8083799D01*
X120887200Y-8286999D01*
X120463867Y-8286999D01*
X120463867Y-8083799D01*
X120886598Y-8083799D01*
X120891132Y-7673166D01*
X120895667Y-7262533D01*
X120984567Y-7257415D01*
X121073467Y-7252296D01*
X121073467Y-7052482D01*
X121179300Y-7047441D01*
X121285134Y-7042399D01*
X121295216Y-6830733D01*
X121496800Y-6830733D01*
X121496800Y-7050866D01*
G36*
X119651067Y-7897533D02*
G01*
X119852651Y-7897533D01*
X119857692Y-7791700D01*
X119862733Y-7685866D01*
X120463867Y-7676618D01*
X120463867Y-8083799D01*
X120260667Y-8083799D01*
X120260667Y-7897533D01*
X119854267Y-7897533D01*
X119854267Y-8083799D01*
X119651067Y-8083799D01*
X119651067Y-7897533D01*
G37*
X119651067Y-7897533D02*
X119852651Y-7897533D01*
X119857692Y-7791700D01*
X119862733Y-7685866D01*
X120463867Y-7676618D01*
X120463867Y-8083799D01*
X120260667Y-8083799D01*
X120260667Y-7897533D01*
X119854267Y-7897533D01*
X119854267Y-8083799D01*
X119651067Y-8083799D01*
X119651067Y-7897533D01*
G36*
X113893734Y-7254066D02*
G01*
X114096934Y-7254066D01*
X114096934Y-7050866D01*
X114281584Y-7050866D01*
X114286625Y-6945033D01*
X114291667Y-6839199D01*
X114388177Y-6834147D01*
X114484687Y-6829094D01*
X114489777Y-6741013D01*
X114494867Y-6652933D01*
X114702300Y-6648178D01*
X114909734Y-6643424D01*
X114909734Y-6238066D01*
X115121400Y-6238128D01*
X115121400Y-6026399D01*
X115320367Y-6021629D01*
X115519334Y-6016858D01*
X115519334Y-5629509D01*
X115934200Y-5619999D01*
X115938955Y-5412566D01*
X115943709Y-5205133D01*
X117178800Y-5205133D01*
X117178800Y-5628466D01*
X117602133Y-5628466D01*
X117602133Y-5814733D01*
X117788400Y-5814733D01*
X117788400Y-6017933D01*
X118618134Y-6017933D01*
X118618134Y-6237908D01*
X116869767Y-6242220D01*
X115121400Y-6246533D01*
X115116629Y-6445500D01*
X115111859Y-6644466D01*
X114909734Y-6644466D01*
X114909734Y-6830733D01*
X114486400Y-6830733D01*
X114486400Y-7050866D01*
X114283200Y-7050866D01*
X114283200Y-7254066D01*
X114097681Y-7254066D01*
X114088467Y-7889066D01*
X113991929Y-7894120D01*
X113895392Y-7899173D01*
X113890329Y-7792520D01*
X113885267Y-7685866D01*
X113783667Y-7677399D01*
X113682067Y-7668933D01*
X113677650Y-6953499D01*
X113673233Y-6238066D01*
X113893734Y-6238066D01*
X113893734Y-7254066D01*
G37*
X113893734Y-7254066D02*
X114096934Y-7254066D01*
X114096934Y-7050866D01*
X114281584Y-7050866D01*
X114286625Y-6945033D01*
X114291667Y-6839199D01*
X114388177Y-6834147D01*
X114484687Y-6829094D01*
X114489777Y-6741013D01*
X114494867Y-6652933D01*
X114702300Y-6648178D01*
X114909734Y-6643424D01*
X114909734Y-6238066D01*
X115121400Y-6238128D01*
X115121400Y-6026399D01*
X115320367Y-6021629D01*
X115519334Y-6016858D01*
X115519334Y-5629509D01*
X115934200Y-5619999D01*
X115938955Y-5412566D01*
X115943709Y-5205133D01*
X117178800Y-5205133D01*
X117178800Y-5628466D01*
X117602133Y-5628466D01*
X117602133Y-5814733D01*
X117788400Y-5814733D01*
X117788400Y-6017933D01*
X118618134Y-6017933D01*
X118618134Y-6237908D01*
X116869767Y-6242220D01*
X115121400Y-6246533D01*
X115116629Y-6445500D01*
X115111859Y-6644466D01*
X114909734Y-6644466D01*
X114909734Y-6830733D01*
X114486400Y-6830733D01*
X114486400Y-7050866D01*
X114283200Y-7050866D01*
X114283200Y-7254066D01*
X114097681Y-7254066D01*
X114088467Y-7889066D01*
X113991929Y-7894120D01*
X113895392Y-7899173D01*
X113890329Y-7792520D01*
X113885267Y-7685866D01*
X113783667Y-7677399D01*
X113682067Y-7668933D01*
X113677650Y-6953499D01*
X113673233Y-6238066D01*
X113893734Y-6238066D01*
X113893734Y-7254066D01*
%TO.C,X2*%
G36*
X89928833Y-2919134D02*
G01*
X89725633Y-2919134D01*
X89725633Y-2715934D01*
X89928833Y-2715934D01*
X89928833Y-2919134D01*
G37*
X89928833Y-2919134D02*
X89725633Y-2919134D01*
X89725633Y-2715934D01*
X89928833Y-2715934D01*
X89928833Y-2919134D01*
G36*
X90961767Y-3325534D02*
G01*
X90961767Y-3140310D01*
X90754333Y-3135555D01*
X90546900Y-3130801D01*
X90542371Y-2711700D01*
X90537842Y-2292601D01*
X90961767Y-2292601D01*
X90961767Y-3139267D01*
X91164967Y-3139267D01*
X91164967Y-3325534D01*
X90961767Y-3325534D01*
G37*
X90961767Y-3325534D02*
X90961767Y-3140310D01*
X90754333Y-3135555D01*
X90546900Y-3130801D01*
X90542371Y-2711700D01*
X90537842Y-2292601D01*
X90961767Y-2292601D01*
X90961767Y-3139267D01*
X91164967Y-3139267D01*
X91164967Y-3325534D01*
X90961767Y-3325534D01*
G36*
X90961767Y-1886201D02*
G01*
X90538433Y-1886201D01*
X90538433Y-1683001D01*
X91164967Y-1683001D01*
X91164967Y-2292601D01*
X90961767Y-2292601D01*
X90961767Y-1886201D01*
G37*
X90961767Y-1886201D02*
X90538433Y-1886201D01*
X90538433Y-1683001D01*
X91164967Y-1683001D01*
X91164967Y-2292601D01*
X90961767Y-2292601D01*
X90961767Y-1886201D01*
G36*
X88692700Y-3325534D02*
G01*
X88269367Y-3325534D01*
X88269367Y-3139267D01*
X88692700Y-3139267D01*
X88692700Y-3325534D01*
G37*
X88692700Y-3325534D02*
X88269367Y-3325534D01*
X88269367Y-3139267D01*
X88692700Y-3139267D01*
X88692700Y-3325534D01*
G36*
X88269367Y-3952067D02*
G01*
X88066167Y-3952067D01*
X88066167Y-3325534D01*
X88269367Y-3325534D01*
X88269367Y-3952067D01*
G37*
X88269367Y-3952067D02*
X88066167Y-3952067D01*
X88066167Y-3325534D01*
X88269367Y-3325534D01*
X88269367Y-3952067D01*
G36*
X89928833Y-3952067D02*
G01*
X89928833Y-4153651D01*
X90034666Y-4158692D01*
X90140500Y-4163734D01*
X90145124Y-4464301D01*
X90149748Y-4764867D01*
X90536817Y-4764867D01*
X90541858Y-4870701D01*
X90546900Y-4976534D01*
X90754333Y-4981288D01*
X90961767Y-4986043D01*
X90961767Y-5797800D01*
X90538433Y-5797800D01*
X90538433Y-6001001D01*
X90335597Y-6001001D01*
X90326767Y-7448801D01*
X90237867Y-7453919D01*
X90148966Y-7459037D01*
X90148966Y-7846734D01*
X89928833Y-7846734D01*
X89928833Y-7457267D01*
X90148966Y-7457267D01*
X90148966Y-4766483D01*
X89937300Y-4756401D01*
X89928052Y-4155267D01*
X88269367Y-4155267D01*
X88269367Y-3952067D01*
X89928833Y-3952067D01*
G37*
X89928833Y-3952067D02*
X89928833Y-4153651D01*
X90034666Y-4158692D01*
X90140500Y-4163734D01*
X90145124Y-4464301D01*
X90149748Y-4764867D01*
X90536817Y-4764867D01*
X90541858Y-4870701D01*
X90546900Y-4976534D01*
X90754333Y-4981288D01*
X90961767Y-4986043D01*
X90961767Y-5797800D01*
X90538433Y-5797800D01*
X90538433Y-6001001D01*
X90335597Y-6001001D01*
X90326767Y-7448801D01*
X90237867Y-7453919D01*
X90148966Y-7459037D01*
X90148966Y-7846734D01*
X89928833Y-7846734D01*
X89928833Y-7457267D01*
X90148966Y-7457267D01*
X90148966Y-4766483D01*
X89937300Y-4756401D01*
X89928052Y-4155267D01*
X88269367Y-4155267D01*
X88269367Y-3952067D01*
X89928833Y-3952067D01*
G36*
X89928833Y-8049934D02*
G01*
X89725633Y-8049934D01*
X89725633Y-7846734D01*
X89928833Y-7846734D01*
X89928833Y-8049934D01*
G37*
X89928833Y-8049934D02*
X89725633Y-8049934D01*
X89725633Y-7846734D01*
X89928833Y-7846734D01*
X89928833Y-8049934D01*
G36*
X90538433Y-8049934D02*
G01*
X90538433Y-7846734D01*
X90961767Y-7846734D01*
X90961767Y-8049934D01*
X90540049Y-8049934D01*
X90529967Y-8261600D01*
X90241075Y-8266220D01*
X90145387Y-8267087D01*
X90061696Y-8266587D01*
X89995787Y-8264857D01*
X89953445Y-8262033D01*
X89940508Y-8259164D01*
X89934202Y-8237101D01*
X89929963Y-8192102D01*
X89928833Y-8148712D01*
X89928833Y-8049934D01*
X90538433Y-8049934D01*
G37*
X90538433Y-8049934D02*
X90538433Y-7846734D01*
X90961767Y-7846734D01*
X90961767Y-8049934D01*
X90540049Y-8049934D01*
X90529967Y-8261600D01*
X90241075Y-8266220D01*
X90145387Y-8267087D01*
X90061696Y-8266587D01*
X89995787Y-8264857D01*
X89953445Y-8262033D01*
X89940508Y-8259164D01*
X89934202Y-8237101D01*
X89929963Y-8192102D01*
X89928833Y-8148712D01*
X89928833Y-8049934D01*
X90538433Y-8049934D01*
G36*
X90961767Y-7457267D02*
G01*
X91164967Y-7457267D01*
X91164967Y-7846734D01*
X90961767Y-7846734D01*
X90961767Y-7457267D01*
G37*
X90961767Y-7457267D02*
X91164967Y-7457267D01*
X91164967Y-7846734D01*
X90961767Y-7846734D01*
X90961767Y-7457267D01*
G36*
X91164967Y-6204201D02*
G01*
X91366476Y-6204201D01*
X91371555Y-6106834D01*
X91376633Y-6009467D01*
X94246833Y-6000809D01*
X94246833Y-6203158D01*
X94454267Y-6207913D01*
X94661700Y-6212667D01*
X94666741Y-6318501D01*
X94671783Y-6424334D01*
X94856433Y-6424334D01*
X94856433Y-6813801D01*
X94670166Y-6813801D01*
X94670166Y-6424334D01*
X94246833Y-6424334D01*
X94246833Y-6204201D01*
X91368166Y-6204201D01*
X91368166Y-7457267D01*
X91164967Y-7457267D01*
X91164967Y-6204201D01*
G37*
X91164967Y-6204201D02*
X91366476Y-6204201D01*
X91371555Y-6106834D01*
X91376633Y-6009467D01*
X94246833Y-6000809D01*
X94246833Y-6203158D01*
X94454267Y-6207913D01*
X94661700Y-6212667D01*
X94666741Y-6318501D01*
X94671783Y-6424334D01*
X94856433Y-6424334D01*
X94856433Y-6813801D01*
X94670166Y-6813801D01*
X94670166Y-6424334D01*
X94246833Y-6424334D01*
X94246833Y-6204201D01*
X91368166Y-6204201D01*
X91368166Y-7457267D01*
X91164967Y-7457267D01*
X91164967Y-6204201D01*
G36*
X91571366Y-3325534D02*
G01*
X91571366Y-3731934D01*
X91164967Y-3731934D01*
X91164967Y-3325534D01*
X91571366Y-3325534D01*
G37*
X91571366Y-3325534D02*
X91571366Y-3731934D01*
X91164967Y-3731934D01*
X91164967Y-3325534D01*
X91571366Y-3325534D01*
G36*
X96295766Y-3952067D02*
G01*
X96092566Y-3952067D01*
X96092566Y-3731934D01*
X96295766Y-3731934D01*
X96295766Y-3952067D01*
G37*
X96295766Y-3952067D02*
X96092566Y-3952067D01*
X96092566Y-3731934D01*
X96295766Y-3731934D01*
X96295766Y-3952067D01*
G36*
X96092566Y-4341534D02*
G01*
X95906300Y-4341534D01*
X95906300Y-3952067D01*
X96092566Y-3952067D01*
X96092566Y-4341534D01*
G37*
X96092566Y-4341534D02*
X95906300Y-4341534D01*
X95906300Y-3952067D01*
X96092566Y-3952067D01*
X96092566Y-4341534D01*
G36*
X95906300Y-5797800D02*
G01*
X95703100Y-5797800D01*
X95703100Y-4341534D01*
X95906300Y-4341534D01*
X95906300Y-5797800D01*
G37*
X95906300Y-5797800D02*
X95703100Y-5797800D01*
X95703100Y-4341534D01*
X95906300Y-4341534D01*
X95906300Y-5797800D01*
G36*
X96092566Y-5797800D02*
G01*
X96092566Y-7457267D01*
X95906300Y-7457267D01*
X95906300Y-5797800D01*
X96092566Y-5797800D01*
G37*
X96092566Y-5797800D02*
X96092566Y-7457267D01*
X95906300Y-7457267D01*
X95906300Y-5797800D01*
X96092566Y-5797800D01*
G36*
X95906300Y-7846734D02*
G01*
X95703100Y-7846734D01*
X95703100Y-7457267D01*
X95906300Y-7457267D01*
X95906300Y-7846734D01*
G37*
X95906300Y-7846734D02*
X95703100Y-7846734D01*
X95703100Y-7457267D01*
X95906300Y-7457267D01*
X95906300Y-7846734D01*
G36*
X95703100Y-8049934D02*
G01*
X95281383Y-8049934D01*
X95276341Y-8155767D01*
X95271300Y-8261600D01*
X94678633Y-8261600D01*
X94673592Y-8155767D01*
X94668550Y-8049934D01*
X94246833Y-8049934D01*
X94246833Y-7846734D01*
X94670166Y-7846734D01*
X94670166Y-8049934D01*
X95279766Y-8049934D01*
X95279766Y-7846734D01*
X95703100Y-7846734D01*
X95703100Y-8049934D01*
G37*
X95703100Y-8049934D02*
X95281383Y-8049934D01*
X95276341Y-8155767D01*
X95271300Y-8261600D01*
X94678633Y-8261600D01*
X94673592Y-8155767D01*
X94668550Y-8049934D01*
X94246833Y-8049934D01*
X94246833Y-7846734D01*
X94670166Y-7846734D01*
X94670166Y-8049934D01*
X95279766Y-8049934D01*
X95279766Y-7846734D01*
X95703100Y-7846734D01*
X95703100Y-8049934D01*
G36*
X94670166Y-7457267D02*
G01*
X94856433Y-7457267D01*
X94856433Y-6813801D01*
X94945333Y-6814060D01*
X95000104Y-6816687D01*
X95042256Y-6823114D01*
X95055803Y-6828008D01*
X95063865Y-6841604D01*
X95069437Y-6872999D01*
X95072718Y-6925950D01*
X95073909Y-7004218D01*
X95073211Y-7111561D01*
X95072736Y-7145249D01*
X95068100Y-7448801D01*
X94962266Y-7453842D01*
X94856433Y-7458883D01*
X94856433Y-7846734D01*
X94670166Y-7846734D01*
X94670166Y-7457267D01*
G37*
X94670166Y-7457267D02*
X94856433Y-7457267D01*
X94856433Y-6813801D01*
X94945333Y-6814060D01*
X95000104Y-6816687D01*
X95042256Y-6823114D01*
X95055803Y-6828008D01*
X95063865Y-6841604D01*
X95069437Y-6872999D01*
X95072718Y-6925950D01*
X95073909Y-7004218D01*
X95073211Y-7111561D01*
X95072736Y-7145249D01*
X95068100Y-7448801D01*
X94962266Y-7453842D01*
X94856433Y-7458883D01*
X94856433Y-7846734D01*
X94670166Y-7846734D01*
X94670166Y-7457267D01*
G36*
X88692700Y-2919134D02*
G01*
X88904366Y-2919196D01*
X88892892Y-2715934D01*
X89116033Y-2715934D01*
X89116033Y-1886201D01*
X89302300Y-1886201D01*
X89302300Y-1683001D01*
X89725633Y-1683001D01*
X89725633Y-1886201D01*
X89302902Y-1886201D01*
X89298368Y-2296834D01*
X89293833Y-2707467D01*
X89204933Y-2712585D01*
X89116033Y-2717704D01*
X89116033Y-2917518D01*
X89010200Y-2922559D01*
X88904366Y-2927601D01*
X88894284Y-3139267D01*
X88692700Y-3139267D01*
X88692700Y-2919134D01*
G37*
X88692700Y-2919134D02*
X88904366Y-2919196D01*
X88892892Y-2715934D01*
X89116033Y-2715934D01*
X89116033Y-1886201D01*
X89302300Y-1886201D01*
X89302300Y-1683001D01*
X89725633Y-1683001D01*
X89725633Y-1886201D01*
X89302902Y-1886201D01*
X89298368Y-2296834D01*
X89293833Y-2707467D01*
X89204933Y-2712585D01*
X89116033Y-2717704D01*
X89116033Y-2917518D01*
X89010200Y-2922559D01*
X88904366Y-2927601D01*
X88894284Y-3139267D01*
X88692700Y-3139267D01*
X88692700Y-2919134D01*
G36*
X90538433Y-2072467D02*
G01*
X90336849Y-2072467D01*
X90331808Y-2178300D01*
X90326767Y-2284134D01*
X89725633Y-2293382D01*
X89725633Y-1886201D01*
X89928833Y-1886201D01*
X89928833Y-2072467D01*
X90335233Y-2072467D01*
X90335233Y-1886201D01*
X90538433Y-1886201D01*
X90538433Y-2072467D01*
G37*
X90538433Y-2072467D02*
X90336849Y-2072467D01*
X90331808Y-2178300D01*
X90326767Y-2284134D01*
X89725633Y-2293382D01*
X89725633Y-1886201D01*
X89928833Y-1886201D01*
X89928833Y-2072467D01*
X90335233Y-2072467D01*
X90335233Y-1886201D01*
X90538433Y-1886201D01*
X90538433Y-2072467D01*
G36*
X96295766Y-2715934D02*
G01*
X96092566Y-2715934D01*
X96092566Y-2919134D01*
X95907916Y-2919134D01*
X95902875Y-3024967D01*
X95897833Y-3130801D01*
X95801323Y-3135853D01*
X95704813Y-3140906D01*
X95699723Y-3228987D01*
X95694633Y-3317067D01*
X95487200Y-3321822D01*
X95279766Y-3326576D01*
X95279766Y-3731934D01*
X95068100Y-3731872D01*
X95068100Y-3943601D01*
X94869133Y-3948371D01*
X94670166Y-3953142D01*
X94670166Y-4340491D01*
X94255300Y-4350001D01*
X94250545Y-4557434D01*
X94245791Y-4764867D01*
X93010700Y-4764867D01*
X93010700Y-4341534D01*
X92587367Y-4341534D01*
X92587367Y-4155267D01*
X92401100Y-4155267D01*
X92401100Y-3952067D01*
X91571366Y-3952067D01*
X91571366Y-3732092D01*
X93319733Y-3727780D01*
X95068100Y-3723467D01*
X95072871Y-3524500D01*
X95077641Y-3325534D01*
X95279766Y-3325534D01*
X95279766Y-3139267D01*
X95703100Y-3139267D01*
X95703100Y-2919134D01*
X95906300Y-2919134D01*
X95906300Y-2715934D01*
X96091819Y-2715934D01*
X96101033Y-2080934D01*
X96197571Y-2075880D01*
X96294108Y-2070827D01*
X96299171Y-2177480D01*
X96304233Y-2284134D01*
X96405833Y-2292601D01*
X96507433Y-2301067D01*
X96511850Y-3016501D01*
X96516267Y-3731934D01*
X96295766Y-3731934D01*
X96295766Y-2715934D01*
G37*
X96295766Y-2715934D02*
X96092566Y-2715934D01*
X96092566Y-2919134D01*
X95907916Y-2919134D01*
X95902875Y-3024967D01*
X95897833Y-3130801D01*
X95801323Y-3135853D01*
X95704813Y-3140906D01*
X95699723Y-3228987D01*
X95694633Y-3317067D01*
X95487200Y-3321822D01*
X95279766Y-3326576D01*
X95279766Y-3731934D01*
X95068100Y-3731872D01*
X95068100Y-3943601D01*
X94869133Y-3948371D01*
X94670166Y-3953142D01*
X94670166Y-4340491D01*
X94255300Y-4350001D01*
X94250545Y-4557434D01*
X94245791Y-4764867D01*
X93010700Y-4764867D01*
X93010700Y-4341534D01*
X92587367Y-4341534D01*
X92587367Y-4155267D01*
X92401100Y-4155267D01*
X92401100Y-3952067D01*
X91571366Y-3952067D01*
X91571366Y-3732092D01*
X93319733Y-3727780D01*
X95068100Y-3723467D01*
X95072871Y-3524500D01*
X95077641Y-3325534D01*
X95279766Y-3325534D01*
X95279766Y-3139267D01*
X95703100Y-3139267D01*
X95703100Y-2919134D01*
X95906300Y-2919134D01*
X95906300Y-2715934D01*
X96091819Y-2715934D01*
X96101033Y-2080934D01*
X96197571Y-2075880D01*
X96294108Y-2070827D01*
X96299171Y-2177480D01*
X96304233Y-2284134D01*
X96405833Y-2292601D01*
X96507433Y-2301067D01*
X96511850Y-3016501D01*
X96516267Y-3731934D01*
X96295766Y-3731934D01*
X96295766Y-2715934D01*
D12*
%TO.C,FUSE1*%
X126483500Y-14226064D02*
X126483500Y-13021936D01*
X124663500Y-14226064D02*
X124663500Y-13021936D01*
%TO.C,J4*%
X83810000Y-12310000D02*
X82480000Y-12310000D01*
X82480000Y-12310000D02*
X82480000Y-10980000D01*
X82480000Y-9710000D02*
X82480000Y510000D01*
X85140000Y510000D02*
X82480000Y510000D01*
X85140000Y-9710000D02*
X85140000Y510000D01*
X85140000Y-9710000D02*
X82480000Y-9710000D01*
%TO.C,D4*%
X143514500Y-19201500D02*
X140829500Y-19201500D01*
X143514500Y-21121500D02*
X143514500Y-19201500D01*
X140829500Y-21121500D02*
X143514500Y-21121500D01*
%TO.C,D3*%
X143514500Y-21106500D02*
X140829500Y-21106500D01*
X143514500Y-23026500D02*
X143514500Y-21106500D01*
X140829500Y-23026500D02*
X143514500Y-23026500D01*
%TO.C,D2*%
X144276500Y-596000D02*
X141591500Y-596000D01*
X144276500Y-2516000D02*
X144276500Y-596000D01*
X141591500Y-2516000D02*
X144276500Y-2516000D01*
%TO.C,D1*%
X144388500Y3341000D02*
X141703500Y3341000D01*
X144388500Y1421000D02*
X144388500Y3341000D01*
X141703500Y1421000D02*
X144388500Y1421000D01*
D15*
%TO.C,S1*%
X131078500Y-16421500D02*
X136578500Y-16421500D01*
X136578500Y-16421500D02*
X136578500Y-20091500D01*
X136578500Y-20091500D02*
X131078500Y-20091500D01*
X131078500Y-20091500D02*
X131078500Y-16421500D01*
X129303500Y-16896500D02*
X130728500Y-16896500D01*
%TD*%
%TO.C,J20*%
D18*
X106214523Y-23228095D02*
X107121666Y-23228095D01*
X107303095Y-23288571D01*
X107424047Y-23409523D01*
X107484523Y-23590952D01*
X107484523Y-23711904D01*
X106335476Y-22683809D02*
X106275000Y-22623333D01*
X106214523Y-22502380D01*
X106214523Y-22200000D01*
X106275000Y-22079047D01*
X106335476Y-22018571D01*
X106456428Y-21958095D01*
X106577380Y-21958095D01*
X106758809Y-22018571D01*
X107484523Y-22744285D01*
X107484523Y-21958095D01*
X106214523Y-21171904D02*
X106214523Y-21050952D01*
X106275000Y-20930000D01*
X106335476Y-20869523D01*
X106456428Y-20809047D01*
X106698333Y-20748571D01*
X107000714Y-20748571D01*
X107242619Y-20809047D01*
X107363571Y-20869523D01*
X107424047Y-20930000D01*
X107484523Y-21050952D01*
X107484523Y-21171904D01*
X107424047Y-21292857D01*
X107363571Y-21353333D01*
X107242619Y-21413809D01*
X107000714Y-21474285D01*
X106698333Y-21474285D01*
X106456428Y-21413809D01*
X106335476Y-21353333D01*
X106275000Y-21292857D01*
X106214523Y-21171904D01*
%TO.C,J5*%
D11*
X89392380Y-22103333D02*
X90106666Y-22103333D01*
X90249523Y-22150952D01*
X90344761Y-22246190D01*
X90392380Y-22389047D01*
X90392380Y-22484285D01*
X89392380Y-21150952D02*
X89392380Y-21627142D01*
X89868571Y-21674761D01*
X89820952Y-21627142D01*
X89773333Y-21531904D01*
X89773333Y-21293809D01*
X89820952Y-21198571D01*
X89868571Y-21150952D01*
X89963809Y-21103333D01*
X90201904Y-21103333D01*
X90297142Y-21150952D01*
X90344761Y-21198571D01*
X90392380Y-21293809D01*
X90392380Y-21531904D01*
X90344761Y-21627142D01*
X90297142Y-21674761D01*
%TO.C,R4*%
X139432666Y-18951904D02*
X139166000Y-18570952D01*
X138975523Y-18951904D02*
X138975523Y-18151904D01*
X139280285Y-18151904D01*
X139356476Y-18190000D01*
X139394571Y-18228095D01*
X139432666Y-18304285D01*
X139432666Y-18418571D01*
X139394571Y-18494761D01*
X139356476Y-18532857D01*
X139280285Y-18570952D01*
X138975523Y-18570952D01*
X140118380Y-18418571D02*
X140118380Y-18951904D01*
X139927904Y-18113809D02*
X139737428Y-18685238D01*
X140232666Y-18685238D01*
%TO.C,R3*%
X139432666Y-24031904D02*
X139166000Y-23650952D01*
X138975523Y-24031904D02*
X138975523Y-23231904D01*
X139280285Y-23231904D01*
X139356476Y-23270000D01*
X139394571Y-23308095D01*
X139432666Y-23384285D01*
X139432666Y-23498571D01*
X139394571Y-23574761D01*
X139356476Y-23612857D01*
X139280285Y-23650952D01*
X138975523Y-23650952D01*
X139699333Y-23231904D02*
X140194571Y-23231904D01*
X139927904Y-23536666D01*
X140042190Y-23536666D01*
X140118380Y-23574761D01*
X140156476Y-23612857D01*
X140194571Y-23689047D01*
X140194571Y-23879523D01*
X140156476Y-23955714D01*
X140118380Y-23993809D01*
X140042190Y-24031904D01*
X139813619Y-24031904D01*
X139737428Y-23993809D01*
X139699333Y-23955714D01*
%TO.C,R2*%
X140194666Y3146096D02*
X139928000Y3527048D01*
X139737523Y3146096D02*
X139737523Y3946096D01*
X140042285Y3946096D01*
X140118476Y3908000D01*
X140156571Y3869905D01*
X140194666Y3793715D01*
X140194666Y3679429D01*
X140156571Y3603239D01*
X140118476Y3565143D01*
X140042285Y3527048D01*
X139737523Y3527048D01*
X140499428Y3869905D02*
X140537523Y3908000D01*
X140613714Y3946096D01*
X140804190Y3946096D01*
X140880380Y3908000D01*
X140918476Y3869905D01*
X140956571Y3793715D01*
X140956571Y3717524D01*
X140918476Y3603239D01*
X140461333Y3146096D01*
X140956571Y3146096D01*
%TO.C,R1*%
X140194666Y2130096D02*
X139928000Y2511048D01*
X139737523Y2130096D02*
X139737523Y2930096D01*
X140042285Y2930096D01*
X140118476Y2892000D01*
X140156571Y2853905D01*
X140194666Y2777715D01*
X140194666Y2663429D01*
X140156571Y2587239D01*
X140118476Y2549143D01*
X140042285Y2511048D01*
X139737523Y2511048D01*
X140956571Y2130096D02*
X140499428Y2130096D01*
X140728000Y2130096D02*
X140728000Y2930096D01*
X140651809Y2815810D01*
X140575619Y2739620D01*
X140499428Y2701524D01*
%TO.C,R50*%
X87871904Y-15341785D02*
X87490952Y-15608452D01*
X87871904Y-15798928D02*
X87071904Y-15798928D01*
X87071904Y-15494166D01*
X87110000Y-15417976D01*
X87148095Y-15379880D01*
X87224285Y-15341785D01*
X87338571Y-15341785D01*
X87414761Y-15379880D01*
X87452857Y-15417976D01*
X87490952Y-15494166D01*
X87490952Y-15798928D01*
X87071904Y-14617976D02*
X87071904Y-14998928D01*
X87452857Y-15037023D01*
X87414761Y-14998928D01*
X87376666Y-14922738D01*
X87376666Y-14732261D01*
X87414761Y-14656071D01*
X87452857Y-14617976D01*
X87529047Y-14579880D01*
X87719523Y-14579880D01*
X87795714Y-14617976D01*
X87833809Y-14656071D01*
X87871904Y-14732261D01*
X87871904Y-14922738D01*
X87833809Y-14998928D01*
X87795714Y-15037023D01*
X87071904Y-14084642D02*
X87071904Y-14008452D01*
X87110000Y-13932261D01*
X87148095Y-13894166D01*
X87224285Y-13856071D01*
X87376666Y-13817976D01*
X87567142Y-13817976D01*
X87719523Y-13856071D01*
X87795714Y-13894166D01*
X87833809Y-13932261D01*
X87871904Y-14008452D01*
X87871904Y-14084642D01*
X87833809Y-14160833D01*
X87795714Y-14198928D01*
X87719523Y-14237023D01*
X87567142Y-14275119D01*
X87376666Y-14275119D01*
X87224285Y-14237023D01*
X87148095Y-14198928D01*
X87110000Y-14160833D01*
X87071904Y-14084642D01*
%TO.C,R49*%
X123925904Y-15294285D02*
X123544952Y-15560952D01*
X123925904Y-15751428D02*
X123125904Y-15751428D01*
X123125904Y-15446666D01*
X123164000Y-15370476D01*
X123202095Y-15332380D01*
X123278285Y-15294285D01*
X123392571Y-15294285D01*
X123468761Y-15332380D01*
X123506857Y-15370476D01*
X123544952Y-15446666D01*
X123544952Y-15751428D01*
X123392571Y-14608571D02*
X123925904Y-14608571D01*
X123087809Y-14799047D02*
X123659238Y-14989523D01*
X123659238Y-14494285D01*
X123925904Y-14151428D02*
X123925904Y-13999047D01*
X123887809Y-13922857D01*
X123849714Y-13884761D01*
X123735428Y-13808571D01*
X123583047Y-13770476D01*
X123278285Y-13770476D01*
X123202095Y-13808571D01*
X123164000Y-13846666D01*
X123125904Y-13922857D01*
X123125904Y-14075238D01*
X123164000Y-14151428D01*
X123202095Y-14189523D01*
X123278285Y-14227619D01*
X123468761Y-14227619D01*
X123544952Y-14189523D01*
X123583047Y-14151428D01*
X123621142Y-14075238D01*
X123621142Y-13922857D01*
X123583047Y-13846666D01*
X123544952Y-13808571D01*
X123468761Y-13770476D01*
%TO.C,R45*%
X116559904Y-15341785D02*
X116178952Y-15608452D01*
X116559904Y-15798928D02*
X115759904Y-15798928D01*
X115759904Y-15494166D01*
X115798000Y-15417976D01*
X115836095Y-15379880D01*
X115912285Y-15341785D01*
X116026571Y-15341785D01*
X116102761Y-15379880D01*
X116140857Y-15417976D01*
X116178952Y-15494166D01*
X116178952Y-15798928D01*
X116026571Y-14656071D02*
X116559904Y-14656071D01*
X115721809Y-14846547D02*
X116293238Y-15037023D01*
X116293238Y-14541785D01*
X115759904Y-13856071D02*
X115759904Y-14237023D01*
X116140857Y-14275119D01*
X116102761Y-14237023D01*
X116064666Y-14160833D01*
X116064666Y-13970357D01*
X116102761Y-13894166D01*
X116140857Y-13856071D01*
X116217047Y-13817976D01*
X116407523Y-13817976D01*
X116483714Y-13856071D01*
X116521809Y-13894166D01*
X116559904Y-13970357D01*
X116559904Y-14160833D01*
X116521809Y-14237023D01*
X116483714Y-14275119D01*
%TO.C,R41*%
X130734404Y-15516786D02*
X130353452Y-15783453D01*
X130734404Y-15973929D02*
X129934404Y-15973929D01*
X129934404Y-15669167D01*
X129972500Y-15592977D01*
X130010595Y-15554881D01*
X130086785Y-15516786D01*
X130201071Y-15516786D01*
X130277261Y-15554881D01*
X130315357Y-15592977D01*
X130353452Y-15669167D01*
X130353452Y-15973929D01*
X130201071Y-14831072D02*
X130734404Y-14831072D01*
X129896309Y-15021548D02*
X130467738Y-15212024D01*
X130467738Y-14716786D01*
X130734404Y-13992977D02*
X130734404Y-14450120D01*
X130734404Y-14221548D02*
X129934404Y-14221548D01*
X130048690Y-14297739D01*
X130124880Y-14373929D01*
X130162976Y-14450120D01*
%TO.C,R32*%
X87857904Y-12992285D02*
X87476952Y-13258952D01*
X87857904Y-13449428D02*
X87057904Y-13449428D01*
X87057904Y-13144666D01*
X87096000Y-13068476D01*
X87134095Y-13030380D01*
X87210285Y-12992285D01*
X87324571Y-12992285D01*
X87400761Y-13030380D01*
X87438857Y-13068476D01*
X87476952Y-13144666D01*
X87476952Y-13449428D01*
X87057904Y-12725619D02*
X87057904Y-12230380D01*
X87362666Y-12497047D01*
X87362666Y-12382761D01*
X87400761Y-12306571D01*
X87438857Y-12268476D01*
X87515047Y-12230380D01*
X87705523Y-12230380D01*
X87781714Y-12268476D01*
X87819809Y-12306571D01*
X87857904Y-12382761D01*
X87857904Y-12611333D01*
X87819809Y-12687523D01*
X87781714Y-12725619D01*
X87134095Y-11925619D02*
X87096000Y-11887523D01*
X87057904Y-11811333D01*
X87057904Y-11620857D01*
X87096000Y-11544666D01*
X87134095Y-11506571D01*
X87210285Y-11468476D01*
X87286476Y-11468476D01*
X87400761Y-11506571D01*
X87857904Y-11963714D01*
X87857904Y-11468476D01*
%TO.C,R31*%
X123866904Y-12992285D02*
X123485952Y-13258952D01*
X123866904Y-13449428D02*
X123066904Y-13449428D01*
X123066904Y-13144666D01*
X123105000Y-13068476D01*
X123143095Y-13030380D01*
X123219285Y-12992285D01*
X123333571Y-12992285D01*
X123409761Y-13030380D01*
X123447857Y-13068476D01*
X123485952Y-13144666D01*
X123485952Y-13449428D01*
X123066904Y-12725619D02*
X123066904Y-12230380D01*
X123371666Y-12497047D01*
X123371666Y-12382761D01*
X123409761Y-12306571D01*
X123447857Y-12268476D01*
X123524047Y-12230380D01*
X123714523Y-12230380D01*
X123790714Y-12268476D01*
X123828809Y-12306571D01*
X123866904Y-12382761D01*
X123866904Y-12611333D01*
X123828809Y-12687523D01*
X123790714Y-12725619D01*
X123866904Y-11468476D02*
X123866904Y-11925619D01*
X123866904Y-11697047D02*
X123066904Y-11697047D01*
X123181190Y-11773238D01*
X123257380Y-11849428D01*
X123295476Y-11925619D01*
%TO.C,R27*%
X116559904Y-12992285D02*
X116178952Y-13258952D01*
X116559904Y-13449428D02*
X115759904Y-13449428D01*
X115759904Y-13144666D01*
X115798000Y-13068476D01*
X115836095Y-13030380D01*
X115912285Y-12992285D01*
X116026571Y-12992285D01*
X116102761Y-13030380D01*
X116140857Y-13068476D01*
X116178952Y-13144666D01*
X116178952Y-13449428D01*
X115836095Y-12687523D02*
X115798000Y-12649428D01*
X115759904Y-12573238D01*
X115759904Y-12382761D01*
X115798000Y-12306571D01*
X115836095Y-12268476D01*
X115912285Y-12230380D01*
X115988476Y-12230380D01*
X116102761Y-12268476D01*
X116559904Y-12725619D01*
X116559904Y-12230380D01*
X115759904Y-11963714D02*
X115759904Y-11430380D01*
X116559904Y-11773238D01*
%TO.C,R23*%
X130783904Y-13119285D02*
X130402952Y-13385952D01*
X130783904Y-13576428D02*
X129983904Y-13576428D01*
X129983904Y-13271666D01*
X130022000Y-13195476D01*
X130060095Y-13157380D01*
X130136285Y-13119285D01*
X130250571Y-13119285D01*
X130326761Y-13157380D01*
X130364857Y-13195476D01*
X130402952Y-13271666D01*
X130402952Y-13576428D01*
X130060095Y-12814523D02*
X130022000Y-12776428D01*
X129983904Y-12700238D01*
X129983904Y-12509761D01*
X130022000Y-12433571D01*
X130060095Y-12395476D01*
X130136285Y-12357380D01*
X130212476Y-12357380D01*
X130326761Y-12395476D01*
X130783904Y-12852619D01*
X130783904Y-12357380D01*
X129983904Y-12090714D02*
X129983904Y-11595476D01*
X130288666Y-11862142D01*
X130288666Y-11747857D01*
X130326761Y-11671666D01*
X130364857Y-11633571D01*
X130441047Y-11595476D01*
X130631523Y-11595476D01*
X130707714Y-11633571D01*
X130745809Y-11671666D01*
X130783904Y-11747857D01*
X130783904Y-11976428D01*
X130745809Y-12052619D01*
X130707714Y-12090714D01*
%TO.C,R22*%
X101641904Y1716715D02*
X101260952Y1450048D01*
X101641904Y1259572D02*
X100841904Y1259572D01*
X100841904Y1564334D01*
X100880000Y1640524D01*
X100918095Y1678620D01*
X100994285Y1716715D01*
X101108571Y1716715D01*
X101184761Y1678620D01*
X101222857Y1640524D01*
X101260952Y1564334D01*
X101260952Y1259572D01*
X100918095Y2021477D02*
X100880000Y2059572D01*
X100841904Y2135762D01*
X100841904Y2326239D01*
X100880000Y2402429D01*
X100918095Y2440524D01*
X100994285Y2478620D01*
X101070476Y2478620D01*
X101184761Y2440524D01*
X101641904Y1983381D01*
X101641904Y2478620D01*
X100918095Y2783381D02*
X100880000Y2821477D01*
X100841904Y2897667D01*
X100841904Y3088143D01*
X100880000Y3164334D01*
X100918095Y3202429D01*
X100994285Y3240524D01*
X101070476Y3240524D01*
X101184761Y3202429D01*
X101641904Y2745286D01*
X101641904Y3240524D01*
%TO.C,R14*%
X89127904Y1723715D02*
X88746952Y1457048D01*
X89127904Y1266572D02*
X88327904Y1266572D01*
X88327904Y1571334D01*
X88366000Y1647524D01*
X88404095Y1685620D01*
X88480285Y1723715D01*
X88594571Y1723715D01*
X88670761Y1685620D01*
X88708857Y1647524D01*
X88746952Y1571334D01*
X88746952Y1266572D01*
X89127904Y2485620D02*
X89127904Y2028477D01*
X89127904Y2257048D02*
X88327904Y2257048D01*
X88442190Y2180858D01*
X88518380Y2104667D01*
X88556476Y2028477D01*
X88594571Y3171334D02*
X89127904Y3171334D01*
X88289809Y2980858D02*
X88861238Y2790381D01*
X88861238Y3285620D01*
%TO.C,R13*%
X125136904Y1716715D02*
X124755952Y1450048D01*
X125136904Y1259572D02*
X124336904Y1259572D01*
X124336904Y1564334D01*
X124375000Y1640524D01*
X124413095Y1678620D01*
X124489285Y1716715D01*
X124603571Y1716715D01*
X124679761Y1678620D01*
X124717857Y1640524D01*
X124755952Y1564334D01*
X124755952Y1259572D01*
X125136904Y2478620D02*
X125136904Y2021477D01*
X125136904Y2250048D02*
X124336904Y2250048D01*
X124451190Y2173858D01*
X124527380Y2097667D01*
X124565476Y2021477D01*
X124336904Y2745286D02*
X124336904Y3240524D01*
X124641666Y2973858D01*
X124641666Y3088143D01*
X124679761Y3164334D01*
X124717857Y3202429D01*
X124794047Y3240524D01*
X124984523Y3240524D01*
X125060714Y3202429D01*
X125098809Y3164334D01*
X125136904Y3088143D01*
X125136904Y2859572D01*
X125098809Y2783381D01*
X125060714Y2745286D01*
%TO.C,R9*%
X117829904Y2104667D02*
X117448952Y1838000D01*
X117829904Y1647524D02*
X117029904Y1647524D01*
X117029904Y1952286D01*
X117068000Y2028477D01*
X117106095Y2066572D01*
X117182285Y2104667D01*
X117296571Y2104667D01*
X117372761Y2066572D01*
X117410857Y2028477D01*
X117448952Y1952286D01*
X117448952Y1647524D01*
X117829904Y2485620D02*
X117829904Y2638000D01*
X117791809Y2714191D01*
X117753714Y2752286D01*
X117639428Y2828477D01*
X117487047Y2866572D01*
X117182285Y2866572D01*
X117106095Y2828477D01*
X117068000Y2790381D01*
X117029904Y2714191D01*
X117029904Y2561810D01*
X117068000Y2485620D01*
X117106095Y2447524D01*
X117182285Y2409429D01*
X117372761Y2409429D01*
X117448952Y2447524D01*
X117487047Y2485620D01*
X117525142Y2561810D01*
X117525142Y2714191D01*
X117487047Y2790381D01*
X117448952Y2828477D01*
X117372761Y2866572D01*
%TO.C,R8*%
X137895904Y2104667D02*
X137514952Y1838000D01*
X137895904Y1647524D02*
X137095904Y1647524D01*
X137095904Y1952286D01*
X137134000Y2028477D01*
X137172095Y2066572D01*
X137248285Y2104667D01*
X137362571Y2104667D01*
X137438761Y2066572D01*
X137476857Y2028477D01*
X137514952Y1952286D01*
X137514952Y1647524D01*
X137438761Y2561810D02*
X137400666Y2485620D01*
X137362571Y2447524D01*
X137286380Y2409429D01*
X137248285Y2409429D01*
X137172095Y2447524D01*
X137134000Y2485620D01*
X137095904Y2561810D01*
X137095904Y2714191D01*
X137134000Y2790381D01*
X137172095Y2828477D01*
X137248285Y2866572D01*
X137286380Y2866572D01*
X137362571Y2828477D01*
X137400666Y2790381D01*
X137438761Y2714191D01*
X137438761Y2561810D01*
X137476857Y2485620D01*
X137514952Y2447524D01*
X137591142Y2409429D01*
X137743523Y2409429D01*
X137819714Y2447524D01*
X137857809Y2485620D01*
X137895904Y2561810D01*
X137895904Y2714191D01*
X137857809Y2790381D01*
X137819714Y2828477D01*
X137743523Y2866572D01*
X137591142Y2866572D01*
X137514952Y2828477D01*
X137476857Y2790381D01*
X137438761Y2714191D01*
%TO.C,R5*%
X132053904Y2104667D02*
X131672952Y1838000D01*
X132053904Y1647524D02*
X131253904Y1647524D01*
X131253904Y1952286D01*
X131292000Y2028477D01*
X131330095Y2066572D01*
X131406285Y2104667D01*
X131520571Y2104667D01*
X131596761Y2066572D01*
X131634857Y2028477D01*
X131672952Y1952286D01*
X131672952Y1647524D01*
X131253904Y2828477D02*
X131253904Y2447524D01*
X131634857Y2409429D01*
X131596761Y2447524D01*
X131558666Y2523715D01*
X131558666Y2714191D01*
X131596761Y2790381D01*
X131634857Y2828477D01*
X131711047Y2866572D01*
X131901523Y2866572D01*
X131977714Y2828477D01*
X132015809Y2790381D01*
X132053904Y2714191D01*
X132053904Y2523715D01*
X132015809Y2447524D01*
X131977714Y2409429D01*
%TO.C,J3*%
X82082666Y-25154380D02*
X82082666Y-25868666D01*
X82035047Y-26011523D01*
X81939809Y-26106761D01*
X81796952Y-26154380D01*
X81701714Y-26154380D01*
X82463619Y-25154380D02*
X83082666Y-25154380D01*
X82749333Y-25535333D01*
X82892190Y-25535333D01*
X82987428Y-25582952D01*
X83035047Y-25630571D01*
X83082666Y-25725809D01*
X83082666Y-25963904D01*
X83035047Y-26059142D01*
X82987428Y-26106761D01*
X82892190Y-26154380D01*
X82606476Y-26154380D01*
X82511238Y-26106761D01*
X82463619Y-26059142D01*
%TO.C,IC3*%
D18*
X124434523Y-6209761D02*
X123164523Y-6209761D01*
X124313571Y-4879285D02*
X124374047Y-4939761D01*
X124434523Y-5121190D01*
X124434523Y-5242142D01*
X124374047Y-5423571D01*
X124253095Y-5544523D01*
X124132142Y-5605000D01*
X123890238Y-5665476D01*
X123708809Y-5665476D01*
X123466904Y-5605000D01*
X123345952Y-5544523D01*
X123225000Y-5423571D01*
X123164523Y-5242142D01*
X123164523Y-5121190D01*
X123225000Y-4939761D01*
X123285476Y-4879285D01*
X123164523Y-4455952D02*
X123164523Y-3669761D01*
X123648333Y-4093095D01*
X123648333Y-3911666D01*
X123708809Y-3790714D01*
X123769285Y-3730238D01*
X123890238Y-3669761D01*
X124192619Y-3669761D01*
X124313571Y-3730238D01*
X124374047Y-3790714D01*
X124434523Y-3911666D01*
X124434523Y-4274523D01*
X124374047Y-4395476D01*
X124313571Y-4455952D01*
%TO.C,J8*%
X143696523Y-8345333D02*
X144603666Y-8345333D01*
X144785095Y-8405809D01*
X144906047Y-8526761D01*
X144966523Y-8708190D01*
X144966523Y-8829142D01*
X144240809Y-7559142D02*
X144180333Y-7680095D01*
X144119857Y-7740571D01*
X143998904Y-7801047D01*
X143938428Y-7801047D01*
X143817476Y-7740571D01*
X143757000Y-7680095D01*
X143696523Y-7559142D01*
X143696523Y-7317238D01*
X143757000Y-7196285D01*
X143817476Y-7135809D01*
X143938428Y-7075333D01*
X143998904Y-7075333D01*
X144119857Y-7135809D01*
X144180333Y-7196285D01*
X144240809Y-7317238D01*
X144240809Y-7559142D01*
X144301285Y-7680095D01*
X144361761Y-7740571D01*
X144482714Y-7801047D01*
X144724619Y-7801047D01*
X144845571Y-7740571D01*
X144906047Y-7680095D01*
X144966523Y-7559142D01*
X144966523Y-7317238D01*
X144906047Y-7196285D01*
X144845571Y-7135809D01*
X144724619Y-7075333D01*
X144482714Y-7075333D01*
X144361761Y-7135809D01*
X144301285Y-7196285D01*
X144240809Y-7317238D01*
%TO.C,IC4*%
X137474523Y-6039761D02*
X136204523Y-6039761D01*
X137353571Y-4709285D02*
X137414047Y-4769761D01*
X137474523Y-4951190D01*
X137474523Y-5072142D01*
X137414047Y-5253571D01*
X137293095Y-5374523D01*
X137172142Y-5435000D01*
X136930238Y-5495476D01*
X136748809Y-5495476D01*
X136506904Y-5435000D01*
X136385952Y-5374523D01*
X136265000Y-5253571D01*
X136204523Y-5072142D01*
X136204523Y-4951190D01*
X136265000Y-4769761D01*
X136325476Y-4709285D01*
X136627857Y-3620714D02*
X137474523Y-3620714D01*
X136144047Y-3923095D02*
X137051190Y-4225476D01*
X137051190Y-3439285D01*
%TO.C,IC2*%
X87654523Y-6339761D02*
X86384523Y-6339761D01*
X87533571Y-5009285D02*
X87594047Y-5069761D01*
X87654523Y-5251190D01*
X87654523Y-5372142D01*
X87594047Y-5553571D01*
X87473095Y-5674523D01*
X87352142Y-5735000D01*
X87110238Y-5795476D01*
X86928809Y-5795476D01*
X86686904Y-5735000D01*
X86565952Y-5674523D01*
X86445000Y-5553571D01*
X86384523Y-5372142D01*
X86384523Y-5251190D01*
X86445000Y-5069761D01*
X86505476Y-5009285D01*
X86505476Y-4525476D02*
X86445000Y-4465000D01*
X86384523Y-4344047D01*
X86384523Y-4041666D01*
X86445000Y-3920714D01*
X86505476Y-3860238D01*
X86626428Y-3799761D01*
X86747380Y-3799761D01*
X86928809Y-3860238D01*
X87654523Y-4585952D01*
X87654523Y-3799761D01*
%TO.C,IC1*%
X100764523Y-5889761D02*
X99494523Y-5889761D01*
X100643571Y-4559285D02*
X100704047Y-4619761D01*
X100764523Y-4801190D01*
X100764523Y-4922142D01*
X100704047Y-5103571D01*
X100583095Y-5224523D01*
X100462142Y-5285000D01*
X100220238Y-5345476D01*
X100038809Y-5345476D01*
X99796904Y-5285000D01*
X99675952Y-5224523D01*
X99555000Y-5103571D01*
X99494523Y-4922142D01*
X99494523Y-4801190D01*
X99555000Y-4619761D01*
X99615476Y-4559285D01*
X100764523Y-3349761D02*
X100764523Y-4075476D01*
X100764523Y-3712619D02*
X99494523Y-3712619D01*
X99675952Y-3833571D01*
X99796904Y-3954523D01*
X99857380Y-4075476D01*
%TO.C,D5*%
D16*
X128193333Y-16716666D02*
X128193333Y-16016666D01*
X128360000Y-16016666D01*
X128460000Y-16050000D01*
X128526666Y-16116666D01*
X128560000Y-16183333D01*
X128593333Y-16316666D01*
X128593333Y-16416666D01*
X128560000Y-16550000D01*
X128526666Y-16616666D01*
X128460000Y-16683333D01*
X128360000Y-16716666D01*
X128193333Y-16716666D01*
X129226666Y-16016666D02*
X128893333Y-16016666D01*
X128860000Y-16350000D01*
X128893333Y-16316666D01*
X128960000Y-16283333D01*
X129126666Y-16283333D01*
X129193333Y-16316666D01*
X129226666Y-16350000D01*
X129260000Y-16416666D01*
X129260000Y-16583333D01*
X129226666Y-16650000D01*
X129193333Y-16683333D01*
X129126666Y-16716666D01*
X128960000Y-16716666D01*
X128893333Y-16683333D01*
X128860000Y-16650000D01*
%TO.C,J7*%
D11*
X86481380Y2492167D02*
X87195666Y2492167D01*
X87338523Y2444548D01*
X87433761Y2349310D01*
X87481380Y2206453D01*
X87481380Y2111215D01*
X86481380Y2873120D02*
X86481380Y3539786D01*
X87481380Y3111215D01*
%TO.C,FUSE1*%
D16*
X127060000Y-14850000D02*
X127060000Y-15083333D01*
X127426666Y-15083333D02*
X126726666Y-15083333D01*
X126726666Y-14750000D01*
X126726666Y-14483333D02*
X127293333Y-14483333D01*
X127360000Y-14450000D01*
X127393333Y-14416666D01*
X127426666Y-14350000D01*
X127426666Y-14216666D01*
X127393333Y-14150000D01*
X127360000Y-14116666D01*
X127293333Y-14083333D01*
X126726666Y-14083333D01*
X127393333Y-13783333D02*
X127426666Y-13683333D01*
X127426666Y-13516666D01*
X127393333Y-13450000D01*
X127360000Y-13416666D01*
X127293333Y-13383333D01*
X127226666Y-13383333D01*
X127160000Y-13416666D01*
X127126666Y-13450000D01*
X127093333Y-13516666D01*
X127060000Y-13650000D01*
X127026666Y-13716666D01*
X126993333Y-13750000D01*
X126926666Y-13783333D01*
X126860000Y-13783333D01*
X126793333Y-13750000D01*
X126760000Y-13716666D01*
X126726666Y-13650000D01*
X126726666Y-13483333D01*
X126760000Y-13383333D01*
X127060000Y-13083333D02*
X127060000Y-12850000D01*
X127426666Y-12750000D02*
X127426666Y-13083333D01*
X126726666Y-13083333D01*
X126726666Y-12750000D01*
X127426666Y-12083333D02*
X127426666Y-12483333D01*
X127426666Y-12283333D02*
X126726666Y-12283333D01*
X126826666Y-12350000D01*
X126893333Y-12416666D01*
X126926666Y-12483333D01*
%TO.C,J4*%
D11*
X85362166Y-11485880D02*
X85362166Y-12200166D01*
X85314547Y-12343023D01*
X85219309Y-12438261D01*
X85076452Y-12485880D01*
X84981214Y-12485880D01*
X86266928Y-11819214D02*
X86266928Y-12485880D01*
X86028833Y-11438261D02*
X85790738Y-12152547D01*
X86409785Y-12152547D01*
%TO.C,D4*%
D16*
X142040690Y-20530547D02*
X141540690Y-20530547D01*
X141540690Y-20411500D01*
X141564500Y-20340071D01*
X141612119Y-20292452D01*
X141659738Y-20268642D01*
X141754976Y-20244833D01*
X141826404Y-20244833D01*
X141921642Y-20268642D01*
X141969261Y-20292452D01*
X142016880Y-20340071D01*
X142040690Y-20411500D01*
X142040690Y-20530547D01*
X141707357Y-19816261D02*
X142040690Y-19816261D01*
X141516880Y-19935309D02*
X141874023Y-20054357D01*
X141874023Y-19744833D01*
%TO.C,D3*%
X142061856Y-22435547D02*
X141561856Y-22435547D01*
X141561856Y-22316500D01*
X141585666Y-22245071D01*
X141633285Y-22197452D01*
X141680904Y-22173642D01*
X141776142Y-22149833D01*
X141847570Y-22149833D01*
X141942808Y-22173642D01*
X141990427Y-22197452D01*
X142038046Y-22245071D01*
X142061856Y-22316500D01*
X142061856Y-22435547D01*
X141561856Y-21983166D02*
X141561856Y-21673642D01*
X141752332Y-21840309D01*
X141752332Y-21768880D01*
X141776142Y-21721261D01*
X141799951Y-21697452D01*
X141847570Y-21673642D01*
X141966618Y-21673642D01*
X142014237Y-21697452D01*
X142038046Y-21721261D01*
X142061856Y-21768880D01*
X142061856Y-21911738D01*
X142038046Y-21959357D01*
X142014237Y-21983166D01*
%TO.C,D2*%
X142781523Y-1925047D02*
X142281523Y-1925047D01*
X142281523Y-1806000D01*
X142305333Y-1734571D01*
X142352952Y-1686952D01*
X142400571Y-1663142D01*
X142495809Y-1639333D01*
X142567237Y-1639333D01*
X142662475Y-1663142D01*
X142710094Y-1686952D01*
X142757713Y-1734571D01*
X142781523Y-1806000D01*
X142781523Y-1925047D01*
X142329142Y-1448857D02*
X142305333Y-1425047D01*
X142281523Y-1377428D01*
X142281523Y-1258380D01*
X142305333Y-1210761D01*
X142329142Y-1186952D01*
X142376761Y-1163142D01*
X142424380Y-1163142D01*
X142495809Y-1186952D01*
X142781523Y-1472666D01*
X142781523Y-1163142D01*
%TO.C,D1*%
X142914690Y2011953D02*
X142414690Y2011953D01*
X142414690Y2131000D01*
X142438500Y2202429D01*
X142486119Y2250048D01*
X142533738Y2273858D01*
X142628976Y2297667D01*
X142700404Y2297667D01*
X142795642Y2273858D01*
X142843261Y2250048D01*
X142890880Y2202429D01*
X142914690Y2131000D01*
X142914690Y2011953D01*
X142914690Y2773858D02*
X142914690Y2488143D01*
X142914690Y2631000D02*
X142414690Y2631000D01*
X142486119Y2583381D01*
X142533738Y2535762D01*
X142557547Y2488143D01*
%TO.C,S1*%
D18*
X132860880Y-18770547D02*
X133042309Y-18831023D01*
X133344690Y-18831023D01*
X133465642Y-18770547D01*
X133526119Y-18710071D01*
X133586595Y-18589119D01*
X133586595Y-18468166D01*
X133526119Y-18347214D01*
X133465642Y-18286738D01*
X133344690Y-18226261D01*
X133102785Y-18165785D01*
X132981833Y-18105309D01*
X132921357Y-18044833D01*
X132860880Y-17923880D01*
X132860880Y-17802928D01*
X132921357Y-17681976D01*
X132981833Y-17621500D01*
X133102785Y-17561023D01*
X133405166Y-17561023D01*
X133586595Y-17621500D01*
X134796119Y-18831023D02*
X134070404Y-18831023D01*
X134433261Y-18831023D02*
X134433261Y-17561023D01*
X134312309Y-17742452D01*
X134191357Y-17863404D01*
X134070404Y-17923880D01*
%TD*%
M02*
